SplineFontDB: 3.2
FontName: SeriousSansLightItalic
FullName: Serious Sans Light Italic
FamilyName: Serious Sans Light Italic
Weight: Light
Copyright: https://github.com/kaBeech/serious-sans/blob/main/LICENSE
Version: 0.2.0
ItalicAngle: 0
UnderlinePosition: 0
UnderlineWidth: 0
Ascent: 1638
Descent: 410
InvalidEm: 0
LayerCount: 2
Layer: 0 0 "Back" 1
Layer: 1 0 "Fore" 0
XUID: [1021 107 -322497659 15663982]
StyleMap: 0x0040
FSType: 4
OS2Version: 3
OS2_WeightWidthSlopeOnly: 0
OS2_UseTypoMetrics: 0
CreationTime: 1532631502
ModificationTime: 1679202461
PfmFamily: 81
TTFWeight: 400
TTFWidth: 5
LineGap: 0
VLineGap: 0
Panose: 0 0 0 0 0 0 0 0 0 0
OS2TypoAscent: 1255
OS2TypoAOffset: 0
OS2TypoDescent: -385
OS2TypoDOffset: 0
OS2TypoLinegap: 201
OS2WinAscent: 1593
OS2WinAOffset: 0
OS2WinDescent: 631
OS2WinDOffset: 0
HheadAscent: 1630
HheadAOffset: 0
HheadDescent: -649
HheadDOffset: 0
OS2SubXSize: 649
OS2SubYSize: 600
OS2SubXOff: 0
OS2SubYOff: 76
OS2SupXSize: 649
OS2SupYSize: 600
OS2SupXOff: 0
OS2SupYOff: 350
OS2StrikeYSize: 0
OS2StrikeYPos: 270
OS2CapHeight: 1180
OS2XHeight: 993
OS2Vendor: 'NONE'
OS2CodePages: 00000001.00000000
OS2UnicodeRanges: 00000001.00000000.00000000.00000000
MarkAttachClasses: 1
DEI: 91125
LangName: 1033 "" "" "Normal" "FontForge 2.0 : Serious Sans Light Italic : 19-3-2023" "" "Version 0.1.2"
Encoding: UnicodeBmp
UnicodeInterp: none
NameList: AGL For New Fonts
DisplaySize: -48
AntiAlias: 1
FitToEm: 0
WinInfo: 64 16 5
BeginPrivate: 8
BlueValues 39 [-80 -12 1004 1067 1403 1470 1567 1575]
OtherBlues 11 [-623 -598]
BlueScale 9 0.0291667
BlueShift 1 6
StdHW 5 [137]
StdVW 5 [133]
StemSnapH 29 [125 127 129 133 137 193 266]
StemSnapV 16 [82 119 133 256]
EndPrivate
BeginChars: 65539 103

StartChar: .notdef
Encoding: 65536 -1 0
Width: 1044
GlyphClass: 1
Flags: HW
HStem: 1409 41G<402 1073>
LayerCount: 2
Fore
SplineSet
375 1509 m 1
 -94 -522 l 1
 670 -522 l 1
 1139 1509 l 1
 375 1509 l 1
1073 1450 m 1
 633 -463 l 1
 -31 -463 l 1
 412 1450 l 1
 1073 1450 l 1
EndSplineSet
Validated: 9
EndChar

StartChar: exclam
Encoding: 33 33 1
Width: 1044
GlyphClass: 2
Flags: HW
HStem: -27 266<315 451>
VStem: 247 270<39 175>
LayerCount: 2
Fore
SplineSet
558 561 m 0
 566 605 574 636 581 656 c 0
 588 676 602 738 624 842 c 0
 646 946 678 1081 722 1248 c 0
 766 1415 790 1506 793 1519 c 0
 796 1532 798 1543 798 1554 c 0
 798 1565 796 1574 792 1579 c 0
 785 1587 773 1591 757 1591 c 2
 751 1591 l 2
 731 1591 711 1584 694 1569 c 0
 677 1554 664 1530 656 1499 c 0
 652 1483 641 1439 623 1369 c 0
 605 1299 593 1254 588 1234 c 0
 583 1214 574 1174 560 1115 c 0
 546 1056 533 994 521 930 c 0
 509 866 496 809 484 760 c 0
 472 711 464 680 460 666 c 0
 456 652 450 635 442 615 c 0
 434 595 428 576 421 557 c 0
 417 541 415 529 415 521 c 0
 415 513 417 507 421 502 c 0
 428 491 440 485 458 485 c 1
 464 485 l 2
 483 485 501 492 519 505 c 0
 537 518 550 536 558 561 c 0
517 154 m 0
 517 176 512 194 501 209 c 0
 486 229 462 240 431 240 c 0
 393 240 354 226 316 197 c 0
 282 171 261 139 251 104 c 0
 248 90 247 79 247 68 c 0
 247 45 253 24 265 6 c 0
 279 -14 301 -26 331 -27 c 0
 336 -27 342 -26 347 -25 c 0
 389 -21 426 -5 456 22 c 0
 486 49 505 80 513 117 c 0
 516 131 517 143 517 154 c 0
EndSplineSet
Validated: 9
EndChar

StartChar: quotedbl
Encoding: 34 34 2
Width: 1044
GlyphClass: 2
Flags: HW
HStem: 918 662
LayerCount: 2
Fore
SplineSet
457 1579 m 2
 444 1579 l 2
 429 1579 412 1576 393 1569 c 0
 385 1566 378 1560 371 1550 c 0
 364 1542 359 1532 356 1518 c 0
 342 1447 324 1356 301 1247 c 0
 278 1138 255 1049 233 979 c 0
 230 971 229 963 229 955 c 0
 229 947 233 941 238 936 c 0
 250 925 266 919 285 918 c 1
 287 918 l 2
 301 918 316 923 332 933 c 0
 348 943 361 959 369 981 c 0
 385 1029 409 1116 441 1243 c 0
 473 1370 496 1462 508 1518 c 0
 511 1532 511 1541 508 1549 c 0
 505 1557 503 1563 500 1567 c 0
 488 1575 473 1579 457 1579 c 2
748 1243 m 0
 793 1423 815 1522 815 1538 c 0
 815 1552 812 1561 806 1566 c 0
 800 1571 793 1574 786 1576 c 0
 779 1578 772 1579 762 1579 c 1
 750 1579 l 2
 735 1579 718 1576 700 1569 c 0
 692 1566 685 1560 677 1551 c 0
 669 1542 665 1532 662 1518 c 0
 648 1447 629 1356 606 1247 c 0
 583 1138 561 1049 541 979 c 0
 538 969 537 961 537 954 c 0
 537 947 539 941 543 936 c 0
 555 925 571 919 590 918 c 1
 592 918 l 2
 606 918 621 923 638 933 c 0
 655 943 668 959 676 981 c 0
 692 1029 717 1116 748 1243 c 0
EndSplineSet
Validated: 9
EndChar

StartChar: numbersign
Encoding: 35 35 3
Width: 1044
GlyphClass: 2
Flags: HW
HStem: 420 117<-9 67 112 125 808 861> 936 123<183 263 974 1053>
LayerCount: 2
Fore
SplineSet
282 416 m 1
 507 418 l 1
 546 418 l 1
 490 281 449 185 423 129 c 0
 412 107 407 88 407 70 c 0
 407 65 408 58 409 51 c 0
 412 36 419 28 431 25 c 1
 438 22 445 20 450 20 c 0
 462 20 477 25 493 33 c 0
 518 45 537 63 552 88 c 0
 577 144 621 255 685 420 c 1
 808 420 l 2
 831 420 849 426 861 438 c 0
 872 449 881 466 886 489 c 0
 889 507 887 520 882 528 c 0
 879 533 867 537 847 537 c 2
 732 537 l 1
 886 936 l 1
 974 936 l 2
 999 937 1018 944 1033 957 c 0
 1048 970 1058 987 1062 1006 c 0
 1062 1009 1063 1011 1064 1014 c 0
 1064 1024 1060 1032 1050 1042 c 0
 1039 1054 1021 1062 998 1063 c 2
 976 1063 l 1
 939 1063 l 1
 992 1201 1032 1297 1058 1350 c 0
 1068 1370 1072 1387 1072 1401 c 0
 1072 1406 1071 1411 1070 1415 c 0
 1065 1429 1052 1438 1033 1442 c 0
 1026 1443 1020 1444 1015 1444 c 0
 1003 1444 990 1441 978 1434 c 0
 958 1423 941 1402 927 1372 c 2
 802 1059 l 1
 529 1059 l 1
 658 1364 l 2
 666 1383 671 1399 671 1411 c 0
 671 1418 670 1425 667 1430 c 0
 662 1444 650 1452 632 1456 c 0
 627 1457 620 1458 615 1458 c 0
 604 1458 593 1455 579 1448 c 0
 560 1437 542 1416 527 1386 c 2
 392 1055 l 1
 376 1055 l 2
 327 1055 290 1054 265 1053 c 2
 263 1053 l 2
 236 1052 215 1044 199 1031 c 0
 183 1018 174 1002 171 983 c 0
 170 978 169 973 169 969 c 0
 169 959 172 951 177 944 c 0
 184 936 198 932 218 932 c 2
 226 932 l 1
 304 934 l 1
 343 934 l 1
 175 532 l 1
 153 531 132 530 112 529 c 0
 92 528 77 527 67 526 c 0
 40 525 18 518 3 505 c 0
 -12 492 -22 476 -26 457 c 0
 -27 452 -28 447 -28 444 c 0
 -28 437 -24 431 -19 426 c 0
 -11 418 5 414 30 414 c 2
 126 414 l 1
 62 268 20 175 1 137 c 0
 -11 112 -17 90 -17 70 c 0
 -17 54 -14 41 -9 33 c 0
 -6 28 -1 25 7 25 c 0
 12 22 18 20 22 20 c 0
 34 20 50 26 69 37 c 0
 96 53 116 73 130 96 c 0
 155 151 199 258 265 416 c 1
 282 416 l 1
753 936 m 1
 697 793 644 661 593 539 c 1
 577 539 l 2
 479 539 390 538 312 535 c 1
 480 936 l 1
 753 936 l 1
EndSplineSet
Validated: 9
EndChar

StartChar: dollar
Encoding: 36 36 4
Width: 1044
GlyphClass: 2
Flags: HW
HStem: -35 123<220 336>
VStem: 236 129<939 1143> 716 82<1520 1660> 780 141<371 630>
LayerCount: 2
Fore
SplineSet
188 -17 m 0xe0
 222 -29 259 -35 299 -35 c 2
 307 -35 l 1
 336 -35 l 1
 320 -111 307 -166 297 -199 c 0
 292 -217 290 -231 291 -242 c 0
 291 -256 294 -264 301 -268 c 0
 305 -269 310 -270 315 -270 c 1
 317 -270 l 2
 335 -270 353 -264 369 -251 c 0
 385 -238 398 -220 406 -197 c 0
 410 -168 421 -107 440 -16 c 1
 453 -12 l 2
 505 3 554 24 601 53 c 0
 648 82 691 116 731 156 c 0
 771 196 807 242 839 295 c 0
 871 348 893 405 907 465 c 0
 917 505 922 540 922 572 c 0
 922 604 917 636 908 667 c 0
 899 698 885 725 865 750 c 0
 845 775 817 797 780 817 c 0xd0
 746 836 704 850 655 858 c 2
 631 862 l 1
 675 1060 710 1220 737 1343 c 1
 756 1341 l 2
 787 1340 814 1336 837 1329 c 0
 860 1322 878 1315 893 1306 c 0
 908 1297 920 1291 930 1288 c 0
 942 1284 955 1282 967 1282 c 0
 972 1282 978 1282 985 1283 c 0
 992 1284 999 1287 1007 1293 c 0
 1015 1299 1019 1308 1022 1319 c 0
 1027 1333 1030 1344 1030 1352 c 0
 1030 1360 1029 1367 1028 1372 c 0
 1024 1384 1014 1394 999 1401 c 0
 977 1411 944 1422 899 1434 c 0
 854 1446 818 1453 791 1454 c 2
 764 1456 l 1
 793 1593 l 2
 796 1608 797 1621 798 1633 c 0
 799 1645 797 1654 792 1660 c 0
 787 1666 778 1669 764 1669 c 2
 760 1669 l 1
 742 1669 728 1661 716 1645 c 0
 704 1629 695 1605 688 1575 c 0
 677 1529 666 1484 655 1442 c 1
 641 1438 l 2
 586 1427 535 1408 489 1381 c 0
 443 1354 404 1323 371 1286 c 0
 338 1249 311 1209 291 1165 c 0
 269 1123 253 1078 242 1030 c 0
 238 1012 236 997 236 983 c 0
 236 938 246 896 266 858 c 0
 280 832 300 811 327 793 c 0
 354 775 385 764 422 760 c 0
 430 759 441 757 454 755 c 0
 467 753 485 751 508 748 c 1
 467 550 420 330 365 88 c 1
 348 88 l 1
 344 88 l 2
 293 88 252 102 221 131 c 0
 191 158 168 196 150 242 c 0
 143 257 137 267 132 272 c 0
 127 277 123 281 120 282 c 0
 117 283 113 283 110 283 c 0
 107 283 101 282 94 281 c 0
 87 280 76 275 61 268 c 0
 43 260 31 247 23 229 c 0
 18 218 14 207 14 194 c 0
 14 181 15 168 18 156 c 0
 32 107 60 64 104 27 c 0
 126 9 154 -5 188 -17 c 0xe0
393 958 m 0
 374 985 365 1017 365 1051 c 0
 365 1065 367 1078 371 1092 c 0
 382 1147 408 1194 449 1234 c 0
 490 1274 539 1303 596 1321 c 2
 633 1333 l 1
 592 1136 560 983 535 872 c 1
 512 879 l 2
 459 895 419 921 393 958 c 0
780 494 m 0
 780 469 777 445 772 420 c 0
 758 354 727 297 678 246 c 0
 629 195 572 156 506 127 c 2
 465 109 l 1
 481 180 501 272 526 385 c 0
 570 588 592 691 592 692 c 2
 598 721 l 1
 623 709 l 2
 661 693 692 673 717 650 c 0
 742 627 758 602 766 575 c 0
 776 545 780 519 780 494 c 0
EndSplineSet
Validated: 9
EndChar

StartChar: percent
Encoding: 37 37 5
Width: 1044
GlyphClass: 2
Flags: HW
HStem: -33 106<573 753> 377 100<623 788> 909 104<302 483> 1321 98<353 527>
VStem: 206 84<1064 1245> 477 85<121 306> 541 84<1081 1275> 809 72<148 324>
LayerCount: 2
Fore
SplineSet
253 944 m 0xfb
 276 922 305 910 340 909 c 2
 342 909 l 2
 413 909 470 929 513 969 c 0
 556 1009 587 1067 606 1145 c 0
 618 1190 625 1231 625 1266 c 0
 625 1307 618 1338 604 1360 c 0
 579 1398 540 1418 487 1419 c 0
 419 1419 361 1394 313 1343 c 0
 265 1292 233 1228 215 1149 c 0
 208 1122 205 1098 206 1079 c 0
 207 1060 208 1044 211 1030 c 0
 216 995 230 966 253 944 c 0xfb
2 25 m 0
 -17 -2 -27 -25 -27 -43 c 0
 -27 -50 -25 -55 -22 -60 c 0
 -19 -65 -13 -70 -6 -74 c 0
 1 -78 7 -80 15 -80 c 0
 23 -80 32 -77 43 -70 c 0
 58 -60 74 -43 92 -18 c 0
 178 104 339 335 575 676 c 0
 817 1017 972 1230 1040 1313 c 0
 1062 1340 1072 1362 1071 1378 c 0
 1071 1383 1070 1389 1068 1392 c 0
 1066 1395 1062 1398 1055 1401 c 0
 1045 1408 1036 1411 1026 1411 c 0
 1021 1411 1015 1410 1008 1409 c 0
 988 1405 968 1392 952 1372 c 0
 899 1289 805 1153 670 963 c 2
 270 393 l 2
 136 213 47 91 2 25 c 0
389 1014 m 2
 343 1018 313 1034 299 1063 c 0
 292 1077 289 1092 290 1110 c 0
 291 1128 294 1147 299 1167 c 0
 311 1212 329 1249 352 1276 c 0
 377 1306 407 1321 442 1321 c 0
 482 1321 510 1306 528 1276 c 0
 538 1260 542 1240 541 1217 c 0
 541 1198 537 1176 532 1153 c 0
 520 1112 502 1079 479 1053 c 0
 456 1027 427 1014 393 1014 c 2
 389 1014 l 2
524 2 m 0
 546 -20 575 -32 610 -33 c 2
 616 -33 l 2
 684 -33 740 -13 782 25 c 0
 826 66 859 125 881 203 c 1
 881 205 l 1
 895 251 901 292 901 326 c 0
 901 366 894 396 879 417 c 0
 864 438 845 453 825 463 c 0
 806 473 783 477 756 477 c 0
 689 477 631 452 583 401 c 0
 535 350 501 286 485 207 c 0
 480 181 477 158 477 139 c 0xfd
 477 120 478 103 481 88 c 0
 488 53 502 24 524 2 c 0
659 74 m 2
 614 77 585 92 571 121 c 0
 564 135 561 150 562 168 c 0
 563 186 565 205 569 225 c 0
 580 269 598 305 623 332 c 0
 648 361 677 376 711 377 c 0
 738 377 760 370 778 356 c 0
 800 338 810 311 809 274 c 0
 809 255 806 234 801 211 c 0
 790 171 773 139 750 113 c 0
 727 87 699 74 666 74 c 2
 659 74 l 2
EndSplineSet
Validated: 41
EndChar

StartChar: ampersand
Encoding: 38 38 6
Width: 1044
GlyphClass: 2
Flags: HW
HStem: -59 141<221 463> 1346 113<582 808>
VStem: 18 145<141 443> 383 131<941 1055 1178 1272> 725 137<-50 62>
LayerCount: 2
Fore
SplineSet
862 10 m 0
 867 29 870 46 870 62 c 0
 870 78 868 91 865 102 c 0
 862 113 853 143 839 191 c 0
 825 239 812 280 801 313 c 1
 836 357 874 399 915 441 c 0
 956 483 981 510 989 522 c 0
 1012 557 1025 588 1026 614 c 0
 1026 629 1022 640 1012 647 c 0
 1002 652 993 655 985 655 c 0
 980 655 974 654 969 651 c 0
 951 644 928 625 899 592 c 0
 894 585 886 574 876 559 c 0
 866 544 852 524 836 499 c 0
 820 474 795 437 764 391 c 1
 748 438 l 2
 738 464 715 519 680 603 c 0
 645 687 620 751 606 793 c 2
 600 813 l 1
 618 823 l 2
 648 837 674 850 697 863 c 0
 720 876 745 893 774 915 c 0
 803 937 828 960 848 985 c 0
 868 1010 888 1040 906 1075 c 0
 924 1110 938 1149 948 1190 c 0
 958 1235 959 1275 951 1310 c 0
 943 1345 929 1373 909 1393 c 0
 889 1413 864 1429 835 1441 c 0
 806 1453 773 1458 739 1458 c 0
 697 1458 658 1453 622 1441 c 0
 586 1429 555 1415 530 1398 c 0
 505 1381 484 1360 465 1337 c 0
 428 1293 405 1248 395 1202 c 0
 387 1165 383 1129 383 1092 c 0
 383 1081 385 1067 389 1050 c 0
 393 1033 397 1018 401 1006 c 0
 405 995 424 943 457 852 c 1
 434 842 l 2
 222 752 88 582 31 332 c 0
 23 298 18 264 18 231 c 0
 18 198 23 166 31 135 c 0
 47 76 78 29 124 -6 c 0
 170 -41 225 -59 291 -59 c 0
 311 -59 332 -57 354 -53 c 0
 376 -49 396 -44 412 -39 c 0
 428 -34 446 -25 465 -13 c 0
 484 -1 500 8 512 16 c 0
 528 27 556 52 594 90 c 0
 602 98 614 111 630 128 c 0
 646 145 657 157 662 162 c 2
 694 199 l 1
 705 150 l 2
 709 134 713 109 717 77 c 0
 721 45 724 24 725 16 c 0
 735 -15 749 -37 768 -49 c 0
 776 -54 785 -57 795 -57 c 0
 803 -57 811 -54 821 -49 c 0
 837 -42 851 -23 862 10 c 0
696 1346 m 0
 744 1346 782 1329 811 1298 c 0
 830 1276 840 1248 840 1214 c 0
 840 1198 836 1180 831 1161 c 0
 823 1126 812 1095 797 1068 c 0
 782 1041 763 1019 740 1001 c 0
 717 983 695 969 672 958 c 0
 649 947 621 938 590 928 c 2
 569 922 l 1
 559 938 l 2
 540 971 527 1010 520 1055 c 0
 516 1077 514 1098 514 1118 c 0
 514 1138 516 1159 520 1178 c 0
 531 1226 548 1263 573 1292 c 0
 603 1327 644 1346 696 1346 c 0
190 168 m 0
 172 199 164 237 164 279 c 0
 164 305 168 332 176 362 c 0
 186 403 197 441 211 475 c 0
 225 509 243 544 266 577 c 0
 289 610 318 641 352 669 c 0
 386 697 425 720 469 739 c 2
 494 750 l 1
 504 725 l 2
 516 691 537 638 566 567 c 0
 595 496 615 445 625 412 c 0
 633 381 643 333 655 272 c 1
 645 262 l 2
 642 259 635 252 623 238 c 0
 611 224 601 214 596 208 c 0
 591 202 580 192 566 178 c 0
 552 164 540 154 530 148 c 0
 520 142 509 134 493 124 c 0
 477 114 461 105 446 100 c 0
 406 88 371 82 340 82 c 0
 272 82 221 111 190 168 c 0
EndSplineSet
Validated: 41
EndChar

StartChar: quotesingle
Encoding: 39 39 7
Width: 1044
GlyphClass: 2
Flags: HW
HStem: 938 618
LayerCount: 2
Fore
SplineSet
605 1556 m 2
 603 1556 l 1
 591 1556 l 2
 576 1556 560 1553 542 1546 c 0
 534 1543 526 1538 518 1529 c 0
 510 1520 506 1509 505 1497 c 0
 491 1425 473 1342 453 1248 c 0
 433 1154 412 1072 392 1001 c 0
 389 991 388 984 388 976 c 0
 388 968 390 962 394 958 c 0
 405 947 421 941 441 938 c 1
 445 938 l 2
 459 938 474 943 490 953 c 0
 506 963 519 981 527 1004 c 0
 543 1052 566 1132 594 1245 c 0
 622 1358 642 1442 654 1495 c 0
 657 1509 657 1520 655 1528 c 0
 653 1536 651 1541 648 1544 c 0
 636 1552 621 1556 605 1556 c 2
EndSplineSet
Validated: 9
EndChar

StartChar: parenleft
Encoding: 40 40 8
Width: 1044
GlyphClass: 2
Flags: HW
HStem: -244 123<382 495> 1526 117<726 883>
VStem: 130 145<32 647>
LayerCount: 2
Fore
SplineSet
470 -121 m 0
 432 -121 397 -100 367 -59 c 0
 340 -22 319 25 304 84 c 0
 285 155 275 239 275 336 c 0
 275 403 281 474 293 548 c 0
 305 622 327 722 362 847 c 0
 397 972 432 1071 466 1143 c 0
 512 1247 564 1333 623 1403 c 0
 654 1440 689 1469 725 1492 c 0
 761 1515 798 1526 836 1526 c 0
 854 1526 869 1530 883 1540 c 0
 897 1550 907 1566 912 1589 c 0
 915 1599 915 1607 914 1614 c 0
 914 1625 911 1632 906 1636 c 0
 901 1640 891 1642 877 1642 c 0
 837 1642 795 1632 749 1610 c 0
 703 1588 659 1559 617 1524 c 0
 575 1489 535 1449 498 1406 c 0
 461 1363 430 1320 404 1276 c 0
 345 1175 291 1045 241 887 c 0
 191 729 160 600 146 500 c 0
 134 417 129 338 130 266 c 0
 130 210 133 157 140 106 c 0
 156 -6 189 -93 240 -156 c 0
 289 -216 353 -245 429 -244 c 0
 441 -244 455 -238 471 -226 c 0
 487 -214 496 -200 500 -184 c 0
 503 -166 505 -154 505 -146 c 0
 505 -138 503 -134 500 -131 c 0
 496 -124 486 -121 470 -121 c 0
EndSplineSet
Validated: 41
EndChar

StartChar: parenright
Encoding: 41 41 9
Width: 1044
GlyphClass: 2
Flags: HW
HStem: -244 123<161 312> 1526 117<546 686>
VStem: 781 133<784 1169 1277 1409>
LayerCount: 2
Fore
SplineSet
914 1169 m 0
 914 1211 912 1250 908 1284 c 0
 903 1328 891 1371 874 1413 c 0
 857 1455 837 1494 812 1529 c 0
 787 1564 757 1592 722 1612 c 0
 687 1632 651 1642 613 1642 c 0
 599 1642 586 1638 572 1630 c 0
 567 1627 560 1622 554 1613 c 0
 548 1604 544 1594 541 1583 c 0
 538 1572 537 1563 537 1555 c 0
 537 1547 539 1542 543 1538 c 0
 551 1530 563 1526 578 1526 c 0
 616 1526 649 1514 677 1490 c 0
 705 1466 727 1435 741 1397 c 0
 755 1359 766 1319 772 1277 c 0
 778 1235 781 1192 781 1147 c 0
 781 1069 770 967 747 839 c 0
 724 711 701 608 676 530 c 0
 650 447 618 366 578 285 c 0
 538 204 497 135 455 77 c 0
 413 19 370 -28 328 -63 c 0
 283 -101 242 -121 207 -121 c 0
 188 -121 172 -126 160 -136 c 0
 148 -146 139 -167 132 -197 c 0
 131 -201 131 -205 132 -209 c 0
 132 -217 134 -224 138 -229 c 0
 146 -239 155 -244 166 -244 c 0
 245 -244 326 -213 407 -150 c 0
 488 -87 563 2 632 116 c 0
 701 230 759 362 807 512 c 0
 840 610 868 739 891 897 c 0
 906 999 914 1090 914 1169 c 0
EndSplineSet
Validated: 9
EndChar

StartChar: asterisk
Encoding: 42 42 10
Width: 1044
GlyphClass: 2
Flags: HW
HStem: 625 164<84 152 158 400> 641 145<376 400 626 962> 653 106<674 944>
VStem: 560 135<271 512>
LayerCount: 2
Fore
SplineSet
613 264 m 0x90
 631 264 646 267 659 275 c 0
 672 283 682 296 689 315 c 0
 693 326 695 337 695 349 c 0
 695 361 694 372 691 383 c 2
 607 651 l 1
 659 652 697 653 723 653 c 0x30
 808 653 867 650 900 643 c 0
 903 642 906 641 910 641 c 0
 914 641 919 642 924 645 c 0
 940 653 955 671 969 698 c 0
 977 716 981 730 980 741 c 0
 979 752 975 763 967 774 c 0
 962 781 955 785 945 786 c 0x50
 940 786 932 785 924 782 c 0
 871 767 787 760 674 760 c 2
 625 760 l 1x30
 654 799 l 2
 726 895 790 974 846 1038 c 0
 866 1061 876 1086 875 1112 c 0
 875 1119 874 1125 873 1130 c 0
 870 1140 866 1146 861 1149 c 2
 859 1149 l 2
 852 1156 843 1159 832 1159 c 0
 821 1159 808 1155 793 1146 c 0
 778 1137 765 1124 754 1106 c 0
 713 1043 656 965 584 872 c 2
 551 831 l 1
 511 988 489 1083 482 1116 c 0
 479 1131 472 1143 461 1151 c 0
 450 1159 440 1163 429 1163 c 0
 417 1163 404 1159 392 1151 c 1
 376 1144 363 1129 355 1106 c 0
 351 1094 349 1081 349 1068 c 0
 349 1055 351 1042 355 1030 c 0
 378 977 406 901 437 801 c 2
 449 766 l 1
 312 776 215 783 158 788 c 2
 152 788 l 2
 142 788 133 786 123 782 c 0
 105 774 90 756 76 729 c 0
 71 718 68 708 68 698 c 2
 64 678 l 2
 64 666 67 655 74 645 c 0
 78 638 84 633 91 630 c 0
 98 627 106 625 117 625 c 0
 166 625 244 629 349 637 c 2
 404 639 l 1
 191 373 l 2
 179 355 171 340 170 326 c 2
 170 309 l 2
 170 302 172 296 175 288 c 0
 178 280 182 274 187 270 c 0
 192 266 199 263 208 261 c 0
 217 259 225 258 230 258 c 2
 242 258 l 2
 253 259 264 263 275 268 c 0
 286 275 295 285 302 297 c 0
 325 338 382 422 472 549 c 2
 502 594 l 1
 517 541 l 2
 543 436 557 355 560 299 c 0
 560 294 561 289 564 285 c 0
 567 281 571 277 576 274 c 0
 587 267 599 264 613 264 c 0x90
EndSplineSet
Validated: 41
EndChar

StartChar: plus
Encoding: 43 43 11
Width: 1044
GlyphClass: 2
Flags: HW
HStem: 758 121<187 262 797 857>
LayerCount: 2
Fore
SplineSet
229 756 m 2
 422 758 l 1
 453 758 l 1
 395 508 l 2
 392 498 392 489 393 481 c 0
 393 469 396 461 402 457 c 0
 408 453 418 451 432 451 c 0
 448 452 463 457 475 465 c 0
 486 475 495 492 502 518 c 0
 505 529 511 559 522 610 c 0
 533 661 544 711 555 760 c 1
 611 761 658 762 698 762 c 0
 738 762 768 761 788 760 c 0
 792 760 796 759 797 758 c 0
 816 758 830 764 840 776 c 0
 847 784 852 793 856 801 c 0
 863 816 866 831 866 846 c 0
 866 856 864 862 861 867 c 0
 858 872 845 874 825 874 c 2
 584 874 l 1
 606 967 627 1054 649 1133 c 0
 653 1145 655 1154 655 1162 c 0
 655 1170 654 1175 651 1178 c 0
 643 1185 631 1188 616 1188 c 2
 610 1188 l 2
 585 1188 567 1181 553 1167 c 0
 542 1156 535 1140 532 1120 c 0
 517 1041 500 961 481 879 c 1
 461 879 l 2
 421 879 357 880 268 883 c 1
 262 883 l 2
 240 883 223 876 209 864 c 0
 194 850 184 833 180 813 c 0
 179 806 178 800 178 795 c 0
 178 785 181 777 186 770 c 0
 191 760 206 756 229 756 c 2
EndSplineSet
Validated: 9
EndChar

StartChar: comma
Encoding: 44 44 12
Width: 1044
GlyphClass: 2
Flags: HW
LayerCount: 2
Fore
SplineSet
283 -379 m 2
 283 -387 285 -394 289 -401 c 0
 293 -406 299 -411 306 -414 c 0
 311 -417 317 -418 324 -418 c 0
 336 -418 351 -415 367 -410 c 0
 397 -399 424 -379 449 -352 c 0
 478 -321 529 -236 603 -99 c 0
 677 38 727 140 754 207 c 0
 758 222 760 233 761 239 c 0
 762 245 761 251 758 256 c 0
 753 268 745 277 734 281 c 0
 723 284 711 285 699 285 c 2
 697 285 l 2
 686 285 674 280 661 272 c 0
 648 264 638 253 633 238 c 0
 610 182 559 84 479 -56 c 0
 399 -196 341 -288 304 -330 c 0
 290 -346 283 -361 283 -373 c 2
 283 -379 l 2
EndSplineSet
Validated: 9
EndChar

StartChar: hyphen
Encoding: 45 45 13
Width: 1044
GlyphClass: 2
Flags: HW
HStem: 522 127<272 327 524 771> 541 115<290 771>
LayerCount: 2
Fore
SplineSet
327 649 m 0x80
 304 649 286 643 272 631 c 0
 261 620 254 603 251 580 c 0
 248 570 247 561 247 553 c 0
 247 541 250 532 257 528 c 0
 264 524 274 522 288 522 c 0x80
 332 522 411 525 524 531 c 0
 637 537 702 541 718 541 c 0
 741 541 759 547 771 559 c 0
 782 570 791 587 796 610 c 0
 799 626 797 639 792 647 c 0
 788 652 776 655 757 655 c 0x40
 743 655 686 654 586 652 c 0
 486 650 399 649 327 649 c 0x80
EndSplineSet
Validated: 9
EndChar

StartChar: period
Encoding: 46 46 14
Width: 1044
GlyphClass: 2
Flags: HW
HStem: -4 266<454 594>
VStem: 388 268<59 198>
LayerCount: 2
Fore
SplineSet
656 174 m 0
 656 196 651 215 640 231 c 0
 625 251 601 262 570 262 c 0
 532 262 494 248 456 219 c 0
 422 193 400 162 392 125 c 0
 389 113 388 100 388 88 c 0
 388 65 393 45 404 27 c 0
 418 7 440 -4 470 -4 c 2
 486 -4 l 2
 528 0 565 15 595 42 c 0
 625 69 644 101 652 139 c 0
 655 151 656 163 656 174 c 0
EndSplineSet
Validated: 9
EndChar

StartChar: slash
Encoding: 47 47 15
Width: 1044
GlyphClass: 2
Flags: HW
LayerCount: 2
Fore
SplineSet
-103 -63 m 0
 -103 -78 -100 -89 -95 -94 c 2
 -93 -94 l 2
 -88 -99 -81 -102 -72 -101 c 0
 -63 -100 -52 -97 -38 -92 c 0
 -7 -78 23 -54 50 -20 c 0
 66 2 109 63 178 163 c 0
 247 263 297 335 327 379 c 0
 375 446 506 615 721 887 c 0
 936 1159 1068 1329 1117 1399 c 0
 1136 1429 1147 1454 1148 1473 c 0
 1148 1489 1141 1501 1129 1509 c 0
 1117 1514 1105 1518 1093 1518 c 0
 1081 1518 1067 1513 1051 1504 c 0
 1035 1495 1021 1481 1007 1462 c 0
 869 1263 740 1086 620 930 c 0
 430 675 204 383 -58 55 c 0
 -81 25 -96 -7 -101 -41 c 0
 -102 -49 -103 -56 -103 -63 c 0
EndSplineSet
Validated: 9
EndChar

StartChar: zero
Encoding: 48 48 16
Width: 1044
GlyphClass: 2
Flags: HW
HStem: -25 123<260 539> 1329 117<515 781>
LayerCount: 2
Fore
SplineSet
69 432 m 0
 55 377 48 327 48 281 c 0
 48 266 49 252 50 238 c 0
 55 181 70 133 94 95 c 0
 118 57 151 28 193 7 c 0
 235 -14 281 -25 333 -25 c 0
 367 -25 396 -24 421 -22 c 0
 446 -20 471 -15 496 -10 c 0
 521 -5 543 3 563 13 c 0
 583 23 604 37 626 54 c 0
 648 71 667 92 685 117 c 0
 725 169 765 239 806 326 c 0
 828 371 852 437 877 524 c 0
 902 611 924 698 943 785 c 0
 962 872 977 949 988 1016 c 0
 993 1056 996 1091 996 1123 c 0
 996 1155 994 1184 990 1210 c 0
 980 1265 963 1309 938 1342 c 0
 913 1375 882 1401 845 1419 c 0
 808 1437 766 1446 720 1446 c 0
 630 1446 549 1424 478 1381 c 0
 407 1338 349 1275 304 1192 c 0
 285 1157 266 1115 246 1069 c 0
 226 1023 210 979 197 939 c 0
 184 899 170 851 155 795 c 0
 140 739 129 695 121 663 c 0
 113 631 103 588 91 534 c 0
 79 480 72 446 69 432 c 0
484 1262 m 0
 532 1307 590 1329 658 1329 c 0
 698 1329 734 1318 765 1296 c 0
 798 1274 823 1244 841 1204 c 2
 847 1190 l 1
 837 1180 l 1
 651 915 455 657 247 406 c 1
 175 328 l 1
 204 430 l 2
 205 434 207 442 208 452 c 0
 209 462 211 470 212 475 c 2
 241 618 l 2
 246 645 256 692 270 757 c 0
 284 822 298 878 311 924 c 0
 324 970 338 1012 353 1047 c 0
 393 1145 436 1217 484 1262 c 0
459 108 m 0
 432 102 403 98 370 98 c 0
 330 98 296 108 269 127 c 0
 234 152 211 191 200 246 c 2
 198 260 l 1
 208 268 l 1
 421 470 622 721 812 1020 c 1
 873 1110 l 1
 857 1001 l 2
 843 912 825 821 800 725 c 0
 775 629 752 545 730 471 c 0
 710 397 695 351 687 332 c 0
 643 239 595 176 540 143 c 0
 513 125 486 114 459 108 c 0
EndSplineSet
Validated: 9
EndChar

StartChar: one
Encoding: 49 49 17
Width: 1044
GlyphClass: 2
Flags: HW
HStem: 6 137<192 491 599 909>
LayerCount: 2
Fore
SplineSet
939 96 m 0
 939 106 936 114 931 119 c 0
 930 122 926 124 919 127 c 0
 912 130 902 131 889 131 c 0
 876 131 846 132 800 133 c 0
 718 136 651 137 599 137 c 1
 618 253 633 337 644 389 c 0
 662 480 685 594 714 731 c 0
 721 764 751 881 806 1083 c 0
 862 1295 890 1402 890 1403 c 2
 890 1405 l 2
 890 1415 882 1427 867 1442 c 0
 849 1461 831 1470 812 1470 c 0
 801 1470 786 1465 767 1455 c 0
 748 1445 728 1432 706 1417 c 2
 611 1337 l 2
 569 1302 528 1268 490 1237 c 0
 468 1219 452 1203 442 1189 c 0
 432 1175 426 1159 423 1141 c 0
 422 1137 421 1132 421 1128 c 0
 421 1116 425 1104 435 1090 c 0
 443 1079 452 1072 460 1071 c 0
 464 1071 469 1072 474 1075 c 0
 514 1093 582 1143 679 1225 c 2
 736 1270 l 1
 696 1125 662 986 632 854 c 0
 624 817 611 762 594 688 c 0
 577 614 565 564 560 537 c 2
 531 403 l 2
 519 343 512 309 511 299 c 0
 506 264 496 211 482 143 c 1
 344 146 246 147 189 147 c 0
 166 147 148 141 134 127 c 0
 120 113 112 95 108 72 c 0
 107 64 105 56 105 48 c 0
 105 40 108 34 112 27 c 0
 116 19 127 14 146 14 c 0
 192 14 425 11 841 6 c 0
 872 6 895 14 909 28 c 0
 923 42 933 60 937 82 c 0
 938 89 939 93 939 96 c 0
EndSplineSet
Validated: 9
EndChar

StartChar: two
Encoding: 50 50 18
Width: 1044
GlyphClass: 2
Flags: HW
HStem: -10 121<165 194 372 781> 0 133<413 793> 1331 123<545 835>
VStem: 884 141<992 1283>
LayerCount: 2
Fore
SplineSet
372 -10 m 0xb0
 541 -2 665 1 746 0 c 0
 754 0 763 5 771 16 c 0
 783 28 793 43 800 59 c 0
 807 75 811 91 812 106 c 2
 812 115 l 2
 812 119 811 122 810 123 c 0
 806 126 803 128 800 131 c 0
 796 132 789 133 781 133 c 0x70
 773 133 765 133 756 132 c 0
 747 131 741 131 738 131 c 0
 679 126 639 122 616 120 c 0
 593 118 567 116 535 114 c 0
 503 112 462 111 411 111 c 0
 343 111 261 114 165 119 c 1
 175 150 l 2
 191 207 214 260 241 309 c 0
 268 360 304 409 349 456 c 0
 394 503 448 542 509 575 c 0
 564 605 607 631 640 651 c 0
 745 711 822 766 871 815 c 0
 937 881 983 967 1009 1075 c 0
 1020 1123 1025 1166 1025 1204 c 0
 1025 1270 1009 1322 978 1360 c 0
 927 1423 840 1454 714 1454 c 0
 676 1454 636 1448 595 1434 c 0
 554 1420 516 1402 482 1379 c 0
 448 1356 417 1334 390 1309 c 0
 363 1284 342 1260 327 1235 c 0
 308 1197 297 1171 296 1159 c 0
 296 1145 300 1135 310 1128 c 0
 321 1123 329 1119 334 1117 c 0
 339 1115 342 1114 345 1114 c 2
 353 1114 l 2
 365 1115 385 1132 411 1165 c 0
 444 1207 485 1246 536 1280 c 0
 587 1314 636 1331 685 1331 c 0
 757 1331 812 1313 847 1276 c 0
 872 1250 884 1214 884 1169 c 0
 884 1147 881 1124 876 1098 c 0
 865 1053 852 1016 837 987 c 0
 810 934 766 884 706 838 c 0
 662 805 569 747 427 664 c 0
 367 629 310 581 255 524 c 0
 196 465 149 405 113 343 c 0
 77 281 52 222 38 166 c 0
 27 117 20 77 19 47 c 0
 19 25 23 10 30 2 c 0
 34 -3 40 -7 48 -8 c 0
 82 -12 131 -14 194 -14 c 0
 257 -14 316 -13 372 -10 c 0xb0
EndSplineSet
Validated: 41
EndChar

StartChar: three
Encoding: 51 51 19
Width: 1044
GlyphClass: 2
Flags: HW
HStem: -25 123<284 562> 676 156<392 566> 1331 123<508 798>
VStem: 725 152<316 592> 852 141<1016 1279>
LayerCount: 2
Fore
SplineSet
862 412 m 0xf0
 872 456 877 495 877 530 c 0xf0
 877 579 866 619 844 649 c 0
 825 675 801 697 772 713 c 0
 743 729 708 743 666 754 c 2
 567 780 l 1
 666 803 l 2
 692 808 716 815 739 825 c 0
 764 835 789 847 815 863 c 0
 841 879 865 898 885 918 c 0
 905 938 924 963 940 993 c 0
 956 1023 969 1058 977 1096 c 0
 988 1140 993 1179 993 1214 c 0
 993 1277 976 1327 942 1364 c 0
 889 1424 796 1454 664 1454 c 0
 626 1454 589 1449 554 1438 c 0
 519 1427 488 1412 461 1393 c 0
 408 1356 365 1312 334 1260 c 0
 316 1230 306 1204 305 1182 c 0
 305 1175 306 1169 308 1164 c 0
 310 1159 314 1155 319 1151 c 0
 329 1144 338 1141 348 1141 c 0
 352 1141 356 1142 360 1143 c 0
 375 1147 394 1162 416 1188 c 0
 427 1203 434 1214 439 1219 c 0
 444 1224 452 1233 464 1246 c 0
 476 1259 485 1269 492 1274 c 0
 499 1279 508 1286 520 1295 c 0
 532 1304 544 1311 555 1315 c 0
 584 1326 610 1331 635 1331 c 0
 710 1331 767 1314 807 1280 c 0
 837 1254 852 1220 852 1178 c 0xe8
 852 1160 849 1140 844 1118 c 0
 825 1025 779 954 705 905 c 0
 637 856 553 831 453 831 c 0
 435 831 420 825 408 811 c 0
 396 797 386 779 381 754 c 0
 380 747 379 740 379 735 c 0
 379 721 382 709 389 698 c 0
 393 690 398 684 403 681 c 0
 408 678 415 676 422 676 c 0
 550 676 637 648 682 592 c 0
 712 555 726 509 725 453 c 0
 725 427 722 398 717 367 c 0
 701 288 663 223 605 173 c 0
 547 123 482 98 408 98 c 0
 357 98 313 116 276 150 c 0
 236 185 207 225 188 270 c 0
 178 292 168 305 154 309 c 0
 150 310 144 311 139 311 c 0
 128 311 114 307 98 299 c 0
 82 291 69 276 59 256 c 0
 54 244 51 232 51 220 c 0
 51 208 52 197 55 186 c 0
 60 163 72 140 90 115 c 0
 108 90 130 67 157 46 c 0
 184 25 215 8 252 -4 c 0
 289 -18 327 -25 365 -25 c 0
 489 -25 594 14 680 92 c 0
 770 171 831 278 862 412 c 0xf0
EndSplineSet
Validated: 41
EndChar

StartChar: four
Encoding: 52 52 20
Width: 1044
GlyphClass: 2
Flags: HW
HStem: 483 113<255 543 784 903>
VStem: 559 129<-8 250> 559 102<-22 219>
LayerCount: 2
Fore
SplineSet
573 -2 m 0xc0
 585 -17 598 -24 612 -23 c 0
 630 -23 647 -11 662 14 c 0xa0
 678 41 687 75 688 113 c 0
 689 142 714 263 760 479 c 1
 795 476 825 475 849 475 c 0
 873 475 891 482 903 496 c 0
 914 507 923 524 928 547 c 0
 931 563 930 576 926 584 c 0
 922 589 909 593 889 594 c 0
 862 594 826 595 784 596 c 1
 858 938 l 2
 873 1006 890 1090 908 1189 c 0
 926 1288 937 1361 940 1409 c 0
 940 1412 941 1414 942 1415 c 0
 942 1431 938 1443 928 1450 c 0
 917 1457 904 1460 889 1460 c 2
 877 1460 l 1
 874 1460 l 2
 859 1460 841 1455 821 1443 c 0
 801 1431 780 1414 760 1391 c 0
 711 1332 634 1239 531 1111 c 0
 428 983 341 878 270 793 c 0
 195 707 147 645 125 608 c 0
 117 593 111 578 108 562 c 0
 105 546 102 533 102 522 c 0
 102 504 106 488 111 473 c 0
 115 466 121 461 129 457 c 0
 134 454 140 453 147 454 c 0
 154 455 162 456 170 457 c 0
 253 475 378 483 543 483 c 2
 649 483 l 1
 608 274 l 2
 585 159 569 81 559 39 c 1
 559 35 l 2
 559 23 563 10 573 -2 c 0xc0
815 1311 m 1
 801 1229 l 2
 775 1077 733 866 674 596 c 1
 621 597 576 598 539 598 c 0
 448 598 369 596 303 592 c 2
 252 588 l 1
 281 631 l 2
 375 778 534 984 758 1249 c 1
 815 1311 l 1
EndSplineSet
Validated: 9
EndChar

StartChar: five
Encoding: 53 53 21
Width: 1044
GlyphClass: 2
Flags: HW
HStem: -12 123<213 500> 886 132<470 713> 1296 129<594 1040> 1309 125<377 973>
VStem: 763 145<511 835>
LayerCount: 2
Fore
SplineSet
892 612 m 0xd8
 903 658 908 703 908 745 c 0
 908 808 896 861 873 905 c 0
 855 940 830 968 794 987 c 0
 761 1007 721 1018 673 1018 c 0
 605 1018 540 1005 481 979 c 0
 422 953 373 921 333 881 c 2
 282 825 l 1
 302 930 316 998 322 1028 c 0
 328 1058 338 1105 354 1171 c 0
 370 1237 381 1283 388 1309 c 1xd8
 464 1314 532 1317 591 1317 c 0
 650 1317 695 1316 728 1313 c 0
 761 1310 799 1307 841 1303 c 0
 885 1299 912 1296 922 1296 c 0
 932 1296 942 1295 952 1294 c 0
 962 1293 970 1292 973 1292 c 0
 976 1292 981 1292 988 1293 c 0
 995 1294 1001 1295 1005 1296 c 0
 1009 1297 1013 1300 1018 1303 c 0
 1023 1306 1026 1309 1029 1314 c 0
 1032 1319 1034 1324 1037 1331 c 0
 1041 1345 1045 1360 1046 1376 c 2
 1046 1384 l 2
 1046 1396 1043 1407 1039 1417 c 0
 1038 1420 1036 1422 1034 1423 c 0
 1032 1424 1030 1425 1027 1425 c 0xe8
 936 1425 807 1427 642 1430 c 0
 482 1433 381 1434 339 1434 c 0
 328 1434 317 1428 305 1418 c 0
 293 1408 284 1394 276 1378 c 0
 268 1362 264 1343 263 1323 c 0
 263 1318 262 1312 261 1307 c 0
 261 1295 263 1284 267 1276 c 2
 269 1268 l 1
 264 1242 255 1204 241 1153 c 0
 226 1102 212 1056 200 1012 c 0
 188 968 177 926 169 885 c 0
 161 844 157 810 157 784 c 0
 157 746 164 724 179 717 c 0
 189 713 198 710 208 709 c 0
 211 709 213 710 216 711 c 0
 245 714 270 724 292 743 c 0
 323 770 341 787 346 792 c 0
 351 797 361 804 375 815 c 0
 389 826 401 834 409 838 c 0
 442 856 468 867 488 872 c 0
 523 880 558 885 590 886 c 0
 622 887 650 880 675 868 c 0
 706 853 728 830 742 797 c 0
 756 766 763 728 763 686 c 0
 763 653 759 618 751 578 c 0
 721 437 669 325 597 240 c 0
 523 154 440 111 347 111 c 0
 303 111 264 121 230 143 c 0
 186 169 154 211 132 268 c 0
 125 283 119 295 114 303 c 0
 111 307 107 309 103 310 c 0
 99 311 96 311 93 311 c 0
 85 311 69 307 46 297 c 0
 27 287 13 274 5 258 c 0
 1 247 -1 235 -1 222 c 0
 -1 209 0 196 3 182 c 0
 10 159 20 137 34 115 c 0
 48 93 66 72 91 53 c 0
 116 34 149 18 191 6 c 0
 232 -6 278 -12 327 -12 c 0
 390 -12 450 2 507 29 c 0
 564 56 618 95 666 147 c 0
 714 199 758 265 796 344 c 0
 837 423 869 512 892 612 c 0xd8
EndSplineSet
Validated: 41
EndChar

StartChar: six
Encoding: 54 54 22
Width: 1044
GlyphClass: 2
Flags: HW
HStem: -20 123<306 555> 829 131<469 733>
VStem: 88 119<214 628> 791 145<437 771>
LayerCount: 2
Fore
SplineSet
911 508 m 0
 927 580 936 643 936 698 c 0
 936 768 923 822 897 862 c 0
 875 896 846 921 808 937 c 0
 770 953 726 961 674 961 c 0
 608 961 546 949 488 925 c 0
 430 901 380 865 336 817 c 2
 258 741 l 1
 295 844 l 2
 313 893 340 949 375 1012 c 0
 409 1075 442 1124 475 1161 c 0
 539 1231 599 1279 655 1305 c 0
 682 1317 707 1326 727 1333 c 0
 749 1340 775 1347 806 1354 c 0
 837 1361 859 1365 874 1368 c 0
 892 1373 910 1385 928 1401 c 0
 946 1417 955 1431 956 1442 c 2
 956 1451 l 2
 956 1454 955 1458 953 1463 c 0
 951 1468 948 1472 944 1475 c 0
 933 1482 918 1485 899 1485 c 2
 885 1485 l 2
 810 1478 741 1464 680 1442 c 0
 623 1420 567 1387 513 1343 c 0
 459 1299 411 1247 367 1184 c 0
 321 1121 275 1043 233 952 c 0
 191 861 156 757 129 641 c 0
 103 533 89 436 88 350 c 0
 88 274 99 208 120 153 c 0
 141 98 175 55 222 25 c 0
 269 -5 327 -20 395 -20 c 0
 448 -20 502 -7 555 20 c 0
 608 47 656 85 698 131 c 0
 746 177 789 234 828 300 c 0
 867 366 895 436 911 508 c 0
414 774 m 0
 473 811 532 829 592 829 c 0
 630 829 662 824 688 813 c 0
 715 802 740 783 760 756 c 0
 780 727 791 687 791 635 c 0
 791 590 784 536 770 475 c 0
 756 416 730 358 692 301 c 0
 658 244 617 197 571 159 c 0
 525 121 478 102 432 102 c 2
 428 102 l 2
 395 102 365 110 338 125 c 0
 308 141 284 162 266 189 c 0
 248 216 235 246 225 279 c 0
 213 320 207 361 207 403 c 0
 207 428 209 452 213 475 c 0
 218 513 230 565 246 629 c 1
 250 633 l 2
 299 690 354 737 414 774 c 0
EndSplineSet
Validated: 9
EndChar

StartChar: seven
Encoding: 55 55 23
Width: 1044
GlyphClass: 2
Flags: HW
HStem: 1298 139<258 620>
LayerCount: 2
Fore
SplineSet
1015 1292 m 0
 1033 1319 1043 1343 1046 1362 c 0
 1047 1367 1048 1373 1048 1379 c 0
 1048 1385 1046 1392 1043 1397 c 0
 1033 1415 1018 1423 998 1423 c 0
 993 1423 958 1424 892 1427 c 0
 757 1434 666 1438 620 1438 c 0
 477 1438 372 1431 308 1417 c 0
 282 1412 265 1403 255 1391 c 0
 244 1379 236 1364 232 1348 c 0
 229 1323 232 1304 237 1290 c 0
 240 1285 244 1281 249 1278 c 0
 252 1277 255 1276 258 1276 c 0
 261 1276 265 1277 269 1278 c 0
 309 1289 387 1295 503 1298 c 0
 619 1301 728 1301 830 1298 c 2
 871 1296 l 1
 853 1262 l 2
 827 1213 786 1148 730 1069 c 0
 675 990 617 909 554 826 c 0
 491 743 411 633 314 494 c 0
 213 355 114 215 17 76 c 0
 5 50 -2 30 -3 18 c 0
 -3 6 -1 -3 4 -9 c 0
 9 -15 16 -20 24 -23 c 0
 27 -24 30 -24 34 -23 c 0
 48 -23 63 -17 81 -6 c 0
 106 9 129 34 151 68 c 0
 248 220 344 367 441 510 c 0
 538 653 619 768 683 855 c 0
 747 942 812 1026 876 1108 c 0
 942 1190 988 1251 1015 1292 c 0
EndSplineSet
Validated: 41
EndChar

StartChar: eight
Encoding: 56 56 24
Width: 1044
GlyphClass: 2
Flags: HW
HStem: -33 125<275 582> 1348 98<536 786>
VStem: 53 119<193 476> 272 123<956 1194> 784 137<320 424 526 604> 864 127<1012 1270>
LayerCount: 2
Fore
SplineSet
922 500 m 0xf8
 922 522 918 545 913 571 c 0
 908 597 899 622 885 646 c 0
 871 670 850 695 823 721 c 0
 796 747 763 771 725 791 c 2
 688 811 l 1
 780 872 l 2
 828 903 861 926 877 940 c 0
 888 950 899 961 912 973 c 0
 925 985 936 997 944 1009 c 0
 952 1021 960 1034 967 1049 c 0
 974 1064 978 1078 981 1092 c 0
 988 1123 991 1153 991 1182 c 0xf4
 991 1219 988 1251 981 1278 c 0
 976 1298 965 1319 951 1340 c 0
 937 1361 919 1380 899 1394 c 0
 879 1408 850 1421 814 1431 c 0
 778 1441 738 1446 696 1446 c 0
 655 1446 617 1441 581 1431 c 0
 545 1421 513 1408 487 1392 c 0
 461 1376 438 1357 415 1335 c 0
 392 1313 373 1292 359 1270 c 0
 345 1248 333 1225 321 1201 c 0
 309 1177 300 1157 295 1139 c 0
 288 1121 283 1103 279 1087 c 0
 275 1071 272 1053 272 1034 c 0
 272 1001 280 969 295 936 c 0
 315 885 350 845 399 815 c 2
 444 786 l 1
 395 770 l 2
 349 754 302 723 256 678 c 0
 207 634 165 588 132 537 c 0
 99 486 78 439 68 397 c 0
 58 352 53 310 53 271 c 0
 53 232 59 195 70 157 c 0
 81 119 98 87 121 60 c 0
 144 33 178 12 222 -6 c 0
 266 -24 318 -33 377 -33 c 0
 434 -33 490 -23 543 -4 c 0
 596 15 641 40 679 70 c 0
 717 100 752 134 786 174 c 0
 849 249 891 333 911 424 c 0
 918 453 922 478 922 500 c 0xf8
782 1307 m 0
 817 1280 842 1244 854 1202 c 0
 861 1179 864 1157 864 1136 c 0
 864 1115 862 1095 858 1077 c 0
 850 1037 819 996 764 952 c 0
 715 910 663 877 608 852 c 1
 600 850 l 1
 592 854 l 2
 516 891 462 928 432 965 c 0
 407 995 395 1029 395 1067 c 0
 395 1079 397 1093 401 1108 c 0
 413 1168 446 1223 499 1273 c 0
 552 1323 607 1348 666 1348 c 2
 668 1348 l 2
 710 1348 748 1334 782 1307 c 0
193 233 m 0
 179 262 172 293 172 326 c 0
 172 346 174 367 178 387 c 0
 197 465 243 537 317 604 c 0
 384 671 464 718 555 745 c 2
 563 748 l 1
 569 743 l 2
 611 723 647 701 676 676 c 0
 705 651 726 627 741 602 c 0
 757 577 769 552 775 526 c 0
 781 500 784 477 784 457 c 0xf8
 784 434 781 408 774 381 c 0
 764 337 746 296 719 258 c 0
 693 220 664 189 631 166 c 0
 598 143 563 125 526 112 c 0
 489 99 454 92 420 92 c 0
 372 92 329 104 289 129 c 0
 247 152 215 187 193 233 c 0
EndSplineSet
Validated: 9
EndChar

StartChar: nine
Encoding: 57 57 25
Width: 1044
GlyphClass: 2
Flags: HW
HStem: 508 131<359 648> 1366 123<508 760>
VStem: 147 139<713 1072> 862 117<807 1254>
LayerCount: 2
Fore
SplineSet
931 782 m 0
 962 910 978 1022 978 1118 c 0
 978 1194 968 1260 948 1315 c 0
 923 1379 884 1425 831 1454 c 0
 787 1477 736 1489 677 1489 c 0
 621 1489 566 1476 513 1451 c 0
 460 1426 412 1391 368 1346 c 0
 323 1301 282 1246 244 1182 c 0
 206 1118 179 1049 161 975 c 0
 151 934 147 894 147 854 c 0
 147 835 148 817 151 799 c 0
 158 742 173 691 196 648 c 0
 219 605 250 571 290 545 c 0
 327 519 369 507 415 508 c 0
 486 508 546 515 596 530 c 0
 646 545 690 573 728 614 c 2
 814 698 l 1
 767 586 l 2
 748 542 721 493 687 438 c 0
 653 385 618 338 581 297 c 0
 522 234 460 189 393 162 c 0
 362 150 334 140 311 133 c 0
 284 126 253 120 220 112 c 0
 187 104 164 98 149 94 c 0
 130 89 112 78 95 62 c 0
 78 46 68 32 67 20 c 0
 66 12 66 6 69 1 c 0
 72 -4 76 -7 81 -10 c 0
 93 -17 108 -22 126 -23 c 0
 130 -23 135 -21 139 -20 c 0
 214 -13 284 1 350 23 c 0
 411 45 471 77 529 119 c 0
 587 161 639 212 687 272 c 0
 736 332 783 406 827 493 c 0
 871 580 905 676 931 782 c 0
843 1190 m 0
 855 1149 862 1107 862 1065 c 0
 862 1040 859 1016 855 993 c 0
 841 912 830 850 819 805 c 1
 814 801 l 2
 769 750 718 711 661 682 c 0
 605 653 550 639 497 639 c 0
 410 639 349 672 315 739 c 0
 296 774 286 818 286 870 c 0
 286 911 292 959 304 1012 c 0
 316 1071 340 1127 374 1181 c 0
 408 1235 449 1279 496 1314 c 0
 543 1349 590 1366 636 1366 c 2
 640 1366 l 2
 673 1366 703 1357 730 1341 c 0
 760 1325 784 1304 802 1278 c 0
 820 1252 833 1223 843 1190 c 0
EndSplineSet
Validated: 41
EndChar

StartChar: colon
Encoding: 58 58 26
Width: 1044
GlyphClass: 2
Flags: HW
HStem: 653 268<510 637>
VStem: 348 221<160 313> 473 223<725 888>
LayerCount: 2
Fore
SplineSet
473 719 m 2xa0
 473 703 l 2
 473 697 474 691 477 685 c 0
 480 679 486 674 494 670 c 0
 508 662 526 656 551 653 c 2
 555 653 l 2
 569 653 585 659 605 670 c 0
 625 681 639 698 649 721 c 0
 672 770 688 816 696 858 c 1
 696 868 l 2
 696 887 691 900 680 907 c 0
 664 917 645 922 625 922 c 1
 610 922 l 2
 592 922 573 918 553 911 c 0
 541 907 530 901 521 892 c 0
 512 883 507 872 504 858 c 0
 489 802 478 756 473 719 c 2xa0
348 164 m 2xc0
 348 149 354 137 365 127 c 0
 381 115 399 107 418 106 c 1
 424 106 l 2
 440 106 459 112 481 123 c 0
 503 134 519 150 530 170 c 0
 553 218 566 264 569 309 c 0
 569 312 570 313 571 313 c 1
 571 327 568 338 560 348 c 0
 552 358 544 365 534 369 c 0
 524 373 512 375 500 375 c 1
 487 375 l 2
 471 375 452 370 430 362 c 0
 419 358 409 352 401 343 c 0
 393 334 388 323 385 311 c 0
 375 280 369 259 366 249 c 0
 363 239 359 230 358 225 c 2
 348 172 l 1
 348 164 l 2xc0
EndSplineSet
Validated: 9
EndChar

StartChar: semicolon
Encoding: 59 59 27
Width: 1044
GlyphClass: 2
Flags: HW
HStem: 567 268<623 747>
VStem: 585 223<639 800>
LayerCount: 2
Fore
SplineSet
736 836 m 2
 724 836 l 2
 719 836 710 835 700 834 c 0
 690 833 679 829 667 825 c 0
 655 821 644 815 635 806 c 0
 626 797 619 786 615 774 c 0
 600 718 590 672 585 635 c 2
 585 627 l 2
 585 617 588 609 593 602 c 0
 608 583 632 571 665 567 c 2
 667 567 l 2
 681 567 697 573 716 584 c 0
 735 595 750 612 761 635 c 0
 784 684 800 730 808 772 c 1
 808 782 l 2
 808 790 807 798 804 806 c 0
 801 814 797 818 792 821 c 0
 774 831 755 836 736 836 c 2
628 158 m 0
 631 166 632 173 632 178 c 0
 632 189 627 198 617 203 c 0
 598 214 578 218 556 217 c 2
 554 217 l 2
 549 218 545 219 542 219 c 0
 531 219 519 217 505 213 c 0
 500 210 492 205 484 195 c 0
 476 185 468 171 460 152 c 0
 430 85 388 -12 335 -138 c 0
 282 -264 251 -344 241 -375 c 0
 238 -383 237 -390 237 -398 c 0
 237 -406 240 -413 245 -418 c 0
 257 -430 273 -436 292 -436 c 1
 296 -436 l 2
 310 -436 325 -432 341 -422 c 0
 357 -412 371 -396 382 -373 c 0
 534 -62 616 116 628 158 c 0
EndSplineSet
Validated: 9
EndChar

StartChar: less
Encoding: 60 60 28
Width: 1044
GlyphClass: 2
Flags: HW
LayerCount: 2
Fore
SplineSet
1040 1370 m 0
 1040 1374 1039 1378 1038 1382 c 0
 1035 1401 1026 1418 1010 1430 c 0
 1005 1434 997 1435 989 1434 c 0
 973 1434 954 1427 932 1415 c 0
 860 1374 775 1319 679 1249 c 0
 583 1179 475 1102 358 1015 c 0
 241 928 139 856 53 797 c 0
 39 789 28 776 18 758 c 0
 8 739 4 718 4 698 c 0
 4 682 7 671 14 664 c 0
 48 631 89 586 136 529 c 0
 183 472 227 418 268 365 c 0
 309 312 350 259 392 208 c 0
 434 157 473 113 510 78 c 0
 547 43 578 20 604 10 c 0
 622 3 638 0 653 0 c 2
 666 0 l 2
 685 3 700 7 712 14 c 0
 724 21 732 30 739 41 c 0
 746 55 750 65 750 72 c 0
 750 92 730 119 690 152 c 0
 655 181 615 219 573 269 c 0
 531 319 493 368 458 415 c 0
 423 462 382 514 335 572 c 0
 288 630 245 680 205 721 c 2
 184 741 l 1
 248 785 368 867 541 989 c 0
 714 1111 842 1198 924 1251 c 0
 972 1282 1005 1309 1024 1331 c 0
 1035 1345 1040 1358 1040 1370 c 0
EndSplineSet
Validated: 9
EndChar

StartChar: equal
Encoding: 61 61 29
Width: 1044
GlyphClass: 2
Flags: HW
HStem: 530 119<139 222 776 806> 530 101<139 602> 932 125<235 308 869 900>
LayerCount: 2
Fore
SplineSet
308 1057 m 2x20
 286 1057 269 1050 255 1038 c 0
 240 1024 230 1007 226 987 c 0
 225 982 224 977 224 973 c 0
 224 963 227 955 234 948 c 0
 244 937 261 932 284 932 c 0
 326 932 391 933 478 936 c 2
 689 942 l 1
 757 942 l 2
 782 942 808 941 837 940 c 2
 851 940 l 2
 856 940 862 941 869 944 c 0
 883 949 894 962 902 981 c 0
 909 997 912 1013 912 1028 c 0
 912 1038 910 1045 907 1050 c 0
 904 1055 891 1057 871 1057 c 0
 857 1057 819 1056 753 1055 c 0
 586 1052 439 1053 312 1057 c 2
 308 1057 l 2x20
226 649 m 2
 222 649 l 2xa0
 197 649 178 644 162 632 c 0x60
 146 620 137 606 134 590 c 0
 133 583 132 576 132 569 c 0
 132 559 134 552 138 545 c 0
 145 535 160 530 183 530 c 0xa0
 224 530 290 532 380 535 c 0
 511 539 597 541 637 542 c 0
 677 543 713 542 744 541 c 0
 748 541 753 541 758 540 c 0
 763 539 768 540 776 543 c 0
 784 546 791 551 796 559 c 0
 807 573 814 590 818 610 c 0
 821 628 820 640 816 647 c 0
 813 652 801 655 779 655 c 2
 577 651 l 2
 496 650 428 649 371 648 c 0
 314 647 266 648 226 649 c 2
EndSplineSet
Validated: 41
EndChar

StartChar: greater
Encoding: 62 62 30
Width: 1044
GlyphClass: 2
Flags: HW
LayerCount: 2
Fore
SplineSet
391 1448 m 2
 379 1448 l 2
 360 1445 345 1441 333 1434 c 0
 321 1427 312 1418 305 1407 c 0
 298 1396 295 1386 295 1376 c 0
 295 1356 314 1329 354 1296 c 0
 390 1267 429 1229 471 1179 c 0
 513 1129 552 1080 587 1033 c 0
 622 986 663 934 710 876 c 0
 757 818 800 768 840 727 c 2
 862 707 l 1
 798 663 679 581 506 459 c 0
 333 337 204 250 121 197 c 0
 72 166 38 139 20 117 c 0
 9 103 4 90 4 78 c 0
 4 75 5 70 6 62 c 0
 7 54 10 48 15 40 c 0
 20 32 27 25 35 18 c 0
 39 14 45 13 55 14 c 0
 71 14 91 21 113 33 c 0
 185 74 270 129 366 199 c 0
 462 269 569 347 686 434 c 0
 803 521 905 594 991 651 c 0
 1005 659 1016 672 1026 690 c 0
 1036 709 1040 730 1040 750 c 0
 1040 766 1037 777 1030 784 c 0
 995 817 953 862 907 919 c 0
 861 976 817 1030 776 1083 c 0
 735 1136 694 1189 653 1241 c 0
 612 1293 574 1336 536 1371 c 0
 498 1406 466 1428 440 1438 c 0
 422 1445 406 1448 391 1448 c 2
EndSplineSet
Validated: 9
EndChar

StartChar: question
Encoding: 63 63 31
Width: 1044
GlyphClass: 2
Flags: HW
HStem: -4 266<199 337> 1331 123<443 721>
VStem: 131 270<60 197> 772 141<1016 1283>
LayerCount: 2
Fore
SplineSet
913 1204 m 0
 913 1270 897 1322 866 1360 c 0
 815 1423 726 1454 596 1454 c 0
 555 1454 514 1447 473 1431 c 0
 432 1415 395 1395 362 1370 c 0
 298 1321 246 1268 205 1212 c 0
 183 1179 172 1155 172 1137 c 0
 172 1123 177 1113 188 1106 c 0
 199 1101 208 1097 213 1095 c 0
 218 1093 223 1092 226 1092 c 0
 229 1092 233 1093 236 1094 c 0
 250 1095 270 1112 297 1143 c 0
 313 1162 327 1178 338 1190 c 0
 349 1202 365 1218 385 1237 c 0
 405 1256 424 1272 440 1284 c 0
 456 1296 476 1307 499 1317 c 0
 522 1327 543 1331 563 1331 c 0
 641 1331 698 1313 735 1276 c 0
 760 1250 772 1214 772 1169 c 0
 772 1147 769 1123 763 1096 c 0
 757 1069 745 1043 729 1018 c 0
 713 993 694 971 671 951 c 0
 648 931 625 912 600 893 c 0
 575 874 549 854 522 834 c 0
 495 814 469 791 445 768 c 0
 421 745 398 718 374 687 c 0
 350 656 329 623 313 588 c 0
 298 557 291 530 291 510 c 0
 291 496 295 485 305 477 c 0
 312 472 321 468 332 465 c 0
 343 464 350 462 354 461 c 0
 368 461 380 465 391 475 c 0
 410 491 426 516 438 547 c 0
 452 585 471 620 495 651 c 0
 519 682 543 709 569 731 c 0
 595 753 622 774 650 793 c 0
 678 812 705 831 731 849 c 0
 757 867 781 887 802 907 c 0
 823 927 842 952 859 981 c 0
 876 1010 889 1041 897 1075 c 0
 908 1123 913 1166 913 1204 c 0
401 174 m 0
 401 196 396 215 385 231 c 0
 370 251 346 262 315 262 c 0
 275 262 238 248 201 219 c 0
 167 193 145 162 135 125 c 0
 132 111 131 99 131 88 c 0
 131 65 138 45 150 27 c 0
 164 7 185 -4 215 -4 c 2
 231 -4 l 2
 272 0 308 15 339 42 c 0
 370 69 389 101 397 139 c 0
 400 151 401 163 401 174 c 0
EndSplineSet
Validated: 9
EndChar

StartChar: at
Encoding: 64 64 32
Width: 1044
GlyphClass: 2
Flags: HW
HStem: -240 125<223 538> 233 109<711 824> 266 115<390 531> 807 106<482 698> 1280 133<566 739 788 857>
VStem: -8 123<17 513> 260 109<408 639> 639 68<349 512> 948 104<699 1183>
LayerCount: 2
Fore
SplineSet
791 100 m 2xdf80
 791 104 l 2
 790 109 787 115 784 118 c 0
 781 121 777 124 772 127 c 0
 767 130 762 130 758 127 c 0
 754 124 750 122 746 121 c 0
 742 118 734 110 723 98 c 0
 715 90 706 80 696 66 c 0
 680 46 665 27 652 12 c 0
 639 -3 622 -19 600 -36 c 0
 578 -53 557 -67 535 -78 c 0
 513 -89 487 -97 456 -104 c 0
 425 -111 391 -115 356 -115 c 0
 321 -115 288 -108 259 -94 c 0
 230 -80 203 -57 180 -22 c 0
 157 13 139 55 127 104 c 0
 119 138 115 180 115 229 c 0
 115 320 129 427 156 547 c 0
 181 655 213 755 254 846 c 0
 295 937 340 1014 389 1077 c 0
 438 1140 491 1190 547 1226 c 0
 603 1262 658 1280 713 1280 c 0
 725 1280 736 1280 746 1279 c 0
 756 1278 770 1276 788 1271 c 0
 806 1266 822 1259 836 1251 c 0
 850 1243 865 1230 881 1213 c 0
 897 1196 910 1176 918 1153 c 0
 926 1130 933 1102 939 1069 c 0
 945 1036 948 1002 948 965 c 0
 948 920 944 865 935 801 c 0
 926 737 914 670 899 600 c 0
 889 556 875 509 856 457 c 0
 845 427 833 401 821 381 c 0xbf80
 805 355 787 342 768 342 c 0xdf80
 757 342 747 345 737 350 c 0
 726 357 718 367 713 381 c 0
 709 391 707 404 707 420 c 0
 707 436 708 455 711 475 c 0
 716 517 731 575 756 649 c 0
 757 653 758 656 758 657 c 2
 756 659 l 2
 751 662 743 664 735 664 c 0
 721 664 704 659 684 651 c 0
 657 640 642 628 639 616 c 0
 619 535 594 477 567 440 c 0
 537 399 499 380 451 381 c 0
 425 381 404 390 389 408 c 0
 377 424 370 444 369 469 c 2
 369 494 l 2
 369 517 372 546 380 580 c 0
 388 614 399 645 413 673 c 0
 427 701 443 723 460 741 c 0
 477 759 496 773 516 785 c 0
 536 797 558 804 578 807 c 2
 599 807 l 2
 608 807 619 806 633 803 c 0
 666 793 687 788 698 788 c 0
 705 788 714 790 725 793 c 0
 737 797 750 807 762 825 c 0
 765 829 766 834 766 838 c 0
 766 842 765 847 762 854 c 0
 752 870 736 883 713 893 c 0
 684 907 654 913 623 913 c 0
 600 913 575 910 548 902 c 0
 521 894 494 881 467 861 c 0
 440 841 414 816 389 787 c 0
 364 758 343 723 323 681 c 0
 303 639 288 595 277 548 c 0
 266 501 260 460 260 426 c 0
 260 386 268 355 283 330 c 0
 308 288 352 266 418 266 c 0xbf80
 489 266 548 308 594 393 c 2
 660 514 l 1
 641 377 l 2
 638 361 638 346 639 334 c 0
 639 303 645 278 657 262 c 0
 672 243 697 233 731 233 c 0
 760 233 788 244 815 264 c 0
 842 284 867 313 889 350 c 0
 931 422 964 507 987 604 c 0
 1031 794 1053 948 1053 1065 c 0
 1053 1121 1047 1169 1036 1210 c 0
 1025 1251 1011 1285 995 1310 c 0
 979 1335 958 1355 933 1371 c 0
 908 1387 879 1398 848 1404 c 0
 817 1410 780 1413 739 1413 c 0
 686 1413 632 1400 577 1374 c 0
 522 1348 467 1308 413 1254 c 0
 359 1200 307 1136 259 1061 c 0
 211 986 166 897 126 794 c 0
 86 691 52 580 23 461 c 0
 1 368 -9 282 -8 203 c 0
 -8 102 7 17 37 -53 c 0
 63 -112 99 -157 145 -190 c 0
 191 -223 246 -240 307 -240 c 1
 318 -240 l 2
 352 -240 385 -236 418 -231 c 0
 451 -226 480 -219 505 -209 c 0
 530 -199 555 -187 579 -172 c 0
 603 -157 623 -142 639 -128 c 0
 655 -114 672 -97 688 -77 c 0
 704 -57 717 -40 727 -26 c 0
 737 -12 747 6 758 25 c 0
 770 45 778 62 783 74 c 0
 788 86 791 95 791 100 c 2xdf80
758 657 m 1024
EndSplineSet
Validated: 41
EndChar

StartChar: A
Encoding: 65 65 33
Width: 1044
GlyphClass: 2
Flags: HW
HStem: 565 88<455 836>
VStem: 828 145<58 412 655 895> 867 127<971 1305>
LayerCount: 2
Fore
SplineSet
810 565 m 1xa0
 820 583 829 583 837 565 c 1
 832 403 828 290 828 228 c 0
 828 166 829 127 830 111 c 0
 834 76 844 53 859 45 c 0
 866 41 874 39 882 39 c 0
 889 39 896 41 906 45 c 0
 920 50 932 59 943 71 c 0
 954 83 963 97 970 115 c 0
 973 123 974 131 974 140 c 0xc0
 974 149 972 160 968 172 c 0
 960 201 955 281 955 412 c 0
 955 493 958 593 962 713 c 0
 970 1024 980 1265 994 1434 c 1
 994 1444 l 2
 994 1459 990 1470 982 1475 c 0
 972 1482 961 1485 947 1485 c 2
 937 1485 l 1
 935 1485 l 2
 923 1485 909 1479 894 1469 c 0
 879 1459 860 1441 837 1415 c 0
 729 1284 563 1022 339 629 c 1
 336 645 334 644 331 625 c 1
 308 617 287 605 269 591 c 0
 251 577 242 563 239 549 c 0
 238 545 237 542 237 539 c 0
 237 531 241 523 251 516 c 1
 256 528 262 524 267 502 c 1
 156 322 93 210 75 166 c 0
 59 129 50 100 50 80 c 0
 50 72 51 64 54 58 c 0
 57 52 62 47 68 44 c 0
 74 41 81 39 89 39 c 0
 97 39 107 42 118 47 c 0
 140 58 160 82 179 119 c 0
 251 269 321 402 388 518 c 1
 516 543 657 558 810 565 c 1xa0
820 1249 m 2
 867 1305 l 1xa0
 841 655 l 1
 818 653 l 2
 724 650 618 642 499 627 c 2
 454 621 l 1
 476 664 l 2
 630 962 745 1156 820 1249 c 2
EndSplineSet
Validated: 9
EndChar

StartChar: B
Encoding: 66 66 34
Width: 1044
GlyphClass: 2
Flags: HW
HStem: 635 96<483 640> 1315 88<441 791>
VStem: 801 147<412 514> 887 127<934 1036 1094 1229>
LayerCount: 2
Fore
SplineSet
944 412 m 2xd0
 948 432 l 2xe0
 948 451 942 473 930 496 c 0
 912 530 887 561 854 588 c 0
 821 615 787 636 752 651 c 1
 734 641 716 649 698 674 c 1
 716 666 734 673 752 696 c 1
 812 721 864 760 909 814 c 0
 954 868 985 933 1001 1008 c 0
 1009 1043 1014 1077 1014 1108 c 0
 1014 1148 1007 1185 995 1219 c 0
 973 1278 936 1323 881 1355 c 0
 826 1387 760 1403 684 1403 c 2
 664 1403 l 1
 629 1403 l 2
 619 1403 605 1402 586 1401 c 0
 552 1400 515 1394 477 1386 c 0
 457 1382 436 1377 414 1370 c 2
 412 1370 l 1
 403 1370 l 2
 385 1370 368 1363 352 1348 c 0
 336 1333 324 1309 317 1276 c 0
 307 1223 299 1186 289 1167 c 0
 275 1114 265 1072 258 1041 c 0
 251 1010 238 949 219 858 c 0
 186 686 152 519 117 357 c 0
 82 195 55 86 37 29 c 0
 33 17 31 6 31 -4 c 0
 31 -14 33 -22 37 -27 c 0
 44 -38 56 -43 72 -43 c 2
 78 -43 l 1
 82 -43 l 2
 94 -46 107 -47 119 -47 c 0
 139 -47 169 -45 209 -41 c 1
 231 -56 252 -54 274 -35 c 1
 296 -49 319 -47 342 -29 c 1
 421 -21 496 -1 566 28 c 0
 636 57 696 92 745 133 c 0
 797 174 841 218 876 266 c 0
 911 314 933 363 944 412 c 2xd0
453 1288 m 2
 517 1306 581 1315 645 1315 c 0
 694 1315 739 1303 780 1278 c 0
 806 1264 828 1247 846 1225 c 0
 864 1203 876 1175 883 1141 c 0
 886 1127 887 1112 887 1094 c 0xd0
 887 1076 885 1056 880 1036 c 0
 875 1016 869 997 863 980 c 0
 857 963 849 944 838 924 c 0
 827 904 814 884 800 866 c 0
 786 848 768 831 748 813 c 0
 728 795 705 781 682 769 c 0
 659 757 631 748 600 741 c 0
 569 734 535 731 498 731 c 0
 449 731 388 733 317 737 c 1
 335 824 351 900 365 963 c 0
 379 1026 403 1132 440 1284 c 1
 453 1288 l 2
735 535 m 0
 779 498 801 460 801 422 c 0xe0
 801 415 800 408 799 401 c 0
 792 372 776 342 750 311 c 0
 725 280 694 250 657 222 c 0
 620 194 575 171 522 151 c 0
 469 131 415 120 360 117 c 0
 345 117 323 116 293 115 c 0
 262 115 229 114 195 111 c 1
 217 224 251 398 297 631 c 1
 335 632 396 634 481 635 c 2
 483 635 l 1
 542 624 593 610 636 592 c 0
 679 574 712 555 735 535 c 0
EndSplineSet
Validated: 41
EndChar

StartChar: C
Encoding: 67 67 35
Width: 1044
GlyphClass: 2
Flags: HW
HStem: -63 137<215 530> 1339 121<645 872> 1436 43G<933 938>
VStem: -35 158<177 526>
LayerCount: 2
Fore
SplineSet
279 -63 m 2xd0
 476 -63 634 1 756 131 c 0
 790 168 807 198 807 221 c 0
 807 231 803 240 795 250 c 0
 791 254 785 256 778 256 c 0
 768 256 759 253 748 248 c 0
 737 243 723 234 707 223 c 0
 685 205 662 189 637 173 c 0
 612 157 584 142 551 126 c 0
 518 110 482 98 442 88 c 0
 402 78 364 74 324 74 c 0
 273 74 230 95 195 139 c 0
 159 180 137 233 129 297 c 0
 125 322 123 346 123 371 c 0
 123 409 127 448 135 489 c 0
 154 576 183 665 223 752 c 0
 260 839 302 917 348 985 c 0
 394 1053 443 1114 493 1168 c 0
 543 1222 592 1264 642 1294 c 0
 692 1324 737 1339 778 1339 c 0
 800 1339 821 1333 840 1321 c 0
 850 1314 857 1309 862 1305 c 0
 880 1289 892 1277 899 1272 c 1
 903 1280 906 1277 909 1262 c 0
 894 1205 886 1169 883 1157 c 0
 882 1150 881 1146 881 1143 c 0
 881 1131 885 1121 893 1114 c 0
 904 1104 916 1100 930 1100 c 2
 940 1100 l 2
 954 1101 972 1115 995 1141 c 0
 1018 1167 1033 1194 1038 1221 c 0
 1039 1225 1044 1242 1052 1271 c 0
 1060 1300 1064 1324 1067 1343 c 0
 1075 1388 1079 1427 1079 1460 c 0xd0
 1079 1480 1073 1495 1061 1505 c 0
 1051 1513 1041 1518 1030 1518 c 2
 1020 1516 l 2
 1006 1515 993 1509 979 1499 c 0
 965 1488 954 1474 946 1456 c 1
 943 1466 940 1459 936 1436 c 1xb0
 929 1454 922 1456 915 1444 c 1
 881 1455 843 1460 801 1460 c 0
 760 1460 715 1448 665 1425 c 0
 615 1402 564 1370 512 1328 c 0
 460 1286 407 1233 354 1170 c 0
 301 1107 252 1037 207 961 c 0
 158 885 113 798 73 703 c 0
 33 608 2 511 -20 410 c 0
 -30 368 -35 326 -35 285 c 0
 -35 234 -27 187 -12 144 c 0
 3 101 22 65 46 35 c 0
 70 5 101 -19 139 -37 c 0
 177 -55 219 -63 264 -63 c 1
 279 -63 l 2xd0
EndSplineSet
Validated: 9
EndChar

StartChar: D
Encoding: 68 68 36
Width: 1044
GlyphClass: 2
Flags: HW
HStem: -63 125<258 642> 1458 43G<444 453>
VStem: 444 8<1458 1489> 893 133<424 918>
LayerCount: 2
Fore
SplineSet
453 1407 m 1
 453 1268 l 1
 461 1268 l 1
 461 1250 461 1250 461 1266 c 1
 465 1266 l 1
 465 1248 465 1248 465 1264 c 1
 469 1264 l 1
 469 1246 469 1246 469 1262 c 1
 475 1262 l 1
 475 1242 475 1237 475 1251 c 1
 580 1200 659 1152 711 1106 c 0
 833 1002 893 863 893 690 c 0
 893 629 884 564 868 494 c 0
 857 446 840 397 816 347 c 0
 792 297 766 251 737 209 c 0
 708 167 676 131 639 103 c 0
 602 75 565 61 528 61 c 0
 460 61 400 67 349 78 c 0
 298 89 249 107 201 133 c 1
 196 119 189 122 184 141 c 1
 198 213 217 309 242 426 c 0
 260 498 277 587 293 692 c 0
 328 887 368 1074 410 1251 c 0
 422 1286 433 1339 444 1409 c 1
 425 1412 407 1413 391 1413 c 0
 373 1413 356 1406 340 1391 c 0
 324 1376 312 1352 305 1321 c 0
 302 1310 295 1280 283 1229 c 0
 271 1178 261 1141 255 1117 c 0
 249 1093 238 1043 223 967 c 0
 185 772 148 590 110 423 c 0
 72 256 44 140 25 74 c 0
 21 62 18 50 18 40 c 0
 18 30 21 21 25 16 c 0
 32 5 43 0 59 0 c 0
 66 0 82 -3 108 -11 c 0
 134 -19 165 -27 198 -35 c 0
 231 -43 273 -50 324 -55 c 0
 375 -60 425 -63 477 -63 c 2
 494 -63 l 1
 538 -63 582 -53 626 -32 c 0
 670 -11 710 18 747 53 c 0
 785 88 822 129 856 174 c 0
 890 219 918 265 940 313 c 0
 962 361 979 409 991 455 c 0
 1016 557 1027 653 1026 743 c 0
 1026 815 1018 880 1004 935 c 0
 990 990 969 1043 941 1092 c 0
 913 1141 882 1181 848 1214 c 0
 814 1247 777 1275 739 1300 c 0
 701 1325 665 1345 631 1359 c 0
 597 1373 562 1385 528 1393 c 0
 501 1400 476 1404 453 1407 c 1
453 1458 m 1
 444 1458 l 1
 447 1487 450 1499 453 1495 c 1
 453 1499 453 1487 453 1458 c 1
EndSplineSet
Validated: 37
EndChar

StartChar: E
Encoding: 69 69 37
Width: 1044
GlyphClass: 2
Flags: HW
HStem: -41 129<135 608> -14 137<247 783> 639 127<241 698> 680 116<430 895> 1260 121<395 759 867 1080>
VStem: -40 156<56 305>
LayerCount: 2
Fore
SplineSet
708 -13 m 0xac
 712 -14 716 -14 720 -14 c 0
 739 -14 754 -8 765 6 c 0
 781 22 792 41 796 63 c 0
 797 68 798 75 798 80 c 0
 798 85 798 91 797 97 c 0
 796 103 795 108 793 110 c 0
 791 112 787 115 782 118 c 0
 777 121 771 123 762 123 c 0x4c
 753 123 740 122 724 119 c 0
 676 109 575 100 421 92 c 0
 355 89 303 88 265 88 c 0
 227 88 198 89 179 90 c 0
 159 91 144 94 134 98 c 1
 129 83 123 84 118 102 c 0
 117 117 116 129 116 137 c 0
 116 168 130 249 159 377 c 0
 177 460 196 547 216 637 c 1
 221 621 228 621 235 639 c 1xac
 294 639 404 645 566 659 c 0
 728 673 821 680 843 680 c 0
 866 680 884 686 896 698 c 0
 907 709 916 727 921 750 c 0
 924 766 923 778 919 786 c 0
 915 791 903 795 883 796 c 0x1c
 863 797 778 791 626 780 c 0
 476 770 357 766 271 766 c 1
 261 750 252 749 241 764 c 1
 274 921 309 1077 349 1231 c 1
 354 1215 360 1215 364 1233 c 1
 449 1247 547 1254 660 1257 c 0
 690 1258 720 1260 749 1260 c 0
 834 1260 920 1256 1009 1249 c 0
 1013 1249 1017 1249 1022 1248 c 0
 1027 1247 1032 1249 1039 1253 c 0
 1053 1258 1064 1271 1074 1290 c 0
 1078 1298 1081 1307 1082 1316 c 0
 1083 1325 1084 1332 1084 1337 c 0
 1084 1342 1083 1347 1082 1350 c 0
 1077 1357 1063 1362 1041 1366 c 0
 999 1371 941 1375 867 1378 c 0
 833 1379 797 1380 759 1380 c 0
 612 1380 488 1373 390 1358 c 1
 385 1340 379 1339 374 1354 c 1
 371 1343 369 1349 366 1372 c 0
 363 1380 358 1386 352 1389 c 0
 346 1392 339 1393 331 1393 c 0
 328 1377 326 1377 323 1393 c 1
 305 1393 287 1385 271 1369 c 0
 255 1353 242 1329 234 1298 c 0
 231 1284 224 1253 210 1202 c 0
 196 1151 186 1113 180 1086 c 0
 174 1059 162 1006 146 924 c 0
 120 794 95 676 69 572 c 0
 43 468 19 370 -1 279 c 0
 -27 167 -40 97 -40 70 c 0
 -40 43 -32 19 -17 0 c 0
 1 -23 20 -36 42 -37 c 0
 68 -40 100 -41 140 -41 c 0
 218 -41 355 -33 550 -18 c 0
 613 -14 658 -12 685 -12 c 0
 696 -12 704 -12 708 -13 c 0xac
EndSplineSet
Validated: 41
EndChar

StartChar: F
Encoding: 70 70 38
Width: 1044
GlyphClass: 2
Flags: HW
HStem: 635 150<248 430 437 870> 662 123<282 446 656 870> 1268 129<392 821 1013 1083>
LayerCount: 2
Fore
SplineSet
1054 1386 m 0xa0
 991 1393 914 1397 821 1397 c 0
 686 1397 540 1390 384 1376 c 1
 381 1365 379 1371 378 1393 c 0
 375 1401 371 1406 365 1409 c 0
 359 1412 351 1413 341 1413 c 2
 333 1413 l 1
 314 1413 296 1406 280 1391 c 0
 264 1376 252 1352 245 1321 c 0
 235 1268 226 1230 216 1210 c 0
 202 1157 193 1115 186 1085 c 0
 179 1054 166 992 147 901 c 0
 112 721 75 546 37 375 c 0
 -1 204 -28 89 -46 29 c 0
 -50 17 -52 6 -52 -4 c 0
 -52 -14 -50 -22 -46 -27 c 0
 -39 -38 -27 -43 -11 -43 c 1
 -10 -43 -8 -44 -5 -45 c 0
 15 -45 37 -39 57 -25 c 0
 77 -11 92 8 100 31 c 0
 141 219 182 424 223 645 c 1
 228 629 233 629 237 647 c 1
 290 655 355 661 433 662 c 0x60
 515 662 590 658 656 653 c 0
 722 648 773 642 808 635 c 2
 814 635 l 2
 832 635 845 641 853 653 c 0
 865 668 875 686 880 705 c 2
 880 717 l 2
 880 725 879 731 876 735 c 0
 875 736 871 739 865 742 c 0
 859 745 849 749 837 752 c 0
 803 759 756 765 695 771 c 0
 634 777 565 781 489 784 c 2
 446 784 l 2
 386 784 331 781 280 774 c 1
 269 756 258 755 247 770 c 1
 263 848 278 913 290 966 c 0
 302 1019 325 1113 358 1251 c 1
 519 1266 666 1274 800 1274 c 0
 871 1274 941 1272 1009 1268 c 2
 1013 1268 l 2
 1035 1268 1052 1274 1064 1288 c 0
 1079 1303 1090 1320 1095 1339 c 0
 1098 1355 1096 1367 1091 1374 c 0
 1088 1379 1076 1383 1054 1386 c 0xa0
EndSplineSet
Validated: 9
EndChar

StartChar: G
Encoding: 71 71 39
Width: 1044
GlyphClass: 2
Flags: HW
HStem: -63 137<218 427> 592 121<849 902> 1364 119<653 902>
VStem: -32 158<177 522>
LayerCount: 2
Fore
SplineSet
1036 1406 m 0
 1020 1416 997 1429 966 1444 c 0
 910 1470 858 1483 812 1483 c 0
 768 1483 722 1471 672 1448 c 0
 622 1425 571 1392 518 1349 c 0
 465 1306 413 1252 360 1187 c 0
 307 1122 258 1051 212 973 c 0
 163 895 119 808 79 711 c 0
 39 615 8 515 -17 410 c 0
 -27 368 -32 326 -32 285 c 0
 -32 234 -24 187 -9 144 c 0
 6 101 25 65 49 35 c 0
 73 5 104 -19 142 -37 c 0
 180 -55 222 -63 267 -63 c 1
 271 -63 l 2
 309 -63 350 -55 392 -37 c 0
 434 -18 475 8 513 41 c 0
 551 74 589 111 625 152 c 0
 661 193 693 235 721 278 c 0
 749 321 773 361 792 399 c 0
 811 437 825 471 835 500 c 0
 838 511 842 526 848 544 c 0
 854 562 858 578 861 592 c 1
 865 591 869 592 873 596 c 0
 887 601 897 611 905 623 c 0
 913 635 918 652 921 672 c 2
 921 678 l 2
 921 688 918 694 914 698 c 0
 913 699 909 703 902 707 c 0
 890 711 857 713 804 713 c 0
 753 713 688 708 607 700 c 0
 498 689 425 674 390 655 c 0
 339 630 313 597 310 553 c 2
 310 549 l 2
 310 537 315 526 323 518 c 0
 327 514 331 512 336 512 c 0
 341 512 346 515 353 520 c 0
 386 539 440 554 515 566 c 0
 590 578 665 586 740 590 c 0
 752 587 765 588 779 592 c 1
 774 576 768 563 763 553 c 0
 748 519 730 481 707 440 c 0
 684 399 658 357 627 314 c 0
 596 271 565 233 534 198 c 0
 503 163 468 134 431 110 c 0
 394 86 360 74 327 74 c 0
 276 74 234 95 198 139 c 0
 163 181 140 234 132 297 c 0
 128 322 126 346 126 371 c 0
 126 409 130 448 138 489 c 0
 157 579 187 669 228 758 c 0
 265 847 307 926 353 997 c 0
 399 1068 448 1132 499 1187 c 0
 550 1242 599 1286 649 1317 c 0
 699 1348 744 1364 785 1364 c 0
 811 1364 838 1355 867 1339 c 0
 896 1324 921 1308 944 1290 c 0
 967 1272 981 1263 988 1260 c 0
 996 1259 1003 1257 1008 1256 c 0
 1013 1255 1019 1257 1027 1260 c 0
 1042 1267 1053 1276 1058 1288 c 0
 1070 1311 1076 1332 1076 1348 c 0
 1076 1360 1073 1370 1066 1380 c 0
 1062 1387 1052 1396 1036 1406 c 0
EndSplineSet
Validated: 9
EndChar

StartChar: H
Encoding: 72 72 40
Width: 1044
GlyphClass: 2
Flags: HW
HStem: 639 127<282 640>
LayerCount: 2
Fore
SplineSet
253 639 m 1
 269 639 l 2
 321 639 412 649 540 669 c 0
 668 689 743 699 763 700 c 1
 774 684 784 684 794 702 c 1
 791 675 788 665 787 670 c 1
 738 432 687 219 634 29 c 0
 630 17 628 6 629 -4 c 0
 630 -14 631 -22 634 -27 c 0
 641 -38 652 -43 667 -43 c 1
 668 -43 670 -44 673 -45 c 0
 692 -45 711 -39 729 -25 c 0
 747 -11 760 8 767 31 c 0
 777 75 801 174 839 330 c 0
 880 484 910 608 929 702 c 0
 954 817 973 906 987 967 c 0
 1001 1028 1018 1099 1038 1180 c 0
 1058 1261 1070 1310 1075 1328 c 0
 1080 1346 1082 1361 1082 1372 c 0
 1082 1383 1079 1392 1074 1399 c 0
 1066 1409 1052 1413 1033 1413 c 1
 1030 1397 1028 1397 1027 1413 c 1
 1008 1413 990 1406 972 1391 c 0
 954 1376 941 1352 933 1321 c 0
 930 1309 921 1274 906 1217 c 0
 891 1160 880 1118 873 1092 c 0
 861 1018 849 962 837 922 c 0
 834 912 831 898 828 880 c 0
 825 862 822 841 818 819 c 1
 787 816 743 811 688 802 c 0
 633 793 572 785 505 777 c 0
 438 769 373 766 310 766 c 1
 300 750 292 749 282 764 c 1
 296 823 310 889 324 962 c 0
 338 1035 348 1089 356 1127 c 0
 364 1165 374 1206 387 1251 c 0
 400 1296 408 1325 411 1337 c 0
 414 1349 415 1361 415 1372 c 0
 415 1383 412 1392 407 1399 c 0
 399 1409 386 1413 370 1413 c 1
 369 1397 367 1397 366 1413 c 1
 348 1413 330 1406 313 1391 c 0
 296 1376 283 1352 275 1321 c 0
 271 1306 266 1283 258 1253 c 0
 250 1223 245 1200 241 1182 c 0
 240 1174 232 1135 218 1065 c 0
 200 982 187 919 177 877 c 0
 167 835 151 770 128 684 c 0
 83 508 52 381 34 303 c 0
 0 156 -22 64 -32 29 c 0
 -36 17 -38 6 -38 -4 c 0
 -38 -14 -36 -22 -32 -27 c 0
 -24 -38 -12 -43 3 -43 c 1
 4 -43 6 -44 9 -45 c 0
 28 -45 49 -39 69 -25 c 0
 89 -11 104 8 112 31 c 0
 157 259 199 441 237 578 c 0
 238 585 240 592 243 601 c 0
 246 610 249 623 253 639 c 1
EndSplineSet
Validated: 9
EndChar

StartChar: I
Encoding: 73 73 41
Width: 1044
GlyphClass: 2
Flags: HW
HStem: -16 113<6 186 331 336 589 805> 1278 123<283 343>
LayerCount: 2
Fore
SplineSet
589 -14 m 0
 660 -14 710 -18 740 -23 c 0
 744 -24 749 -25 754 -24 c 0
 759 -23 764 -21 770 -19 c 0
 776 -17 782 -12 787 -4 c 0
 798 10 806 27 810 47 c 0
 811 55 811 60 810 63 c 0
 810 73 809 81 806 86 c 0
 803 91 792 94 773 94 c 0
 631 95 536 96 488 96 c 2
 460 96 l 1
 471 145 494 242 529 386 c 0
 564 530 591 651 609 748 c 0
 636 893 666 1031 699 1163 c 0
 707 1183 716 1221 726 1276 c 1
 884 1266 981 1258 1015 1253 c 0
 1019 1252 1023 1251 1027 1251 c 0
 1031 1251 1036 1252 1043 1255 c 0
 1053 1259 1061 1266 1068 1274 c 0
 1084 1293 1095 1312 1099 1331 c 0
 1100 1336 1101 1342 1101 1346 c 0
 1101 1358 1097 1367 1089 1373 c 0
 1081 1379 1068 1383 1052 1384 c 1
 933 1398 789 1405 620 1405 c 0
 535 1405 443 1404 343 1401 c 1
 317 1401 297 1393 283 1379 c 0
 269 1365 260 1348 257 1329 c 0
 256 1324 255 1319 255 1315 c 0
 255 1305 258 1297 263 1292 c 0
 270 1282 284 1278 304 1278 c 0
 305 1278 315 1278 331 1279 c 0
 347 1280 377 1280 420 1280 c 0
 463 1280 521 1279 595 1278 c 1
 592 1252 590 1242 589 1249 c 1
 588 1242 581 1219 570 1178 c 0
 559 1137 552 1108 548 1090 c 0
 534 1027 525 985 521 963 c 0
 520 953 513 917 501 856 c 0
 450 594 393 340 327 96 c 1
 188 92 91 89 36 86 c 0
 9 85 -13 78 -28 65 c 0
 -43 52 -51 35 -54 16 c 0
 -55 11 -56 6 -56 2 c 0
 -56 -5 -54 -11 -50 -16 c 0
 -42 -24 -24 -29 5 -29 c 0
 34 -29 88 -28 169 -25 c 1
 241 -39 313 -35 384 -16 c 1
 443 -13 489 -12 524 -13 c 0
 559 -14 581 -14 589 -14 c 0
EndSplineSet
Validated: 41
EndChar

StartChar: J
Encoding: 74 74 42
Width: 1044
GlyphClass: 2
Flags: HW
HStem: -72 158<187 377> 1278 123<239 316 591 658 755 995>
VStem: -26 129<174 433>
LayerCount: 2
Fore
SplineSet
358 106 m 0
 345 92 331 86 316 86 c 0
 276 86 243 95 214 113 c 0
 183 131 159 152 144 179 c 0
 129 206 119 233 113 262 c 0
 107 291 103 316 103 338 c 0
 103 361 106 382 110 401 c 0
 111 408 112 415 112 420 c 0
 112 431 109 439 104 446 c 0
 99 453 92 457 81 457 c 0
 77 457 72 456 65 455 c 0
 50 452 37 446 25 437 c 0
 13 428 4 417 -2 404 c 0
 -8 391 -13 378 -18 363 c 0
 -23 348 -26 336 -26 326 c 1
 -26 308 l 2
 -26 300 -23 286 -20 264 c 0
 -17 242 -11 216 -1 186 c 0
 9 156 23 126 41 95 c 0
 59 64 80 36 103 11 c 0
 126 -14 155 -34 189 -49 c 0
 222 -64 257 -72 294 -72 c 0
 325 -72 356 -57 387 -28 c 0
 418 1 450 54 484 128 c 0
 518 202 554 300 589 422 c 0
 605 481 622 551 639 632 c 0
 656 713 671 786 683 852 c 0
 697 908 710 981 722 1071 c 0
 737 1152 751 1219 763 1272 c 1
 867 1267 940 1260 982 1253 c 0
 986 1252 990 1251 995 1251 c 0
 1000 1251 1006 1252 1011 1255 c 0
 1021 1259 1029 1266 1037 1274 c 0
 1053 1293 1064 1312 1068 1331 c 0
 1069 1336 1070 1342 1070 1346 c 0
 1070 1358 1066 1367 1058 1373 c 0
 1050 1379 1037 1383 1021 1384 c 1
 902 1398 759 1405 591 1405 c 0
 508 1405 416 1404 316 1401 c 1
 291 1401 272 1393 257 1379 c 0
 242 1365 233 1348 230 1329 c 0
 229 1324 228 1319 228 1315 c 0
 228 1305 232 1297 237 1292 c 0
 244 1282 258 1278 278 1278 c 0
 279 1278 290 1278 312 1279 c 0
 334 1280 373 1280 430 1281 c 0
 487 1282 562 1280 658 1276 c 1
 616 1088 579 912 546 750 c 0
 513 582 493 485 486 459 c 0
 455 325 425 229 398 170 c 0
 384 141 371 120 358 106 c 0
EndSplineSet
Validated: 41
EndChar

StartChar: K
Encoding: 75 75 43
Width: 1044
GlyphClass: 2
Flags: HW
LayerCount: 2
Fore
SplineSet
-14 20 m 0
 -14 5 -12 -6 -8 -16 c 0
 -1 -35 11 -44 27 -43 c 1
 28 -43 30 -44 33 -45 c 0
 53 -45 74 -36 94 -20 c 0
 114 -4 129 19 137 49 c 2
 242 586 l 1
 264 690 l 1
 293 635 l 2
 319 579 364 501 428 401 c 0
 491 310 550 226 606 150 c 0
 662 75 694 27 702 8 c 0
 714 -27 729 -44 745 -43 c 0
 755 -43 766 -38 780 -27 c 0
 794 -16 805 -1 813 18 c 0
 823 37 827 59 827 82 c 1
 827 80 l 1
 822 99 793 145 741 217 c 0
 690 296 629 391 555 502 c 0
 481 607 430 683 401 731 c 2
 391 750 l 1
 503 858 626 978 758 1110 c 1
 899 1234 981 1308 1006 1333 c 0
 1041 1362 1059 1385 1059 1403 c 0
 1059 1417 1057 1429 1053 1440 c 0
 1046 1456 1038 1464 1030 1464 c 0
 1025 1464 1018 1462 1008 1458 c 0
 993 1453 975 1441 956 1423 c 0
 937 1408 894 1372 827 1315 c 0
 742 1251 658 1174 575 1085 c 2
 285 801 l 1
 312 925 339 1043 365 1155 c 0
 391 1266 407 1337 414 1370 c 0
 417 1380 418 1389 418 1399 c 0
 418 1417 416 1430 412 1440 c 0
 404 1456 391 1463 375 1462 c 1
 374 1478 372 1478 369 1462 c 1
 351 1462 333 1453 317 1434 c 0
 301 1416 289 1389 281 1352 c 0
 278 1337 269 1300 254 1243 c 0
 239 1184 228 1139 223 1108 c 0
 216 1077 203 1016 184 926 c 0
 148 744 113 567 76 395 c 0
 38 224 10 108 -8 47 c 0
 -12 36 -14 27 -14 20 c 0
EndSplineSet
Validated: 37
EndChar

StartChar: L
Encoding: 76 76 44
Width: 1044
GlyphClass: 2
Flags: HW
LayerCount: 2
Fore
SplineSet
946 147 m 0
 942 155 935 160 925 160 c 2
 911 160 l 1
 859 148 766 134 634 119 c 0
 511 105 405 97 315 96 c 0
 305 96 285 97 255 98 c 1
 258 91 261 101 264 127 c 0
 278 188 300 274 333 383 c 0
 363 492 385 576 397 633 c 0
 417 707 438 797 460 903 c 0
 480 973 501 1059 520 1161 c 0
 536 1229 548 1283 556 1321 c 0
 559 1332 561 1343 560 1355 c 0
 559 1367 556 1375 552 1380 c 0
 544 1391 533 1397 518 1397 c 1
 517 1381 514 1381 511 1397 c 1
 495 1397 479 1389 463 1374 c 0
 447 1359 435 1336 427 1303 c 0
 424 1288 407 1198 376 1036 c 0
 345 874 321 761 303 698 c 0
 266 563 224 422 176 276 c 0
 150 182 124 104 98 41 c 0
 94 29 92 18 92 8 c 0
 92 -2 94 -9 98 -14 c 0
 105 -25 117 -31 133 -31 c 0
 215 -31 337 -26 499 -18 c 0
 656 -10 779 2 868 20 c 0
 897 25 916 34 927 45 c 0
 938 56 947 71 952 90 c 0
 955 110 953 129 946 147 c 0
EndSplineSet
Validated: 5
EndChar

StartChar: M
Encoding: 77 77 45
Width: 1044
GlyphClass: 2
Flags: HW
HStem: 1360 41G<443 450>
VStem: 763 127<4 432>
LayerCount: 2
Fore
SplineSet
396 -14 m 1
 399 -30 401 -30 404 -14 c 1
 449 -14 480 2 495 35 c 0
 511 65 543 151 590 293 c 0
 637 435 683 585 728 743 c 0
 773 912 835 1101 916 1309 c 1
 932 1320 949 1314 964 1294 c 1
 830 602 763 201 763 90 c 2
 763 80 l 2
 764 35 771 7 785 -4 c 0
 792 -11 799 -14 806 -15 c 0
 813 -16 820 -13 828 -8 c 0
 868 12 889 64 890 147 c 0
 891 196 921 400 978 758 c 0
 1037 1118 1069 1320 1074 1362 c 2
 1074 1368 l 2
 1074 1380 1073 1391 1070 1399 c 0
 1067 1411 1065 1419 1062 1424 c 0
 1059 1429 1054 1434 1046 1438 c 0
 1038 1441 1030 1442 1025 1442 c 2
 1000 1442 l 1
 943 1442 l 1
 992 1442 l 1
 974 1442 l 2
 967 1442 957 1441 945 1440 c 0
 933 1437 918 1429 902 1417 c 0
 887 1405 875 1388 867 1368 c 0
 838 1307 803 1219 761 1104 c 0
 719 988 680 871 646 754 c 0
 598 593 548 411 495 209 c 1
 480 195 465 199 450 219 c 1
 455 280 468 406 488 596 c 0
 533 989 556 1241 556 1350 c 2
 556 1366 l 1
 556 1395 552 1415 542 1427 c 0
 532 1437 518 1442 499 1442 c 2
 497 1442 l 1
 490 1442 l 2
 474 1442 454 1435 431 1423 c 0
 409 1411 391 1391 376 1364 c 0
 354 1330 318 1230 269 1063 c 0
 243 976 222 903 206 844 c 2
 110 532 l 2
 99 494 81 439 58 365 c 0
 35 295 17 241 5 201 c 0
 -7 163 -15 135 -19 119 c 0
 -26 90 -30 67 -30 51 c 0
 -30 13 -25 -9 -17 -14 c 0
 -14 -17 -12 -19 -9 -20 c 0
 -9 -39 -8 -39 -7 -20 c 1
 11 -20 28 -9 46 16 c 0
 66 41 81 75 89 119 c 0
 92 134 99 160 110 195 c 0
 121 232 137 281 157 342 c 0
 173 397 191 458 210 526 c 0
 243 646 270 746 290 825 c 0
 327 963 360 1083 390 1184 c 0
 412 1262 434 1334 454 1401 c 1
 447 1327 440 1249 435 1167 c 0
 416 950 398 724 380 489 c 0
 362 254 353 105 353 39 c 0
 353 23 357 9 364 -2 c 0
 371 -10 381 -14 396 -14 c 1
EndSplineSet
Validated: 5
EndChar

StartChar: N
Encoding: 78 78 46
Width: 1044
GlyphClass: 2
Flags: HW
LayerCount: 2
Fore
SplineSet
864 389 m 0
 919 605 968 813 1012 1014 c 0
 1057 1209 1080 1317 1081 1339 c 0
 1084 1359 1085 1373 1085 1378 c 0
 1085 1403 1084 1420 1081 1430 c 0
 1078 1434 1074 1437 1069 1440 c 0
 1064 1443 1055 1444 1044 1444 c 0
 1026 1444 1009 1432 991 1409 c 0
 975 1387 965 1360 961 1329 c 0
 953 1248 921 1085 866 838 c 0
 814 590 772 400 741 270 c 0
 734 237 728 210 721 188 c 1
 713 208 704 235 696 266 c 0
 650 418 598 617 539 864 c 0
 478 1111 443 1279 438 1368 c 0
 437 1397 432 1416 424 1427 c 0
 414 1438 400 1443 381 1442 c 1
 376 1443 369 1444 362 1444 c 0
 355 1444 348 1443 338 1440 c 0
 328 1437 317 1431 303 1423 c 0
 291 1413 280 1398 272 1378 c 0
 262 1360 256 1338 252 1311 c 0
 229 1183 201 1048 168 907 c 2
 47 418 l 2
 1 234 -26 127 -31 98 c 0
 -38 72 -41 51 -41 35 c 0
 -41 6 -38 -11 -33 -16 c 0
 -29 -21 -22 -25 -14 -25 c 0
 4 -25 21 -15 37 4 c 0
 56 23 69 55 76 100 c 0
 81 129 101 210 135 342 c 0
 169 477 202 610 233 741 c 0
 262 871 288 1011 313 1161 c 0
 323 1222 333 1281 344 1337 c 1
 349 1278 355 1218 360 1157 c 0
 368 1070 386 964 412 840 c 0
 439 716 467 604 494 504 c 2
 573 207 l 2
 599 114 614 54 618 27 c 0
 619 11 625 -3 633 -14 c 0
 640 -24 650 -29 664 -29 c 1
 667 -45 669 -45 672 -29 c 1
 717 -29 746 -11 760 23 c 0
 767 37 779 72 797 129 c 0
 813 185 835 272 864 389 c 0
EndSplineSet
Validated: 9
EndChar

StartChar: O
Encoding: 79 79 47
Width: 1044
GlyphClass: 2
Flags: HW
HStem: -49 147<241 344 431 513> 1329 90<539 787>
VStem: 39 143<159 569> 872 133<788 985 1063 1237>
LayerCount: 2
Fore
SplineSet
955 752 m 0
 972 830 986 902 997 969 c 0
 1002 1007 1006 1042 1006 1075 c 0
 1006 1108 1003 1138 999 1167 c 0
 989 1224 972 1272 946 1308 c 0
 920 1344 888 1372 850 1391 c 0
 812 1410 771 1419 727 1419 c 0
 640 1419 555 1392 474 1338 c 0
 393 1284 330 1214 285 1128 c 0
 226 1026 179 918 145 803 c 0
 127 742 114 692 104 655 c 0
 94 618 84 569 70 508 c 0
 67 492 64 480 61 473 c 0
 46 388 39 330 39 299 c 0
 39 268 41 237 45 207 c 0
 59 128 89 65 135 20 c 0
 181 -25 239 -48 307 -49 c 0
 353 -49 395 -46 431 -40 c 0
 467 -34 504 -22 541 -6 c 0
 578 10 611 32 642 60 c 0
 673 88 704 124 735 168 c 0
 768 213 798 267 827 330 c 0
 849 375 872 437 895 516 c 0
 918 595 938 674 955 752 c 0
441 113 m 0
 409 103 377 98 344 98 c 0
 311 98 283 108 258 127 c 0
 233 146 216 170 205 199 c 0
 191 237 183 286 182 346 c 0
 182 397 190 462 205 543 c 0
 239 722 284 877 340 1008 c 0
 381 1108 428 1185 483 1241 c 0
 540 1300 604 1329 672 1329 c 0
 703 1329 731 1323 754 1309 c 0
 787 1291 814 1263 836 1225 c 0
 862 1179 873 1124 872 1063 c 0
 872 1038 870 1012 866 985 c 0
 852 898 834 809 811 719 c 0
 788 629 767 551 748 485 c 0
 729 418 715 376 705 360 c 0
 683 315 658 276 629 241 c 0
 600 206 570 178 538 158 c 0
 506 138 473 123 441 113 c 0
EndSplineSet
Validated: 41
EndChar

StartChar: P
Encoding: 80 80 48
Width: 1044
GlyphClass: 2
Flags: HW
HStem: 471 141<274 655> 1315 92<418 810>
VStem: 900 127<907 1231>
LayerCount: 2
Fore
SplineSet
85 289 m 0
 59 173 39 86 24 29 c 0
 20 15 17 5 17 -3 c 0
 17 -11 20 -18 24 -23 c 0
 34 -34 49 -39 69 -39 c 0
 89 -39 110 -32 130 -20 c 0
 150 -8 163 9 167 29 c 0
 189 166 204 258 212 309 c 0
 220 360 231 424 245 500 c 1
 253 481 261 478 271 492 c 1
 317 478 385 471 474 471 c 0
 533 471 590 485 647 512 c 0
 704 539 756 577 802 625 c 0
 851 673 894 729 932 794 c 0
 970 859 997 927 1015 1001 c 0
 1023 1056 1027 1093 1027 1112 c 0
 1027 1153 1021 1191 1009 1225 c 0
 987 1285 948 1330 892 1361 c 0
 836 1392 769 1407 693 1407 c 0
 662 1407 605 1404 524 1397 c 0
 443 1390 381 1381 337 1370 c 0
 329 1367 320 1361 310 1351 c 0
 300 1341 293 1329 288 1315 c 0
 285 1310 284 1304 285 1299 c 0
 286 1294 286 1290 286 1286 c 0
 287 1267 289 1264 292 1278 c 1
 295 1258 297 1254 298 1268 c 1
 264 1127 236 1006 214 905 c 0
 202 848 187 776 169 690 c 0
 154 601 139 529 124 473 c 0
 112 395 99 334 85 289 c 0
417 1296 m 1
 537 1308 617 1315 658 1315 c 0
 680 1315 702 1313 725 1308 c 0
 748 1303 771 1294 794 1280 c 0
 820 1266 841 1249 859 1227 c 0
 877 1205 889 1177 896 1143 c 0
 899 1129 900 1113 900 1095 c 0
 900 1077 897 1055 892 1032 c 0
 887 1009 882 990 878 975 c 0
 874 960 867 941 859 918 c 0
 851 895 843 874 834 856 c 0
 825 838 814 819 800 796 c 0
 786 773 772 753 757 737 c 0
 742 721 723 704 703 688 c 0
 683 672 661 658 637 648 c 0
 613 638 586 630 555 623 c 0
 524 616 492 612 458 612 c 0
 391 612 335 623 290 645 c 2
 273 653 l 1
 291 740 309 823 326 901 c 0
 343 979 360 1054 378 1128 c 0
 396 1202 409 1258 417 1296 c 1
EndSplineSet
Validated: 5
EndChar

StartChar: Q
Encoding: 81 81 49
Width: 1044
GlyphClass: 2
Flags: HW
HStem: -80 41G<463 479> -49 147<277 432> 1329 90<542 786>
VStem: 42 147<199 599> 396 94<169 417> 869 133<768 1241>
LayerCount: 2
Fore
SplineSet
626 -432 m 0xbc
 630 -433 635 -434 640 -434 c 0
 650 -434 659 -431 669 -424 c 0
 677 -419 685 -409 695 -396 c 0
 705 -383 713 -369 718 -354 c 0
 721 -347 722 -342 721 -337 c 0
 720 -332 719 -328 718 -324 c 0
 707 -317 697 -294 687 -254 c 0
 650 -171 614 -85 579 4 c 1
 584 -10 590 -6 597 14 c 1
 694 74 771 175 828 317 c 0
 859 391 893 495 926 628 c 0
 959 761 982 875 994 969 c 0
 999 1010 1002 1047 1002 1082 c 0
 1002 1117 999 1150 994 1180 c 0
 984 1239 967 1285 941 1319 c 0
 889 1387 817 1420 724 1419 c 0
 638 1419 554 1391 473 1334 c 0
 392 1277 328 1206 282 1120 c 0
 185 952 110 737 58 475 c 0
 47 419 42 364 42 311 c 0
 42 258 48 209 62 165 c 0
 76 121 96 82 121 51 c 0
 146 20 178 -5 218 -23 c 0
 258 -41 301 -49 349 -49 c 0x7c
 384 -49 417 -47 447 -43 c 1
 454 -58 461 -57 466 -39 c 1
 492 -122 517 -197 542 -263 c 0
 567 -329 584 -374 595 -399 c 0
 602 -417 612 -428 626 -432 c 0xbc
404 98 m 1
 386 98 l 2
 335 98 293 120 259 162 c 0
 226 203 206 257 196 324 c 0
 192 350 189 376 189 403 c 0
 189 445 194 492 202 541 c 0
 229 710 274 867 337 1012 c 0
 377 1112 424 1189 481 1245 c 0
 538 1301 601 1329 669 1329 c 0
 700 1329 728 1323 751 1309 c 0
 784 1293 810 1266 830 1231 c 0
 856 1186 869 1130 869 1063 c 0
 869 1038 867 1012 863 985 c 0
 852 899 836 809 813 715 c 0
 790 621 771 542 753 479 c 0
 737 416 724 374 714 354 c 0
 679 263 629 196 568 154 c 2
 544 137 l 1
 536 168 l 2
 511 251 495 327 490 395 c 0
 489 410 485 421 480 426 c 0
 476 430 472 431 468 430 c 0
 460 430 451 426 441 418 c 0
 411 395 396 357 396 305 c 0
 396 294 397 282 398 270 c 0
 402 236 411 189 425 129 c 2
 433 98 l 1
 404 98 l 1
EndSplineSet
Validated: 37
EndChar

StartChar: R
Encoding: 82 82 50
Width: 1044
GlyphClass: 2
Flags: HW
VStem: 899 131<828 1071>
LayerCount: 2
Fore
SplineSet
751 -35 m 0
 755 -36 758 -37 761 -37 c 0
 771 -37 782 -33 794 -25 c 0
 809 -15 822 -2 833 16 c 0
 841 30 845 45 845 61 c 2
 845 68 l 1
 830 131 788 208 718 299 c 0
 651 390 569 471 469 541 c 1
 450 538 430 552 411 582 c 1
 433 567 456 569 479 588 c 1
 521 592 560 596 595 601 c 0
 630 606 664 613 698 622 c 0
 732 631 763 640 790 651 c 0
 819 662 846 675 873 691 c 0
 900 707 922 724 940 743 c 0
 980 784 1007 837 1022 901 c 0
 1027 928 1030 955 1030 981 c 0
 1030 997 1029 1013 1028 1028 c 0
 1023 1070 1006 1112 979 1154 c 0
 952 1196 914 1234 868 1267 c 0
 822 1300 762 1329 690 1354 c 0
 618 1377 535 1392 444 1397 c 1
 441 1381 439 1381 436 1397 c 1
 435 1382 433 1384 430 1403 c 0
 423 1410 411 1413 393 1413 c 0
 373 1413 355 1405 340 1389 c 0
 322 1373 312 1353 309 1333 c 0
 309 1313 308 1309 307 1323 c 1
 94 599 94 599 307 1321 c 1
 303 1306 295 1259 283 1179 c 0
 271 1099 262 1035 254 989 c 0
 239 913 219 833 196 748 c 0
 174 666 160 611 155 582 c 0
 113 387 85 263 72 212 c 0
 59 161 42 100 20 29 c 0
 16 17 14 6 15 -2 c 0
 16 -10 17 -18 20 -23 c 0
 28 -34 42 -39 61 -39 c 1
 61 -55 62 -55 63 -39 c 1
 67 -39 l 2
 89 -39 110 -32 130 -20 c 0
 150 -8 161 9 165 29 c 0
 169 55 179 121 193 229 c 0
 207 337 222 431 237 510 c 1
 240 505 242 516 243 543 c 1
 253 521 262 515 272 526 c 1
 325 495 378 454 431 403 c 0
 484 352 528 302 566 250 c 0
 604 198 635 151 661 109 c 0
 687 67 706 30 720 0 c 0
 728 -19 739 -31 751 -35 c 0
735 754 m 0
 676 732 575 718 432 711 c 0
 394 708 372 707 368 707 c 2
 362 707 l 2
 339 707 320 708 305 711 c 2
 280 717 l 1
 314 834 336 911 346 947 c 0
 356 983 361 1009 364 1024 c 0
 376 1096 394 1191 417 1307 c 1
 438 1303 l 2
 519 1287 599 1256 680 1212 c 0
 724 1189 761 1164 794 1135 c 0
 829 1106 858 1072 878 1032 c 0
 892 1005 899 977 899 948 c 0
 899 933 896 919 892 905 c 0
 880 853 850 813 804 786 c 0
 782 772 760 762 735 754 c 0
EndSplineSet
Validated: 41
EndChar

StartChar: S
Encoding: 83 83 51
Width: 1044
GlyphClass: 2
Flags: HW
HStem: -59 127<181 494> 1368 115<563 801 848 1007>
VStem: 215 143<940 1156> 756 146<355 457 492 630>
LayerCount: 2
Fore
SplineSet
16 240 m 0
 -2 230 -15 217 -23 199 c 0
 -28 188 -31 176 -31 163 c 0
 -31 150 -30 137 -27 123 c 0
 -15 74 20 31 75 -5 c 0
 130 -41 198 -59 279 -59 c 0
 331 -59 382 -52 434 -37 c 0
 486 -22 537 1 585 31 c 0
 633 61 677 96 717 137 c 0
 757 178 791 226 821 281 c 0
 852 336 875 394 889 457 c 0
 899 498 903 536 902 571 c 0
 901 606 896 643 884 678 c 0
 872 713 854 744 829 770 c 0
 806 796 773 819 729 838 c 0
 685 857 632 868 571 872 c 0
 493 876 436 900 401 942 c 0
 374 975 359 1014 358 1059 c 0
 358 1074 361 1090 365 1106 c 0
 376 1159 401 1206 443 1246 c 0
 485 1286 533 1317 587 1337 c 0
 641 1357 696 1368 752 1368 c 0
 787 1368 819 1366 848 1362 c 0
 877 1359 897 1356 911 1353 c 0
 925 1350 943 1344 965 1337 c 0
 970 1334 976 1332 981 1331 c 0
 991 1328 1000 1327 1008 1327 c 0
 1016 1327 1023 1328 1031 1329 c 0
 1039 1330 1046 1334 1053 1339 c 0
 1060 1344 1065 1354 1069 1367 c 0
 1073 1380 1075 1391 1075 1399 c 0
 1075 1407 1074 1414 1073 1421 c 0
 1069 1435 1059 1445 1044 1450 c 0
 1025 1458 988 1466 932 1473 c 0
 876 1480 832 1483 801 1483 c 0
 738 1483 679 1474 622 1458 c 0
 565 1442 515 1420 471 1392 c 0
 427 1364 388 1331 353 1293 c 0
 318 1255 290 1215 267 1172 c 0
 244 1129 229 1085 219 1040 c 0
 215 1022 214 1007 215 993 c 0
 215 947 226 904 246 864 c 0
 260 838 279 816 306 797 c 0
 333 778 364 765 401 760 c 0
 449 753 492 744 530 734 c 0
 568 724 601 712 627 698 c 0
 653 684 675 668 693 650 c 0
 711 632 725 613 735 594 c 0
 749 564 756 530 756 492 c 0
 756 470 752 443 745 410 c 0
 737 369 722 330 699 293 c 0
 676 256 651 225 621 198 c 0
 591 171 558 148 523 128 c 0
 488 108 454 93 420 83 c 0
 386 73 353 68 322 68 c 0
 270 68 225 80 188 106 c 0
 148 132 120 167 104 211 c 0
 97 226 92 237 87 244 c 0
 82 251 78 254 75 254 c 2
 65 254 l 2
 62 254 56 253 49 252 c 0
 42 251 31 247 16 240 c 0
EndSplineSet
Validated: 41
EndChar

StartChar: T
Encoding: 84 84 52
Width: 1044
GlyphClass: 2
Flags: HW
HStem: 1253 131<575 935>
LayerCount: 2
Fore
SplineSet
327 621 m 0
 263 302 221 110 202 47 c 0
 198 33 196 22 196 12 c 0
 196 2 197 -5 200 -10 c 0
 208 -21 221 -27 237 -27 c 1
 243 -27 l 2
 262 -27 282 -20 303 -6 c 0
 324 8 338 26 345 49 c 0
 438 568 513 974 570 1266 c 1
 660 1246 757 1241 859 1253 c 1
 867 1253 l 2
 886 1253 902 1260 916 1274 c 0
 932 1292 944 1311 949 1331 c 0
 950 1336 951 1342 951 1346 c 0
 951 1357 949 1365 944 1373 c 0
 939 1381 926 1384 904 1384 c 1
 489 1388 248 1397 181 1411 c 0
 176 1412 171 1413 167 1413 c 0
 152 1413 138 1408 126 1397 c 0
 108 1381 98 1361 95 1341 c 0
 94 1337 93 1333 93 1329 c 0
 93 1310 113 1297 153 1290 c 0
 178 1286 275 1280 447 1270 c 1
 444 1244 442 1234 441 1241 c 1
 422 1147 384 940 327 621 c 0
EndSplineSet
Validated: 41
EndChar

StartChar: U
Encoding: 85 85 53
Width: 1044
GlyphClass: 2
Flags: HW
HStem: -59 137<209 481>
VStem: -15 139<169 592> 191 121<1143 1381>
LayerCount: 2
Fore
SplineSet
871 514 m 0
 956 839 1018 1108 1056 1321 c 0
 1059 1336 1060 1349 1060 1359 c 0
 1060 1369 1058 1377 1054 1385 c 0
 1050 1393 1045 1398 1040 1401 c 0
 1035 1404 1029 1405 1019 1405 c 0
 1009 1405 1001 1404 995 1403 c 0
 989 1402 982 1398 974 1391 c 0
 958 1379 942 1344 927 1288 c 0
 924 1276 899 1160 851 940 c 0
 836 872 818 794 798 707 c 0
 779 620 760 546 742 489 c 0
 705 352 653 250 584 181 c 0
 515 112 435 78 345 78 c 0
 304 78 269 86 239 102 c 0
 208 120 183 143 167 171 c 0
 151 199 139 231 132 268 c 0
 127 298 124 327 124 356 c 0
 124 394 128 438 136 487 c 0
 151 584 210 864 312 1327 c 0
 315 1342 316 1355 317 1367 c 0
 318 1379 316 1388 311 1394 c 0
 306 1400 298 1403 286 1403 c 0
 268 1403 250 1394 232 1378 c 0
 213 1362 199 1338 191 1305 c 0
 150 1156 87 874 1 459 c 0
 -10 402 -15 348 -15 299 c 0
 -15 281 -14 264 -13 248 c 0
 -8 187 5 137 25 100 c 0
 45 63 69 33 100 8 c 0
 131 -17 163 -34 196 -45 c 0
 227 -55 258 -59 287 -59 c 0
 316 -59 345 -56 374 -50 c 0
 403 -44 433 -35 465 -22 c 0
 497 -9 528 8 559 28 c 0
 590 48 620 73 651 104 c 0
 682 135 710 171 736 209 c 0
 762 247 787 292 810 344 c 0
 836 397 856 454 871 514 c 0
EndSplineSet
Validated: 9
EndChar

StartChar: V
Encoding: 86 86 54
Width: 1044
GlyphClass: 2
Flags: HW
VStem: 61 131<890 1437>
LayerCount: 2
Fore
SplineSet
983 1380 m 2
 983 1394 981 1406 977 1417 c 0
 973 1431 968 1442 961 1450 c 0
 951 1454 944 1456 940 1456 c 0
 930 1456 920 1452 909 1444 c 0
 886 1432 864 1404 844 1360 c 2
 625 911 l 2
 487 616 381 393 307 240 c 0
 293 209 280 184 266 168 c 1
 263 193 261 223 260 258 c 0
 256 310 251 378 244 463 c 2
 227 735 l 1
 211 995 l 2
 199 1227 193 1349 193 1360 c 0
 190 1405 182 1434 168 1446 c 0
 161 1453 154 1456 146 1456 c 0
 138 1456 131 1453 121 1448 c 0
 81 1428 61 1375 61 1292 c 1
 61 1276 l 2
 61 1198 73 1012 96 717 c 0
 119 419 141 196 160 49 c 0
 163 20 170 1 182 -10 c 0
 193 -20 209 -25 229 -25 c 1
 242 -25 l 2
 261 -25 277 -17 291 -2 c 0
 305 12 316 30 324 55 c 0
 373 174 477 396 635 721 c 1
 804 1049 911 1249 956 1321 c 0
 971 1340 980 1356 983 1368 c 2
 983 1380 l 2
EndSplineSet
Validated: 9
EndChar

StartChar: W
Encoding: 87 87 55
Width: 1044
GlyphClass: 2
Flags: HW
LayerCount: 2
Fore
SplineSet
711 1403 m 0
 711 1440 696 1458 666 1458 c 1
 663 1474 661 1474 658 1456 c 1
 614 1456 585 1440 570 1407 c 0
 560 1389 544 1345 519 1274 c 0
 494 1204 464 1116 429 1010 c 0
 363 804 332 700 333 700 c 1
 266 484 223 347 204 287 c 0
 184 221 165 166 150 121 c 1
 134 109 118 113 103 133 c 1
 106 153 112 210 122 301 c 0
 132 383 139 448 146 496 c 0
 217 1004 262 1297 281 1376 c 0
 284 1384 285 1391 285 1395 c 0
 285 1405 284 1412 283 1419 c 0
 282 1437 279 1447 275 1450 c 0
 268 1455 261 1459 253 1462 c 2
 249 1462 l 2
 244 1462 237 1460 232 1456 c 0
 192 1437 166 1383 154 1294 c 0
 90 860 47 565 27 408 c 0
 19 344 12 279 7 215 c 0
 0 119 -3 70 -3 66 c 0
 -3 63 -4 61 -5 61 c 1
 -5 55 l 2
 -6 43 -6 33 -3 23 c 0
 0 9 3 0 7 -4 c 0
 10 -9 15 -14 23 -18 c 0
 31 -21 39 -23 44 -23 c 2
 66 -23 l 1
 -65 -8 -61 -8 77 -23 c 0
 91 -24 105 -22 121 -19 c 0
 137 -16 153 -9 169 2 c 0
 185 14 197 31 204 53 c 0
 235 124 287 280 359 522 c 0
 433 766 502 1003 566 1231 c 1
 581 1243 596 1239 611 1219 c 1
 604 1159 589 1033 564 842 c 2
 527 571 l 2
 498 358 484 188 484 61 c 2
 484 53 l 2
 484 24 488 5 498 -6 c 0
 508 -16 522 -22 541 -23 c 2
 544 -23 l 1
 552 -23 l 2
 567 -23 585 -17 607 -6 c 0
 630 8 649 28 664 57 c 0
 678 79 696 121 718 182 c 0
 740 242 768 329 802 444 c 0
 857 621 882 711 881 711 c 1
 972 1006 l 2
 1017 1147 1048 1251 1064 1321 c 0
 1071 1350 1074 1373 1074 1389 c 0
 1074 1427 1070 1449 1062 1456 c 0
 1059 1459 1054 1460 1049 1460 c 0
 1033 1460 1016 1448 998 1425 c 0
 978 1400 964 1366 957 1321 c 0
 949 1276 920 1172 871 1010 c 0
 782 681 707 418 646 221 c 0
 627 154 608 93 589 37 c 1
 593 100 597 167 601 238 c 0
 613 426 625 560 636 641 c 0
 641 696 649 775 660 877 c 0
 672 981 682 1059 687 1114 c 0
 703 1272 711 1369 711 1403 c 0
EndSplineSet
Validated: 37
EndChar

StartChar: X
Encoding: 88 88 56
Width: 1044
GlyphClass: 2
Flags: HW
VStem: -59 109<-40 56> 262 135<1275 1429>
LayerCount: 2
Fore
SplineSet
731 -37 m 0
 739 -41 747 -44 752 -45 c 0
 767 -45 783 -33 799 -10 c 0
 807 2 812 13 815 23 c 0
 818 34 819 45 819 57 c 0
 819 73 815 93 805 113 c 0
 787 153 757 247 713 399 c 0
 669 551 636 658 616 719 c 1
 624 733 631 741 635 745 c 0
 677 808 759 923 879 1090 c 1
 1071 1327 l 2
 1085 1341 1094 1354 1098 1366 c 2
 1104 1384 l 2
 1104 1391 1103 1396 1102 1399 c 0
 1101 1411 1097 1423 1092 1434 c 0
 1084 1448 1075 1453 1065 1452 c 0
 1057 1452 1047 1449 1036 1444 c 0
 1020 1436 1003 1421 987 1399 c 0
 934 1339 807 1162 606 868 c 2
 580 829 l 1
 565 874 l 2
 479 1161 423 1334 397 1391 c 0
 389 1414 379 1430 367 1438 c 0
 359 1443 351 1446 346 1446 c 0
 330 1446 313 1437 297 1419 c 0
 274 1396 262 1366 262 1329 c 0
 262 1315 265 1300 272 1284 c 2
 469 731 l 1
 410 646 321 522 199 358 c 1
 68 201 -5 114 -20 98 c 0
 -45 63 -58 38 -59 23 c 0
 -59 8 -56 -6 -49 -18 c 0
 -39 -38 -30 -49 -20 -49 c 0
 -15 -49 -8 -47 0 -43 c 0
 15 -36 31 -22 49 0 c 0
 63 15 127 99 242 252 c 0
 351 410 431 523 483 590 c 2
 510 625 l 1
 529 555 550 472 575 375 c 0
 600 281 622 204 641 145 c 0
 660 84 677 39 692 10 c 0
 704 -15 717 -30 731 -37 c 0
EndSplineSet
Validated: 9
EndChar

StartChar: Y
Encoding: 89 89 57
Width: 1044
GlyphClass: 2
Flags: HW
LayerCount: 2
Fore
SplineSet
994 1276 m 0
 1006 1296 1016 1315 1021 1333 c 0
 1024 1344 1025 1353 1025 1358 c 0
 1025 1373 1022 1386 1015 1397 c 0
 1011 1402 1005 1407 1000 1411 c 0
 986 1418 969 1417 949 1409 c 0
 938 1405 926 1396 913 1382 c 0
 900 1368 888 1351 876 1329 c 0
 865 1310 847 1284 822 1251 c 0
 799 1218 783 1194 773 1176 c 0
 743 1123 698 1048 638 952 c 0
 578 856 534 786 507 741 c 0
 480 696 463 670 458 662 c 0
 447 631 436 614 425 614 c 0
 422 617 420 637 417 672 c 0
 405 748 388 826 366 905 c 0
 365 906 352 950 329 1036 c 0
 326 1044 321 1065 313 1098 c 0
 305 1131 301 1156 298 1174 c 0
 290 1229 285 1279 282 1327 c 0
 281 1349 276 1366 271 1378 c 0
 266 1390 260 1398 252 1401 c 0
 244 1404 236 1405 228 1405 c 0
 217 1405 206 1402 194 1397 c 0
 180 1392 169 1383 159 1372 c 0
 149 1361 141 1345 134 1325 c 0
 130 1313 128 1298 128 1282 c 2
 128 1255 l 2
 132 1214 141 1172 153 1128 c 0
 165 1084 181 1033 200 973 c 0
 220 907 235 861 243 833 c 0
 251 805 266 752 288 674 c 0
 310 596 327 529 339 473 c 1
 242 312 144 167 44 37 c 0
 32 21 25 6 22 -8 c 0
 21 -13 19 -20 19 -27 c 0
 19 -43 25 -57 36 -68 c 0
 46 -76 56 -80 67 -80 c 0
 72 -80 78 -79 83 -78 c 0
 105 -71 123 -57 138 -35 c 0
 268 156 358 292 407 371 c 0
 509 532 591 664 654 768 c 0
 683 814 721 874 767 946 c 0
 819 1017 853 1067 870 1094 c 0
 887 1121 910 1154 937 1193 c 0
 964 1232 983 1260 994 1276 c 0
EndSplineSet
Validated: 9
EndChar

StartChar: Z
Encoding: 90 90 58
Width: 1044
GlyphClass: 2
Flags: HW
HStem: 18 129<100 783> 1284 141<286 850> 1289 112<373 889>
LayerCount: 2
Fore
SplineSet
810 82 m 0xa0
 811 86 812 90 812 94 c 0
 812 102 810 109 806 113 c 0
 798 124 782 131 757 135 c 0
 712 143 641 147 544 147 c 0
 424 147 294 143 153 133 c 2
 99 129 l 1
 130 172 l 2
 198 269 282 380 380 505 c 0
 478 630 579 756 682 882 c 0
 785 1008 864 1106 919 1174 c 0
 933 1190 953 1212 982 1239 c 0
 1011 1266 1035 1290 1054 1309 c 0
 1072 1327 1082 1340 1086 1348 c 0
 1087 1358 1089 1365 1089 1372 c 0
 1089 1384 1085 1396 1080 1407 c 0
 1077 1412 1074 1416 1071 1419 c 0
 1068 1422 1063 1423 1058 1423 c 0
 1057 1423 1017 1420 939 1415 c 0
 807 1405 701 1401 622 1401 c 2
 587 1401 l 2xa0
 557 1401 519 1405 475 1413 c 0
 431 1421 397 1425 372 1425 c 0
 347 1425 324 1416 303 1398 c 0
 282 1380 269 1360 265 1341 c 0
 264 1333 263 1326 263 1318 c 0
 263 1310 265 1303 268 1295 c 0
 271 1287 281 1284 296 1284 c 2
 300 1284 l 2xc0
 342 1285 427 1287 554 1289 c 0
 681 1291 794 1294 894 1298 c 1
 853 1253 l 2
 763 1149 626 983 443 754 c 0
 259 525 138 371 81 295 c 0
 39 239 8 196 -10 165 c 0
 -28 134 -39 112 -42 100 c 0
 -43 92 -44 83 -44 73 c 0
 -44 63 -42 52 -38 41 c 0
 -34 30 -30 22 -27 19 c 0
 -24 16 -18 14 -13 14 c 2
 -11 14 l 2
 68 17 131 18 179 18 c 0
 287 18 402 16 525 12 c 0
 648 8 713 6 720 6 c 0
 749 6 769 14 783 28 c 0
 797 42 806 60 810 82 c 0xa0
EndSplineSet
Validated: 9
EndChar

StartChar: bracketleft
Encoding: 91 91 59
Width: 1044
GlyphClass: 2
Flags: HW
HStem: -158 113<154 508> -142 97<155 641> 1585 130<535 547 970 1030>
LayerCount: 2
Fore
SplineSet
814 1714 m 2xa0
 758 1714 l 2
 684 1714 601 1713 510 1710 c 1
 483 1710 462 1703 447 1688 c 0
 427 1670 416 1649 416 1624 c 0
 416 1620 417 1614 418 1606 c 2
 416 1599 l 2
 412 1581 404 1547 390 1494 c 0
 376 1441 365 1394 355 1352 c 0
 315 1187 289 1078 277 1025 c 0
 265 972 255 925 248 883 c 1
 210 699 167 514 121 329 c 0
 75 144 41 16 19 -55 c 2
 13 -74 l 1
 13 -76 l 1
 3 -96 -2 -113 -2 -125 c 0
 -2 -133 1 -139 5 -143 c 0
 13 -151 30 -157 56 -158 c 0xa0
 101 -158 188 -153 318 -145 c 0
 353 -142 383 -141 406 -142 c 0x60
 429 -143 444 -143 449 -143 c 0
 500 -143 541 -146 572 -150 c 0
 576 -151 580 -152 585 -152 c 0
 590 -152 596 -150 603 -147 c 0
 610 -144 616 -140 621 -133 c 0
 633 -118 642 -100 646 -80 c 0
 649 -64 648 -51 644 -43 c 0
 640 -38 627 -35 607 -35 c 0
 597 -35 549 -37 463 -40 c 0
 377 -43 303 -45 242 -45 c 2
 154 -45 l 1
 168 16 199 148 248 349 c 0
 297 550 330 691 345 772 c 0
 370 883 391 978 411 1057 c 0
 431 1136 456 1235 487 1354 c 0
 518 1473 537 1552 547 1593 c 1
 619 1596 680 1597 728 1597 c 0
 834 1597 911 1593 959 1585 c 0
 962 1585 965 1585 970 1584 c 0
 975 1583 981 1584 988 1587 c 0
 1006 1594 1021 1609 1033 1634 c 0
 1038 1644 1042 1653 1045 1663 c 0
 1046 1668 1046 1673 1045 1677 c 0
 1045 1688 1043 1697 1039 1705 c 0
 1035 1713 1023 1716 1004 1716 c 0
 1003 1716 987 1716 958 1715 c 0
 929 1714 881 1714 814 1714 c 2xa0
EndSplineSet
Validated: 41
EndChar

StartChar: backslash
Encoding: 92 92 60
Width: 1044
GlyphClass: 2
Flags: HW
VStem: 653 145<-90 20 21 165>
LayerCount: 2
Fore
SplineSet
700 -92 m 0
 710 -97 719 -100 729 -100 c 0
 739 -100 748 -97 758 -92 c 0
 774 -84 788 -64 799 -31 c 0
 804 -12 807 5 807 20 c 0
 807 35 805 49 801 61 c 0
 690 389 598 681 526 938 c 0
 480 1095 433 1272 385 1470 c 0
 381 1486 375 1498 366 1506 c 0
 357 1514 347 1518 336 1518 c 0
 322 1518 307 1514 291 1507 c 0
 271 1497 256 1483 246 1464 c 0
 241 1452 238 1437 238 1421 c 0
 238 1411 239 1402 242 1391 c 0
 258 1321 311 1151 400 879 c 0
 489 607 543 438 561 371 c 0
 572 329 588 257 611 156 c 0
 634 55 648 -7 653 -29 c 0
 663 -59 678 -80 700 -92 c 0
EndSplineSet
Validated: 9
EndChar

StartChar: bracketright
Encoding: 93 93 61
Width: 1044
GlyphClass: 2
Flags: HW
HStem: -142 102<33 530> 1583 133<444 686> 1597 117<444 691>
LayerCount: 2
Fore
SplineSet
740 1714 m 2xa0
 685 1714 l 2xa0
 617 1714 553 1715 496 1716 c 2
 494 1716 l 2xc0
 472 1716 455 1711 443 1700 c 0
 429 1686 420 1671 415 1653 c 0
 411 1634 412 1615 419 1597 c 0xa0
 420 1592 423 1588 428 1586 c 0
 433 1584 438 1583 443 1583 c 0xc0
 447 1583 453 1584 458 1585 c 0
 511 1593 589 1597 691 1597 c 0
 739 1597 802 1596 881 1593 c 1
 822 1308 785 1126 768 1046 c 0
 751 966 728 871 701 762 c 1
 701 760 l 1
 679 679 647 538 603 337 c 0
 559 136 531 8 519 -45 c 1
 443 -45 l 2
 382 -45 308 -43 223 -40 c 0
 138 -37 91 -35 83 -35 c 0
 60 -35 43 -39 33 -49 c 0
 23 -59 14 -72 9 -90 c 0
 5 -112 4 -129 7 -143 c 0
 10 -148 16 -152 27 -152 c 0
 30 -152 35 -151 42 -150 c 0
 82 -145 125 -141 173 -142 c 0
 221 -143 263 -144 300 -145 c 0
 424 -152 509 -157 554 -158 c 0
 581 -158 602 -152 617 -142 c 0
 632 -132 641 -118 644 -102 c 0
 647 -91 648 -80 648 -66 c 2
 648 -61 l 1
 652 -43 l 2
 663 28 688 156 728 340 c 0
 768 524 811 709 857 893 c 0
 883 990 908 1095 933 1210 c 2
 996 1505 l 2
 1007 1557 1014 1587 1015 1597 c 2
 1015 1599 l 1
 1019 1612 l 1
 1019 1616 l 1
 1023 1622 l 2
 1028 1630 1033 1640 1037 1651 c 0
 1038 1658 1039 1664 1039 1672 c 0
 1039 1680 1036 1687 1031 1694 c 0
 1024 1705 1009 1710 984 1710 c 1
 897 1713 815 1714 740 1714 c 2xa0
EndSplineSet
Validated: 41
EndChar

StartChar: asciicircum
Encoding: 94 94 62
Width: 1044
GlyphClass: 2
Flags: HW
LayerCount: 2
Fore
SplineSet
890 1257 m 0
 893 1256 896 1255 899 1255 c 0
 902 1255 907 1258 914 1262 c 0
 939 1272 962 1289 982 1315 c 0
 993 1327 998 1342 998 1358 c 0
 998 1369 995 1380 988 1391 c 0
 966 1426 941 1464 914 1506 c 0
 887 1548 866 1580 852 1603 c 0
 838 1626 819 1660 794 1708 c 0
 769 1756 741 1815 708 1886 c 1
 708 1888 l 2
 705 1896 698 1903 687 1907 c 0
 679 1910 671 1911 662 1911 c 0
 653 1911 644 1910 636 1907 c 0
 617 1903 601 1894 589 1880 c 0
 522 1806 456 1737 391 1674 c 0
 326 1611 267 1554 213 1503 c 0
 159 1452 116 1410 85 1376 c 0
 60 1350 47 1326 46 1303 c 0
 46 1299 47 1295 48 1292 c 0
 55 1270 65 1255 79 1247 c 0
 83 1246 86 1245 89 1244 c 0
 92 1243 96 1245 101 1249 c 0
 116 1259 142 1281 179 1315 c 0
 189 1325 197 1332 204 1337 c 0
 240 1371 274 1403 307 1431 c 0
 340 1459 367 1481 387 1497 c 0
 407 1513 434 1538 468 1571 c 0
 502 1604 542 1645 587 1696 c 2
 613 1722 l 1
 630 1688 l 2
 664 1612 691 1556 711 1521 c 0
 731 1486 767 1429 822 1348 c 0
 827 1340 833 1332 837 1327 c 0
 862 1290 879 1267 890 1257 c 0
EndSplineSet
Validated: 9
EndChar

StartChar: underscore
Encoding: 95 95 63
Width: 1044
GlyphClass: 2
Flags: HW
HStem: -178 123<94 143 894 949>
LayerCount: 2
Fore
SplineSet
69 -147 m 0
 69 -159 72 -168 79 -172 c 0
 86 -176 96 -178 110 -178 c 0
 165 -178 426 -177 894 -174 c 0
 917 -174 936 -168 950 -154 c 0
 961 -143 969 -126 974 -104 c 0
 977 -85 975 -71 970 -61 c 0
 967 -54 955 -51 933 -52 c 0
 911 -53 851 -54 751 -55 c 0
 627 -58 525 -59 444 -59 c 0
 363 -59 264 -58 147 -55 c 1
 143 -55 l 2
 121 -55 105 -62 94 -74 c 0
 84 -85 77 -101 73 -121 c 0
 70 -131 69 -139 69 -147 c 0
EndSplineSet
Validated: 9
EndChar

StartChar: grave
Encoding: 96 96 64
Width: 1044
GlyphClass: 2
Flags: HW
VStem: 340 365
LayerCount: 2
Fore
SplineSet
633 1303 m 0
 637 1303 641 1304 645 1305 c 0
 665 1308 681 1315 692 1329 c 0
 699 1337 704 1348 705 1360 c 0
 705 1365 703 1371 702 1378 c 0
 698 1400 686 1418 666 1430 c 0
 650 1441 630 1456 609 1474 c 0
 588 1492 572 1508 561 1520 c 0
 502 1583 470 1617 465 1622 c 0
 455 1630 444 1633 432 1632 c 0
 427 1632 421 1631 414 1630 c 0
 391 1625 371 1614 356 1599 c 0
 345 1581 340 1563 340 1544 c 0
 340 1521 345 1503 356 1491 c 0
 371 1476 390 1460 413 1442 c 0
 436 1424 454 1410 469 1399 c 0
 484 1388 522 1361 582 1319 c 0
 600 1308 617 1303 633 1303 c 0
EndSplineSet
Validated: 9
EndChar

StartChar: a
Encoding: 97 97 65
Width: 1031
GlyphClass: 2
Flags: HW
LayerCount: 2
Fore
SplineSet
902 -29 m 1025xc0
455 922 m 0
 426 899 400 875 378 849 c 0
 353 820 337 793 332 771 c 0
 327 749 334 729 352 712 c 0
 363 702 374 697 387 697 c 0
 413 697 446 719 486 763 c 1
 508 784 542 809 587 838 c 0
 612 855 640 869 672 880 c 0
 704 891 732 896 758 896 c 0
 764 896 770 895 776 895 c 0
 815 892 843 883 858 871 c 0
 877 858 892 840 903 816 c 0
 911 798 914 783 913 771 c 0
 912 759 910 747 907 735 c 0xe0
 904 723 900 710 894 697 c 2
 893 698 892 695 889 687 c 1
 823 663 787 649 781 647 c 0
 765 642 727 636 668 628 c 0
 658 625 610 610 525 583 c 0
 514 580 473 559 402 522 c 0
 385 513 353 487 305 444 c 0
 273 415 247 379 229 337 c 0
 212 298 200 261 192 227 c 1
 196 178 208 129 230 82 c 0
 252 35 282 -1 321 -24 c 0
 358 -46 393 -57 426 -57 c 0
 502 -57 558 -45 596 -21 c 0
 643 9 695 60 752 132 c 2
 760 132 770 146 784 173 c 1
 782 85 783 10 787 -51 c 2
 787 -69 808 -78 850 -78 c 0
 866 -78 880 -53 891 -4 c 0xd0
 896 18 901 44 904 75 c 0
 916 177 925 244 933 278 c 0
 933 280 941 313 957 375 c 0
 973 437 983 482 989 508 c 0
 995 534 999 549 1000 554 c 0xe0
 1039 728 1042 861 1009 953 c 0
 988 1011 924 1042 818 1044 c 0
 812 1044 807 1044 801 1044 c 0
 753 1044 708 1037 665 1024 c 0
 577 998 507 964 455 922 c 0
636 140 m 0
 587 102 540 83 494 83 c 0
 455 83 424 96 399 123 c 0
 371 150 349 196 333 261 c 2
 331 271 l 1
 338 280 l 2
 427 393 589 461 824 484 c 2
 846 486 l 1
 840 463 l 2
 825 411 806 364 783 321 c 0
 760 278 735 242 710 213 c 0
 687 184 662 160 636 140 c 0
EndSplineSet
EndChar

StartChar: b
Encoding: 98 98 66
Width: 1044
GlyphClass: 2
Flags: HW
HStem: -29 152<313 601> 870 133<517 730>
VStem: 94 123<-6 95> 809 141<449 786>
LayerCount: 2
Fore
SplineSet
928 539 m 0
 942 599 949 654 950 705 c 0
 950 813 920 892 860 944 c 0
 816 982 760 1003 692 1004 c 0
 603 1004 520 972 444 911 c 0
 429 906 413 895 397 877 c 1
 424 1023 451 1156 477 1278 c 0
 491 1363 505 1430 520 1481 c 0
 524 1501 526 1518 526 1531 c 0
 526 1544 524 1554 520 1559 c 0
 513 1569 504 1573 492 1573 c 0
 472 1573 454 1566 442 1554 c 0
 430 1542 420 1517 412 1479 c 0
 386 1359 337 1136 266 811 c 0
 192 486 137 236 100 61 c 0
 96 45 94 30 94 17 c 0
 94 4 97 -5 102 -12 c 0
 107 -19 118 -23 133 -23 c 0
 152 -23 168 -17 182 -6 c 0
 196 5 207 24 217 53 c 1
 221 52 225 66 229 96 c 1
 239 70 248 59 258 63 c 1
 311 3 382 -28 469 -29 c 0
 500 -29 533 -21 567 -6 c 0
 601 9 636 32 670 63 c 0
 705 94 740 132 773 176 c 0
 806 220 837 273 864 335 c 0
 891 397 913 465 928 539 c 0
743 813 m 0
 787 767 809 704 809 623 c 0
 809 588 805 551 797 514 c 0
 771 395 728 301 668 231 c 0
 611 159 542 123 461 123 c 0
 416 123 377 129 346 143 c 0
 310 157 281 181 258 215 c 2
 252 223 l 1
 298 411 340 591 375 760 c 1
 381 766 l 2
 460 836 536 870 610 870 c 0
 663 870 708 851 743 813 c 0
EndSplineSet
Validated: 9
EndChar

StartChar: c
Encoding: 99 99 67
Width: 1044
GlyphClass: 2
Flags: HW
HStem: -63 139<334 590> 938 141<561 744>
VStem: 133 143<140 474> 768 143<709 916>
LayerCount: 2
Fore
SplineSet
862 1008 m 0
 829 1056 786 1079 733 1079 c 0
 639 1079 552 1043 473 971 c 0
 432 933 392 886 352 831 c 0
 310 776 270 710 235 631 c 0
 200 552 171 465 149 369 c 0
 138 324 133 280 133 238 c 0
 133 174 145 117 168 66 c 0
 186 26 213 -6 250 -29 c 0
 290 -54 336 -64 389 -63 c 0
 435 -63 479 -58 520 -47 c 0
 561 -35 598 -18 629 4 c 0
 693 45 741 90 772 141 c 0
 794 176 805 205 805 225 c 0
 805 233 803 241 799 246 c 0
 795 251 789 256 782 260 c 0
 772 265 765 268 759 268 c 0
 753 268 746 267 738 264 c 0
 730 261 722 254 710 242 c 0
 698 230 686 212 674 190 c 0
 659 159 630 131 586 106 c 0
 549 86 507 76 459 76 c 2
 440 76 l 2
 384 80 341 103 311 145 c 0
 288 179 276 225 276 281 c 0
 276 330 285 387 303 453 c 0
 322 524 345 588 371 645 c 0
 394 702 417 748 442 783 c 0
 467 818 492 847 518 872 c 0
 544 897 568 914 591 924 c 0
 614 934 635 938 655 938 c 0
 689 938 715 928 731 909 c 0
 739 901 746 893 751 884 c 0
 756 875 759 863 761 849 c 0
 763 835 764 823 764 813 c 0
 765 773 767 750 768 743 c 0
 768 725 770 712 774 702 c 0
 778 692 782 687 786 686 c 0
 791 683 798 682 805 682 c 0
 815 682 826 685 838 690 c 0
 865 702 885 722 897 748 c 0
 907 770 911 796 911 829 c 1
 911 834 l 2
 912 901 896 959 862 1008 c 0
EndSplineSet
Validated: 41
EndChar

StartChar: d
Encoding: 100 100 68
Width: 1044
GlyphClass: 2
Flags: HW
HStem: -29 156<225 437> 893 154<369 610>
VStem: 28 127<200 611> 583 134<-0 193>
LayerCount: 2
Fore
SplineSet
28 340 m 0
 28 274 35 219 49 175 c 0
 63 131 84 93 109 62 c 0
 134 31 163 9 194 -6 c 0
 225 -21 257 -29 290 -29 c 0
 349 -29 399 -13 443 20 c 0
 465 35 484 52 500 69 c 0
 516 86 532 105 548 127 c 0
 564 137 581 160 597 195 c 1
 593 153 590 122 587 106 c 0
 584 87 583 69 583 53 c 0
 583 30 586 12 591 -2 c 0
 594 -9 597 -13 601 -16 c 0
 605 -19 610 -20 615 -20 c 0
 620 -20 627 -19 634 -18 c 0
 652 -14 666 -7 677 4 c 0
 691 16 702 33 710 55 c 0
 714 65 716 78 717 95 c 0
 718 112 718 133 718 158 c 0
 718 183 721 225 729 285 c 0
 737 345 748 415 763 494 c 1
 763 489 763 489 763 496 c 0
 789 613 830 786 887 1013 c 0
 944 1240 983 1396 1005 1481 c 0
 1012 1507 1016 1527 1017 1542 c 0
 1017 1550 1016 1556 1013 1559 c 0
 1008 1569 997 1574 982 1575 c 0
 957 1575 937 1564 919 1544 c 0
 904 1526 891 1500 880 1466 c 0
 857 1394 813 1218 749 938 c 1
 739 964 730 974 720 967 c 1
 668 1020 596 1047 505 1047 c 0
 439 1046 376 1023 316 981 c 0
 253 939 200 880 154 806 c 0
 108 732 75 648 56 555 c 0
 37 477 28 406 28 340 c 0
403 134 m 0
 385 129 366 127 347 127 c 2
 345 127 l 2
 311 127 280 136 253 152 c 0
 218 171 191 202 175 246 c 0
 161 281 155 324 155 374 c 0
 155 424 163 481 179 547 c 0
 194 607 217 662 247 713 c 0
 277 764 313 806 355 839 c 0
 397 872 444 890 493 893 c 1
 501 893 l 2
 549 893 590 875 624 838 c 0
 658 801 682 754 697 698 c 2
 699 692 l 1
 695 673 690 648 682 617 c 0
 674 586 670 564 667 549 c 0
 663 534 648 463 622 336 c 0
 618 331 612 322 606 312 c 0
 600 302 594 293 589 285 c 0
 584 277 574 264 562 248 c 0
 550 232 539 219 529 210 c 0
 519 201 508 190 494 178 c 0
 480 166 466 157 452 151 c 0
 438 145 421 139 403 134 c 0
EndSplineSet
Validated: 5
EndChar

StartChar: e
Encoding: 101 101 69
Width: 1044
GlyphClass: 2
Flags: HW
HStem: -57 123<318 575> 932 135<514 714>
VStem: 135 125<121 358>
LayerCount: 2
Fore
SplineSet
760 123 m 0
 790 160 805 190 805 215 c 0
 805 230 799 243 788 254 c 0
 781 261 774 264 765 264 c 0
 756 264 746 261 735 254 c 0
 719 243 700 226 678 201 c 0
 663 183 635 157 594 123 c 0
 572 105 547 91 518 81 c 0
 489 71 463 66 438 66 c 0
 401 66 369 74 342 90 c 0
 316 105 298 126 286 153 c 0
 274 180 266 208 262 238 c 0
 261 252 260 267 260 283 c 0
 260 299 261 323 264 354 c 1
 299 364 336 377 373 395 c 0
 415 414 450 430 478 444 c 0
 506 458 540 475 580 494 c 0
 661 534 727 573 780 614 c 0
 807 634 835 664 864 702 c 0
 893 740 908 775 909 805 c 0
 906 853 892 897 866 939 c 0
 840 981 810 1012 776 1034 c 0
 742 1056 709 1067 676 1067 c 0
 624 1067 573 1054 524 1028 c 0
 475 1002 429 964 387 915 c 0
 339 866 295 804 255 730 c 0
 215 656 184 572 164 479 c 0
 145 396 135 321 135 254 c 0
 135 187 146 129 166 80 c 0
 204 -9 277 -54 383 -57 c 2
 401 -57 l 2
 488 -57 559 -41 612 -8 c 0
 641 10 666 29 688 49 c 0
 711 68 735 93 760 123 c 0
487 874 m 0
 531 912 573 932 614 932 c 0
 652 932 686 917 715 887 c 0
 741 858 760 811 774 745 c 2
 778 731 l 1
 766 721 l 2
 690 654 546 588 336 522 c 2
 295 510 l 1
 305 553 l 2
 320 605 338 652 360 694 c 0
 380 736 402 772 422 801 c 0
 442 830 464 854 487 874 c 0
EndSplineSet
Validated: 9
EndChar

StartChar: f
Encoding: 102 102 70
Width: 1044
GlyphClass: 2
Flags: HMW
HStem: -33 129 864 133<265 306> 877 125 1440 127
LayerCount: 2
Fore
SplineSet
605 -10 m 0xd0
 619 5 628 23 632 45 c 0
 633 52 634 59 634 66 c 0
 634 73 632 79 628 84 c 0
 623 92 610 96 591 96 c 0
 546 96 477 98 386 102 c 1
 379 90 373 90 366 104 c 1
 366 100 366 109 366 129 c 0
 366 134 371 171 382 238 c 0
 420 463 446 612 458 685 c 0
 470 758 481 820 491 872 c 1
 533 873 577 876 622 877 c 0
 711 881 768 883 794 883 c 0
 814 883 830 889 841 902 c 0
 852 915 860 933 865 956 c 0
 868 974 866 987 861 997 c 0
 858 1002 848 1006 830 1006 c 0
 722 1018 617 1016 515 1001 c 1xb0
 516 1026 517 1035 517 1030 c 1
 520 1052 524 1078 531 1108 c 0
 551 1206 599 1287 673 1348 c 0
 748 1409 840 1440 949 1440 c 0
 960 1440 972 1446 985 1460 c 0
 998 1474 1008 1493 1013 1516 c 0
 1014 1523 1015 1529 1015 1536 c 0
 1015 1543 1013 1548 1009 1552 c 0
 1001 1560 988 1566 970 1567 c 0
 918 1567 867 1561 818 1550 c 0
 772 1539 728 1523 686 1500 c 0
 644 1477 606 1449 572 1415 c 0
 538 1381 508 1339 482 1288 c 0
 456 1237 437 1181 423 1118 c 0
 415 1076 407 1035 402 997 c 1
 306 997 l 2
 287 997 273 991 263 979 c 0
 252 967 245 949 241 926 c 0
 238 915 237 905 237 897 c 0
 237 885 240 876 245 871 c 0
 250 866 259 864 271 864 c 0
 304 864 330 865 349 866 c 1
 359 877 368 878 378 868 c 1
 366 793 341 640 304 408 c 0
 296 353 289 311 283 282 c 0
 277 253 272 226 270 203 c 0
 268 180 264 154 257 127 c 0
 256 107 254 99 251 106 c 0
 225 107 200 109 175 110 c 0
 150 111 135 111 127 112 c 2
 116 113 l 2
 93 113 74 106 62 94 c 0
 48 80 39 62 34 39 c 0
 31 29 30 20 30 12 c 0
 30 4 32 -4 36 -12 c 0
 41 -23 55 -29 75 -29 c 1
 75 -45 76 -45 77 -29 c 1
 132 -34 214 -37 325 -37 c 0
 362 -37 437 -36 552 -33 c 1
 552 -33 l 1
 574 -33 591 -25 605 -10 c 0xd0
EndSplineSet
Validated: 37
EndChar

StartChar: g
Encoding: 103 103 71
Width: 1044
GlyphClass: 2
Flags: HW
HStem: -598 121<139 428> -63 154<375 591> 895 147<606 937>
VStem: 214 123<127 501>
LayerCount: 2
Fore
SplineSet
1003 823 m 0
 1006 834 1007 843 1006 850 c 0
 1005 857 1004 862 1002 866 c 0
 1000 870 997 873 993 874 c 0
 979 890 966 895 952 887 c 1
 974 910 986 923 989 926 c 0
 989 940 989 940 989 928 c 1
 1000 943 1005 960 1005 979 c 0
 1005 990 1003 997 999 1001 c 0
 979 1017 956 1029 933 1034 c 0
 910 1039 868 1042 808 1042 c 0
 759 1042 713 1036 669 1023 c 0
 625 1010 582 988 539 958 c 0
 496 928 456 891 420 847 c 0
 384 803 351 747 321 680 c 0
 291 613 266 538 247 453 c 0
 227 326 215 243 214 203 c 0
 214 146 221 97 235 59 c 0
 251 14 278 -19 315 -39 c 0
 344 -55 379 -63 421 -63 c 0
 530 -63 620 -19 688 68 c 1
 710 79 731 108 753 154 c 1
 745 102 736 65 726 45 c 0
 708 -27 695 -78 685 -107 c 0
 662 -178 628 -242 583 -299 c 0
 538 -356 487 -400 430 -431 c 0
 373 -462 314 -477 253 -477 c 0
 228 -477 206 -472 186 -461 c 0
 166 -450 149 -440 136 -430 c 0
 123 -420 113 -415 108 -414 c 0
 105 -414 103 -413 102 -412 c 0
 94 -412 84 -417 73 -428 c 0
 57 -443 46 -461 42 -483 c 0
 39 -490 38 -495 38 -498 c 0
 38 -501 38 -503 39 -506 c 0
 40 -509 40 -511 40 -514 c 0
 43 -518 45 -521 46 -522 c 2
 53 -528 l 2
 56 -529 60 -533 66 -538 c 0
 72 -543 76 -546 77 -547 c 0
 95 -559 120 -571 151 -582 c 0
 182 -593 216 -598 251 -598 c 0
 338 -598 421 -572 499 -520 c 0
 540 -493 579 -461 614 -423 c 0
 649 -385 682 -339 711 -284 c 0
 740 -229 766 -168 786 -102 c 0
 811 -17 836 78 863 186 c 0
 890 294 919 427 952 584 c 0
 970 671 987 751 1003 823 c 0
575 113 m 0
 541 98 505 90 470 90 c 0
 440 90 415 99 395 115 c 0
 373 133 358 157 350 188 c 0
 342 218 337 252 337 290 c 0
 337 328 342 367 350 407 c 0
 358 447 366 488 376 532 c 1
 390 581 407 627 427 668 c 0
 447 709 470 742 494 769 c 0
 518 796 544 819 571 838 c 0
 598 857 624 871 649 880 c 0
 674 889 697 894 722 895 c 1
 737 895 l 2
 786 895 837 884 890 864 c 1
 898 864 l 1
 937 856 l 1
 915 825 l 2
 905 813 899 799 896 784 c 0
 833 518 801 384 800 381 c 0
 790 355 779 330 765 305 c 0
 753 280 737 255 718 229 c 0
 699 203 678 181 655 161 c 0
 632 141 605 125 575 113 c 0
EndSplineSet
Validated: 5
EndChar

StartChar: h
Encoding: 104 104 72
Width: 1044
GlyphClass: 2
Flags: HW
HStem: 848 178<630 775>
VStem: 801 139<561 860>
LayerCount: 2
Fore
SplineSet
915 655 m 0
 931 729 940 793 940 846 c 0
 940 875 938 901 934 926 c 0
 927 959 914 983 895 1000 c 0
 876 1017 849 1026 815 1026 c 0
 770 1026 728 1020 688 1008 c 0
 653 996 622 979 595 959 c 0
 568 939 544 918 524 895 c 0
 504 872 486 847 471 821 c 0
 451 787 430 752 408 715 c 1
 476 1080 526 1341 557 1499 c 0
 562 1528 561 1548 553 1559 c 0
 546 1569 536 1573 522 1573 c 1
 521 1589 519 1589 518 1573 c 1
 502 1573 486 1565 471 1550 c 0
 456 1535 445 1512 438 1481 c 0
 368 1157 311 877 266 641 c 0
 256 590 233 491 194 342 c 0
 155 193 127 90 111 31 c 0
 107 17 104 6 104 -4 c 0
 104 -14 107 -22 111 -29 c 0
 115 -34 120 -38 125 -40 c 0
 130 -42 136 -43 143 -43 c 1
 144 -43 146 -44 147 -45 c 0
 165 -45 185 -39 205 -25 c 0
 225 -11 240 8 248 33 c 0
 267 94 280 139 287 167 c 0
 294 195 301 228 310 268 c 0
 319 308 327 341 334 367 c 0
 337 377 340 390 345 407 c 0
 350 424 353 436 354 445 c 0
 355 454 359 466 364 481 c 0
 369 496 375 516 385 541 c 0
 395 566 406 590 419 616 c 0
 432 642 448 669 468 697 c 0
 488 725 508 750 531 771 c 0
 554 792 580 810 611 825 c 0
 642 840 675 848 709 848 c 2
 711 848 l 2
 740 848 761 837 776 815 c 0
 792 792 801 757 801 709 c 0
 801 661 793 601 777 530 c 0
 761 459 740 369 711 258 c 0
 685 147 668 73 661 35 c 0
 660 27 659 19 659 12 c 0
 659 -2 663 -13 668 -23 c 0
 678 -38 690 -46 705 -47 c 0
 721 -47 739 -38 758 -20 c 0
 778 0 793 30 801 68 c 0
 812 114 829 203 852 333 c 0
 875 463 896 570 915 655 c 0
EndSplineSet
Validated: 9
EndChar

StartChar: i
Encoding: 105 105 73
Width: 1044
GlyphClass: 2
Flags: HMW
HStem: -35 127 831 125 1190 266
VStem: 644 256
LayerCount: 2
Fore
SplineSet
708 1413 m 0
 664 1378 643 1335 644 1284 c 0
 644 1261 648 1241 658 1223 c 0
 666 1211 676 1202 686 1197 c 0
 696 1192 708 1190 722 1190 c 2
 734 1190 l 2
 774 1195 808 1211 837 1238 c 0
 866 1265 884 1297 894 1335 c 0
 897 1347 898 1359 898 1370 c 0
 898 1390 894 1409 884 1425 c 0
 870 1445 848 1457 818 1458 c 0
 815 1458 813 1457 810 1456 c 0
 776 1453 742 1439 708 1413 c 0
151 -25 m 0
 154 -32 163 -35 179 -35 c 0
 235 -35 348 -33 519 -29 c 0
 687 -25 781 -23 801 -24 c 0
 821 -25 836 -19 848 -7 c 0
 860 5 868 21 873 43 c 0
 876 55 878 65 877 70 c 0
 876 75 874 80 872 85 c 0
 870 90 861 92 845 92 c 2
 603 92 l 1
 623 222 639 318 650 381 c 0
 662 444 679 519 700 606 c 0
 721 693 745 781 771 868 c 0
 775 884 775 905 771 928 c 0
 770 936 766 943 760 948 c 0
 754 953 744 956 732 956 c 1
 732 956 l 1
 675 956 l 2
 611 956 540 952 464 944 c 1
 462 944 l 2
 448 944 437 939 429 928 c 0
 418 914 412 896 409 874 c 0
 408 867 407 861 407 856 c 0
 407 851 408 845 411 838 c 0
 415 831 421 827 431 827 c 2
 433 827 l 1
 468 827 l 2
 483 827 502 828 526 829 c 0
 550 830 571 831 587 831 c 0
 603 831 616 830 624 827 c 0
 631 808 638 806 646 821 c 1
 643 796 641 788 638 795 c 1
 635 784 625 742 609 668 c 0
 580 536 562 445 552 397 c 0
 544 355 536 312 529 270 c 0
 522 228 512 168 497 92 c 1
 222 92 l 2
 202 92 187 87 177 76 c 0
 166 64 158 47 151 27 c 0
 148 16 146 6 146 -3 c 0
 146 -12 148 -20 151 -25 c 0
EndSplineSet
Validated: 37
EndChar

StartChar: j
Encoding: 106 106 74
Width: 1044
GlyphClass: 2
Flags: HW
HStem: -588 135<26 310> 813 139<371 435 728 760> 1184 264<836 978>
VStem: 790 248<1245 1401>
LayerCount: 2
Fore
SplineSet
833 1192 m 0
 844 1187 858 1184 876 1184 c 0
 911 1184 944 1198 974 1225 c 0
 1004 1252 1023 1285 1033 1325 c 0
 1036 1339 1037 1351 1037 1362 c 0
 1037 1382 1032 1401 1021 1417 c 0
 1007 1437 985 1448 955 1448 c 0
 917 1448 882 1436 849 1413 c 0
 820 1393 802 1364 794 1329 c 0
 790 1313 789 1298 790 1284 c 0
 790 1261 794 1241 802 1223 c 0
 809 1209 819 1199 833 1192 c 0
339 -395 m 0
 264 -433 179 -453 83 -453 c 0
 71 -453 57 -461 41 -478 c 0
 25 -495 14 -515 9 -537 c 0
 8 -544 7 -550 7 -557 c 0
 7 -564 9 -569 13 -573 c 0
 21 -581 34 -587 50 -588 c 0
 88 -588 126 -586 164 -581 c 0
 202 -576 240 -567 280 -555 c 0
 317 -543 351 -528 384 -512 c 0
 417 -496 449 -473 481 -446 c 0
 513 -419 542 -388 568 -354 c 0
 594 -320 618 -279 638 -231 c 0
 658 -183 675 -131 687 -74 c 0
 710 31 740 178 775 365 c 0
 813 553 837 665 845 700 c 0
 849 719 854 737 859 752 c 0
 869 782 882 820 898 866 c 0
 901 880 901 899 898 922 c 0
 897 930 893 937 887 942 c 0
 881 947 872 950 861 950 c 2
 859 950 l 2
 837 951 809 952 773 952 c 0
 740 952 685 951 609 948 c 0
 533 945 475 943 435 940 c 0
 415 940 398 935 385 923 c 0
 372 911 363 898 359 883 c 0
 356 873 356 865 357 860 c 0
 357 849 360 841 364 833 c 0
 368 825 373 820 378 817 c 0
 383 814 391 813 401 813 c 0
 411 813 444 812 497 811 c 0
 625 810 702 810 728 813 c 1
 739 797 750 797 761 815 c 1
 715 621 682 477 663 381 c 0
 644 285 626 191 610 98 c 0
 594 5 586 -47 583 -59 c 0
 572 -114 554 -164 529 -208 c 0
 504 -252 476 -289 444 -319 c 0
 412 -349 377 -375 339 -395 c 0
EndSplineSet
Validated: 41
EndChar

StartChar: k
Encoding: 107 107 75
Width: 1044
GlyphClass: 2
Flags: HMW
VStem: 684 119
LayerCount: 2
Fore
SplineSet
717 -45 m 0
 725 -45 738 -39 754 -27 c 0
 783 -5 800 30 805 76 c 0
 802 92 787 130 758 190 c 0
 731 256 699 337 664 434 c 0
 630 527 607 598 596 649 c 2
 592 664 l 1
 769 828 873 927 903 961 c 0
 937 990 953 1013 952 1032 c 0
 952 1044 950 1057 946 1069 c 0
 941 1084 935 1092 928 1092 c 0
 923 1092 916 1089 909 1085 c 0
 895 1080 880 1068 862 1049 c 0
 847 1037 782 983 666 887 c 1
 560 783 470 693 399 618 c 2
 346 567 l 1
 442 1000 508 1306 543 1483 c 0
 546 1493 547 1501 547 1509 c 0
 547 1525 545 1538 541 1548 c 0
 534 1564 523 1573 508 1573 c 0
 489 1573 471 1564 455 1548 c 0
 439 1532 427 1505 422 1470 c 0
 414 1430 393 1330 362 1169 c 0
 296 867 235 596 176 354 c 0
 143 213 117 111 98 47 c 0
 94 36 92 27 92 20 c 0
 92 4 94 -8 98 -18 c 0
 108 -36 121 -45 137 -45 c 0
 140 -45 142 -46 145 -47 c 0
 164 -47 183 -39 199 -23 c 0
 218 -7 232 24 240 66 c 0
 247 91 256 137 268 207 c 0
 279 277 291 337 305 389 c 2
 309 408 l 1
 319 408 l 1
 506 580 l 1
 510 535 l 2
 514 497 525 449 543 393 c 0
 559 333 577 279 596 231 c 0
 614 186 632 140 651 92 c 0
 670 46 681 18 684 8 c 0
 689 -14 695 -28 702 -35 c 0
 706 -42 712 -45 717 -45 c 0
EndSplineSet
Validated: 41
EndChar

StartChar: l
Encoding: 108 108 76
Width: 1044
GlyphClass: 2
Flags: HMW
HStem: 33 137 39 133 1419 127
LayerCount: 2
Fore
SplineSet
898 146 m 0xa0
 894 152 880 156 857 156 c 0
 849 156 823 157 779 158 c 0
 703 161 640 162 591 162 c 1
 610 278 625 362 636 414 c 0
 654 505 675 608 701 723 c 0
 727 838 764 989 811 1175 c 0
 858 1361 890 1477 906 1522 c 0
 906 1540 906 1540 906 1524 c 1
 906 1525 905 1526 904 1526 c 0
 900 1545 896 1547 892 1532 c 1
 891 1544 890 1551 890 1552 c 0
 853 1553 809 1553 758 1550 c 0
 707 1547 644 1546 570 1546 c 0
 555 1546 542 1541 532 1529 c 0
 522 1517 515 1503 511 1485 c 0
 508 1474 507 1464 508 1456 c 0
 509 1448 510 1441 512 1435 c 0
 514 1429 517 1424 521 1422 c 0
 525 1420 531 1419 536 1419 c 0
 621 1419 682 1420 720 1423 c 1
 732 1441 744 1442 755 1427 c 1
 706 1233 658 1031 613 821 c 0
 580 672 548 506 515 322 c 0
 510 287 500 235 488 168 c 1xa0
 360 171 269 172 216 172 c 0
 196 172 180 166 169 154 c 0
 155 139 146 119 142 96 c 0
 139 86 138 79 138 71 c 0
 138 63 139 56 142 49 c 0
 146 42 157 39 173 39 c 0x60
 217 39 430 37 812 33 c 0
 841 33 862 39 876 53 c 0
 890 67 898 84 902 106 c 0
 903 114 904 120 904 123 c 0
 904 133 902 140 898 146 c 0xa0
906 1524 m 1024
EndSplineSet
Validated: 37
EndChar

StartChar: m
Encoding: 109 109 77
Width: 1044
GlyphClass: 2
Flags: HMW
HStem: 852 193
VStem: 551 82 868 133
LayerCount: 2
Fore
SplineSet
458 835 m 0
 476 847 493 852 508 852 c 0
 515 852 521 851 526 848 c 0
 542 840 551 822 551 793 c 0
 551 767 539 693 514 571 c 0
 511 538 508 523 504 524 c 1
 492 463 471 378 442 269 c 0
 413 160 396 85 389 41 c 0
 386 18 385 3 385 -4 c 0
 385 -19 386 -29 389 -33 c 0
 394 -41 404 -45 416 -45 c 2
 418 -45 l 2
 419 -45 422 -46 426 -47 c 0
 437 -47 448 -43 459 -33 c 0
 466 -28 472 -18 477 -4 c 0
 482 8 488 26 492 49 c 0
 499 94 518 180 549 307 c 0
 580 434 602 537 614 616 c 1
 647 686 681 742 715 784 c 0
 753 829 791 852 831 852 c 2
 834 852 l 2
 845 852 853 848 860 838 c 0
 865 830 868 817 868 799 c 0
 868 789 867 778 866 766 c 0
 862 726 853 676 839 616 c 0
 825 556 809 491 793 420 c 0
 777 337 759 270 743 219 c 0
 731 163 721 108 713 55 c 0
 710 36 708 20 707 6 c 0
 707 -14 710 -28 715 -33 c 0
 720 -38 725 -42 730 -44 c 0
 735 -46 739 -47 743 -47 c 2
 756 -47 l 2
 763 -47 769 -46 774 -44 c 0
 779 -42 786 -38 793 -31 c 0
 800 -24 806 -12 812 4 c 0
 818 20 824 43 829 70 c 0
 845 159 866 249 889 342 c 0
 937 540 971 708 991 846 c 0
 998 887 1001 919 1001 944 c 0
 1001 992 997 1022 987 1036 c 0
 983 1041 977 1044 969 1044 c 0
 861 1044 764 980 678 850 c 1
 663 843 649 820 635 780 c 1
 638 850 639 891 639 903 c 0
 639 947 636 982 629 1008 c 0
 624 1033 615 1044 604 1044 c 0
 521 1044 443 980 369 852 c 1
 336 814 303 758 270 686 c 1
 290 765 310 828 328 874 c 2
 345 927 l 2
 353 950 358 966 362 977 c 0
 370 1003 375 1024 375 1040 c 0
 375 1056 370 1068 360 1073 c 0
 356 1076 351 1076 346 1075 c 2
 344 1075 l 1
 342 1075 l 2
 326 1075 309 1067 291 1051 c 0
 269 1032 254 1000 244 956 c 0
 195 736 145 514 96 287 c 0
 86 238 78 186 68 133 c 0
 58 80 51 46 48 30 c 0
 45 14 43 1 43 -11 c 0
 43 -23 44 -31 47 -35 c 0
 52 -43 63 -47 78 -47 c 0
 88 -47 95 -46 103 -44 c 0
 111 -42 119 -39 127 -34 c 0
 135 -29 143 -20 150 -7 c 0
 157 6 162 21 167 39 c 0
 172 57 182 103 196 178 c 0
 210 253 222 314 233 362 c 0
 258 479 277 562 289 608 c 1
 323 674 359 730 397 776 c 0
 419 803 440 823 458 835 c 0
EndSplineSet
Validated: 9
EndChar

StartChar: n
Encoding: 110 110 78
Width: 1044
GlyphClass: 2
Flags: HW
HStem: 496 4<338 361> 854 190<602 774>
VStem: 127 131<-28 322> 797 124<503 837>
LayerCount: 2
Fore
SplineSet
338 477 m 1
 330 462 321 464 311 483 c 1
 311 468 311 469 311 487 c 1
 319 468 328 466 338 481 c 0
 346 515 356 551 367 586 c 0
 383 612 399 635 413 657 c 0
 427 679 445 702 468 727 c 0
 491 752 513 774 536 792 c 0
 559 810 583 825 611 837 c 0
 639 849 668 854 698 854 c 0
 723 854 743 849 758 838 c 0
 778 824 791 802 795 772 c 0
 796 764 797 754 797 743 c 0
 797 698 787 626 768 528 c 0
 753 454 738 359 723 242 c 0
 707 120 697 54 695 43 c 0
 693 32 692 21 692 10 c 0
 692 -8 696 -21 703 -29 c 0
 711 -41 723 -47 739 -47 c 1
 740 -63 743 -63 744 -45 c 1
 760 -45 776 -38 791 -22 c 0
 806 -6 816 21 823 61 c 0
 830 105 841 195 855 329 c 0
 869 463 885 575 901 664 c 0
 913 728 920 784 921 832 c 0
 922 880 916 922 904 955 c 0
 892 988 874 1012 848 1026 c 0
 826 1038 799 1044 766 1044 c 0
 700 1044 644 1028 596 996 c 0
 548 964 508 925 475 877 c 1
 450 857 425 820 399 768 c 1
 411 829 424 874 438 901 c 0
 441 911 447 933 455 967 c 0
 460 987 463 1003 464 1015 c 0
 465 1027 464 1034 461 1038 c 0
 456 1048 446 1054 432 1055 c 2
 430 1055 l 1
 426 1055 l 2
 410 1055 393 1046 377 1030 c 0
 358 1014 343 986 332 946 c 0
 327 920 301 827 257 667 c 0
 213 507 182 380 164 287 c 0
 157 247 150 198 143 140 c 0
 136 82 131 47 127 35 c 0
 122 4 123 -18 131 -29 c 0
 139 -40 152 -45 170 -46 c 0
 188 -47 204 -41 219 -29 c 0
 237 -15 250 8 258 41 c 0
 262 61 270 108 280 181 c 0
 290 254 300 314 311 362 c 0
 319 399 328 437 338 477 c 1
338 502 m 1
 338 506 l 1
 361 500 l 1
 361 496 l 1
 338 502 l 1
EndSplineSet
Validated: 37
EndChar

StartChar: o
Encoding: 111 111 79
Width: 1044
GlyphClass: 2
Flags: HW
HStem: -55 152<320 570> 967 94<484 723>
VStem: 101 141<171 510> 796 147<479 892>
LayerCount: 2
Fore
SplineSet
900 459 m 0
 929 560 943 651 943 733 c 0
 943 786 938 831 927 868 c 0
 913 912 892 949 864 978 c 0
 836 1007 804 1028 769 1041 c 0
 734 1054 695 1061 654 1061 c 0
 594 1061 537 1046 483 1017 c 0
 429 988 380 947 335 895 c 0
 286 843 243 782 207 710 c 0
 171 638 143 561 124 479 c 0
 124 461 124 461 124 477 c 1
 109 418 101 362 101 307 c 0
 101 232 113 164 138 104 c 0
 158 56 189 19 230 -10 c 0
 272 -40 323 -55 382 -55 c 0
 510 -55 614 -11 693 76 c 0
 739 121 780 175 813 238 c 0
 846 301 875 374 900 459 c 0
275 186 m 0
 259 212 249 244 245 281 c 0
 244 295 243 311 243 330 c 0
 243 376 253 439 273 518 c 0
 313 657 360 766 413 844 c 0
 465 926 527 967 599 967 c 0
 633 967 664 959 691 944 c 0
 729 924 757 892 775 848 c 0
 789 815 796 775 796 729 c 0
 796 668 784 592 761 502 c 0
 730 382 688 285 636 213 c 0
 611 175 583 146 552 126 c 0
 521 106 489 96 458 96 c 2
 445 96 l 2
 407 99 374 109 347 125 c 0
 316 140 291 160 275 186 c 0
EndSplineSet
Validated: 5
EndChar

StartChar: p
Encoding: 112 112 80
Width: 1044
GlyphClass: 2
Flags: HW
HStem: -70 41G<280 295> -63 142<318 490 519 636> 895 147<595 811>
VStem: 851 139<427 760 770 856>
LayerCount: 2
Fore
SplineSet
316 -41 m 1xb0
 350 -56 408 -63 490 -63 c 2
 519 -63 l 2x70
 557 -62 596 -52 634 -33 c 0
 672 -13 707 16 738 51 c 0
 772 85 805 125 834 170 c 0
 863 215 887 261 907 309 c 0
 927 357 941 405 951 451 c 0
 977 571 990 674 990 760 c 0
 990 804 987 841 980 874 c 0
 972 916 957 951 936 976 c 0
 915 1001 889 1018 860 1028 c 0
 831 1038 795 1042 751 1042 c 0
 679 1042 599 1010 513 946 c 1
 495 950 478 937 462 907 c 1
 467 945 473 968 478 975 c 0
 489 1016 500 1048 511 1071 c 0
 514 1076 515 1082 515 1087 c 0
 515 1092 514 1099 511 1104 c 0
 504 1116 494 1122 480 1122 c 0
 470 1122 459 1119 445 1112 c 0
 429 1102 415 1089 404 1071 c 0
 399 1061 392 1041 382 1008 c 0
 374 979 363 929 349 858 c 0
 311 679 259 435 193 125 c 0
 127 -185 81 -404 58 -532 c 0
 57 -543 55 -553 54 -561 c 0
 54 -579 59 -591 69 -598 c 0
 76 -603 86 -607 101 -608 c 0
 117 -608 133 -602 148 -588 c 0
 163 -574 174 -553 181 -524 c 0
 188 -495 203 -427 226 -318 c 0
 249 -209 271 -114 290 -29 c 1
 300 -49 308 -53 316 -41 c 1xb0
574 858 m 0
 622 883 666 895 706 895 c 0
 728 895 747 892 765 885 c 0
 784 878 801 865 815 845 c 0
 829 825 840 800 845 770 c 0
 849 751 851 727 851 700 c 0
 851 647 843 583 828 508 c 1
 805 403 770 310 724 231 c 0
 701 189 673 154 641 127 c 0
 609 100 574 85 536 82 c 0
 496 79 457 78 418 79 c 0
 379 80 349 86 327 98 c 2
 312 106 l 1
 373 421 408 599 415 637 c 2
 437 754 l 1
 437 762 l 1
 445 768 l 2
 483 803 526 833 574 858 c 0
EndSplineSet
Validated: 41
EndChar

StartChar: q
Encoding: 113 113 81
Width: 1044
GlyphClass: 2
Flags: HW
HStem: -63 145<309 548> 854 109<491 773>
VStem: 105 146<141 476> 462 166<-563 -332> 469 2<-609 -608>
LayerCount: 2
Fore
SplineSet
923 762 m 0xf0
 934 774 940 790 940 809 c 0
 940 825 935 841 927 856 c 0
 912 886 883 912 840 932 c 0
 797 952 747 963 688 963 c 0
 643 963 600 956 558 944 c 0
 516 932 475 912 433 883 c 0
 391 854 351 818 313 774 c 0
 273 730 236 674 202 605 c 0
 168 536 140 458 120 371 c 0
 110 330 106 289 105 249 c 0
 104 209 109 170 119 132 c 0
 129 94 144 62 164 33 c 0
 184 4 210 -19 242 -36 c 0
 274 -53 311 -62 352 -63 c 2
 368 -63 l 2
 442 -63 502 -52 550 -29 c 1
 564 -39 577 -31 591 -6 c 1
 536 -248 496 -420 469 -522 c 0
 465 -538 462 -552 462 -563 c 0xf0
 462 -574 463 -583 466 -590 c 0
 467 -609 470 -612 471 -598 c 1
 471 -618 470 -622 469 -608 c 1
 469 -626 469 -626 469 -610 c 1xe8
 571 -610 l 1
 590 -535 609 -443 628 -334 c 1
 628 -350 628 -350 628 -332 c 0
 644 -261 665 -170 688 -61 c 0
 708 6 729 88 749 188 c 0
 767 263 810 446 878 737 c 1
 882 722 886 723 890 741 c 1
 902 745 913 752 923 762 c 0xf0
258 223 m 0
 253 249 250 277 251 307 c 0
 251 359 259 414 274 471 c 0
 289 526 308 577 333 623 c 0
 356 668 380 704 403 732 c 0
 426 760 451 784 478 802 c 0
 505 820 528 834 551 842 c 0
 574 850 596 854 616 854 c 0
 651 854 680 851 700 846 c 0
 722 842 743 832 763 817 c 2
 776 807 l 1
 690 442 637 217 618 131 c 1
 608 125 l 2
 557 95 499 81 432 82 c 2
 405 82 l 1
 368 85 337 99 310 125 c 0
 283 151 266 183 258 223 c 0
EndSplineSet
Validated: 37
EndChar

StartChar: r
Encoding: 114 114 82
Width: 1044
GlyphClass: 2
Flags: HW
HStem: 903 133<670 783>
VStem: 786 145<785 975>
LayerCount: 2
Fore
SplineSet
129 127 m 0
 125 78 120 42 116 20 c 0
 115 8 114 -3 113 -13 c 0
 112 -23 114 -31 118 -35 c 0
 126 -45 141 -49 161 -49 c 0
 186 -49 205 -42 217 -27 c 0
 228 -15 236 4 241 29 c 0
 248 63 255 110 262 170 c 0
 274 257 287 328 299 383 c 0
 306 423 318 481 337 557 c 1
 362 608 398 661 444 717 c 0
 471 750 500 779 529 806 c 0
 558 833 592 855 630 874 c 0
 668 893 709 903 751 903 c 2
 766 903 l 1
 769 911 771 907 772 891 c 0
 780 875 785 857 786 838 c 0
 786 820 783 798 777 773 c 0
 771 748 768 729 768 715 c 2
 768 707 l 2
 768 693 771 682 778 672 c 0
 783 665 790 662 800 662 c 2
 809 662 l 2
 827 667 842 675 855 686 c 0
 868 697 878 714 888 737 c 0
 898 757 906 785 913 820 c 0
 920 855 925 890 929 924 c 0
 930 939 931 954 931 968 c 0
 931 982 930 996 928 1008 c 0
 926 1020 924 1029 921 1036 c 2
 905 1036 l 2
 854 1036 802 1030 747 1016 c 0
 695 1004 651 986 613 963 c 0
 575 940 543 915 515 889 c 0
 487 863 464 837 448 811 c 0
 422 777 396 735 370 686 c 1
 395 790 420 884 446 967 c 0
 450 986 452 1001 452 1013 c 0
 452 1025 451 1033 448 1038 c 0
 443 1049 433 1055 419 1055 c 0
 400 1055 382 1046 364 1030 c 0
 345 1014 331 986 321 948 c 0
 311 907 285 809 242 655 c 0
 199 501 169 378 151 287 c 0
 144 246 137 193 129 127 c 0
EndSplineSet
Validated: 9
EndChar

StartChar: s
Encoding: 115 115 83
Width: 1044
GlyphClass: 2
Flags: HW
HStem: -72 129<293 556> 829 131<566 778>
VStem: 123 147<78 217> 282 126<579 732> 733 133<202 360> 778 143<667 829>
LayerCount: 2
Fore
SplineSet
237 -53 m 0xf8
 270 -65 308 -72 350 -72 c 0
 422 -72 491 -59 556 -32 c 0
 621 -5 680 34 735 86 c 0
 792 139 833 200 856 270 c 0
 863 290 866 310 866 328 c 0xf8
 866 336 865 343 864 350 c 0
 860 373 851 394 835 412 c 0
 819 430 796 447 765 463 c 0
 734 479 703 493 670 504 c 0
 640 515 605 525 567 535 c 0
 512 550 472 566 446 583 c 0
 420 600 408 619 408 641 c 2
 408 647 l 2
 412 680 428 709 455 735 c 0
 480 758 509 777 543 790 c 0
 577 803 611 812 645 819 c 0
 682 826 718 829 754 829 c 2
 778 829 l 1
 778 804 778 797 778 805 c 1
 778 765 783 725 791 684 c 0
 792 673 798 663 809 655 c 0
 816 651 822 649 830 649 c 0
 838 649 845 650 852 653 c 0
 864 657 875 664 884 674 c 0
 893 684 898 695 901 708 c 0
 904 721 907 736 911 752 c 0
 914 768 917 787 919 810 c 0
 921 833 922 852 922 869 c 0xf4
 922 886 921 904 919 920 c 0
 917 936 914 946 913 951 c 0
 912 956 910 960 909 961 c 0
 715 961 570 931 473 874 c 0
 373 818 312 743 289 649 c 0
 284 627 281 607 282 588 c 0
 283 569 286 553 293 541 c 0
 308 518 342 495 395 473 c 0
 420 462 449 450 485 438 c 1
 515 411 545 401 575 408 c 1
 601 400 626 390 651 379 c 0
 678 368 700 354 715 338 c 0
 727 324 733 309 733 291 c 0
 733 283 732 275 729 268 c 0
 717 231 689 196 645 162 c 0
 605 129 563 103 519 85 c 0
 475 67 438 57 408 57 c 0
 373 57 342 64 319 76 c 0
 307 83 298 92 291 106 c 0
 284 120 280 131 278 141 c 0
 276 151 273 164 270 182 c 0
 267 200 262 213 253 222 c 0
 244 231 234 236 223 236 c 0
 209 236 195 232 180 225 c 0
 142 206 123 165 123 104 c 0
 123 66 134 33 155 6 c 0
 176 -21 204 -41 237 -53 c 0xf8
EndSplineSet
Validated: 37
EndChar

StartChar: t
Encoding: 116 116 84
Width: 1044
GlyphClass: 2
Flags: HW
HStem: -45 125<373 621> 864 121<781 826> 1001 43G<376 381>
VStem: 189 135<130 262 305 461>
LayerCount: 2
Fore
SplineSet
695 98 m 0
 695 113 692 124 687 129 c 0
 686 130 684 131 681 131 c 0
 678 131 674 130 669 129 c 0
 605 96 545 80 490 80 c 2
 476 80 l 1
 420 83 378 108 351 154 c 0
 333 184 325 220 325 262 c 0
 325 282 327 304 331 326 c 0
 339 361 344 383 345 392 c 0
 346 401 354 431 367 484 c 0
 380 537 389 574 394 596 c 0
 399 618 411 659 427 719 c 0
 441 779 451 828 458 868 c 1
 554 869 661 868 781 864 c 0
 801 864 816 869 826 879 c 0
 837 890 846 905 851 924 c 0
 854 935 855 944 855 952 c 0
 855 966 852 975 847 979 c 0
 842 983 832 985 818 985 c 0
 793 985 682 989 484 997 c 1
 504 1131 526 1253 548 1364 c 0
 548 1374 542 1384 531 1395 c 0
 517 1409 505 1415 493 1415 c 0
 483 1415 474 1409 464 1395 c 0
 453 1379 447 1362 447 1346 c 0
 433 1231 413 1123 386 1022 c 1
 385 1025 383 1017 380 1001 c 1
 373 1011 366 1012 359 1004 c 1
 336 1005 306 1006 269 1006 c 0
 249 1006 233 999 222 987 c 0
 211 975 203 957 198 934 c 0
 195 922 194 910 194 900 c 0
 194 890 196 883 201 879 c 0
 206 875 214 872 226 872 c 2
 347 872 l 1
 337 838 326 801 314 761 c 0
 302 721 294 694 291 680 c 0
 288 666 280 638 268 595 c 0
 256 552 249 522 245 506 c 0
 241 490 233 458 222 410 c 0
 212 370 205 335 200 305 c 0
 193 268 189 235 189 205 c 0
 189 187 191 170 194 152 c 0
 201 108 214 72 234 45 c 0
 276 -11 339 -41 421 -45 c 2
 441 -45 l 2
 502 -45 557 -33 605 -8 c 0
 628 2 649 16 667 35 c 0
 686 55 695 76 695 98 c 0
EndSplineSet
Validated: 41
EndChar

StartChar: u
Encoding: 117 117 85
Width: 1044
GlyphClass: 2
Flags: HW
HStem: -35 141<263 449>
VStem: 105 139<134 213 233 448>
LayerCount: 2
Fore
SplineSet
935 913 m 0
 938 921 939 929 939 936 c 0
 939 947 936 957 929 965 c 0
 918 977 904 982 888 981 c 0
 872 980 856 972 840 959 c 0
 824 946 813 928 808 905 c 0
 797 833 773 721 738 569 c 0
 713 447 691 343 671 256 c 0
 668 237 666 235 665 250 c 1
 617 210 566 176 512 148 c 0
 458 120 407 106 361 106 c 0
 342 106 325 109 311 112 c 0
 297 115 283 122 269 133 c 0
 253 149 245 176 245 213 c 0
 245 227 246 242 249 258 c 0
 257 333 277 441 310 582 c 0
 321 637 337 702 357 780 c 0
 375 855 385 898 387 910 c 0
 389 922 390 931 390 938 c 0
 390 950 388 960 384 965 c 0
 376 976 363 981 345 981 c 0
 327 981 311 975 295 963 c 0
 279 951 268 930 261 903 c 0
 256 873 242 819 222 742 c 0
 202 665 186 605 175 561 c 0
 146 437 125 327 110 233 c 0
 107 214 105 195 105 175 c 0
 105 155 108 135 112 113 c 0
 120 73 137 39 163 12 c 0
 189 -15 218 -30 251 -33 c 0
 261 -34 270 -35 280 -35 c 0
 314 -35 349 -28 384 -16 c 0
 429 -1 469 17 503 40 c 0
 537 63 569 88 599 115 c 1
 615 112 632 127 648 158 c 1
 640 99 632 58 624 33 c 0
 617 -1 618 -24 626 -35 c 0
 633 -45 643 -49 658 -49 c 0
 659 -49 663 -48 667 -47 c 0
 683 -46 699 -39 714 -25 c 0
 729 -11 741 13 749 47 c 0
 816 336 861 540 886 659 c 0
 889 673 897 713 911 781 c 0
 925 849 934 893 935 913 c 0
EndSplineSet
Validated: 41
EndChar

StartChar: v
Encoding: 118 118 86
Width: 1044
GlyphClass: 2
Flags: HW
VStem: 138 143<501 995>
LayerCount: 2
Fore
SplineSet
906 946 m 0
 907 953 907 960 906 967 c 0
 906 997 901 1016 891 1026 c 0
 886 1031 880 1034 873 1033 c 0
 866 1032 856 1028 844 1020 c 0
 822 1006 801 977 781 932 c 0
 681 722 554 476 398 195 c 0
 386 166 373 146 361 135 c 1
 360 157 358 185 355 219 c 0
 355 226 347 277 332 373 c 0
 320 462 313 518 310 541 c 2
 302 627 l 2
 294 708 286 803 281 915 c 1
 281 941 278 962 271 977 c 0
 266 996 259 1009 252 1014 c 0
 245 1019 239 1022 232 1022 c 0
 224 1022 215 1019 207 1012 c 0
 196 1007 187 999 179 991 c 0
 152 962 138 919 138 862 c 2
 138 850 l 1
 163 584 211 296 283 -14 c 0
 286 -29 293 -41 304 -49 c 0
 312 -53 319 -55 327 -55 c 0
 335 -55 343 -54 351 -51 c 0
 367 -44 379 -32 386 -14 c 0
 449 106 518 239 596 385 c 0
 679 534 741 641 779 707 c 0
 817 768 850 826 877 881 c 0
 877 893 878 893 879 881 c 1
 894 907 903 928 906 946 c 0
EndSplineSet
Validated: 9
EndChar

StartChar: w
Encoding: 119 119 87
Width: 1044
GlyphClass: 2
Flags: HW
HStem: -12 43G<151 164>
VStem: 69 172<548 755> 476 92<21 547>
LayerCount: 2
Fore
SplineSet
73 6 m 0
 74 -25 79 -45 89 -55 c 0
 99 -67 109 -74 120 -74 c 0
 131 -74 144 -68 159 -57 c 0
 174 -46 186 -30 194 -8 c 0
 234 70 272 155 310 246 c 0
 344 339 378 431 409 522 c 0
 440 616 466 690 486 743 c 0
 504 795 522 840 540 877 c 1
 536 829 532 778 529 723 c 0
 528 698 521 629 507 516 c 0
 487 337 476 204 476 117 c 0
 476 82 477 48 480 18 c 0
 483 -11 489 -29 497 -39 c 0
 507 -50 519 -55 534 -55 c 2
 536 -55 l 1
 542 -55 l 2
 560 -55 575 -51 589 -41 c 0
 605 -29 620 -9 632 20 c 0
 673 110 726 246 792 426 c 0
 862 605 920 764 966 903 c 0
 973 928 976 944 976 952 c 0
 976 967 974 979 970 987 c 0
 966 999 959 1008 951 1012 c 0
 947 1013 943 1014 939 1014 c 0
 928 1014 917 1009 906 1001 c 0
 891 989 878 964 867 926 c 0
 744 538 659 276 611 141 c 0
 596 95 582 54 568 20 c 1
 568 160 l 2
 568 238 573 339 583 463 c 0
 591 589 598 697 605 788 c 0
 613 878 617 929 617 940 c 0
 616 973 612 993 605 1001 c 0
 598 1013 588 1021 574 1022 c 0
 558 1022 543 1013 531 997 c 0
 519 983 509 965 501 942 c 0
 468 864 404 687 310 410 c 1
 148 -12 l 1
 152 43 158 101 163 164 c 0
 190 503 216 759 241 932 c 1
 241 946 l 2
 241 972 237 989 230 999 c 0
 223 1010 214 1016 202 1016 c 0
 179 1016 158 1005 142 983 c 0
 128 967 120 940 116 905 c 1
 85 711 69 490 69 242 c 0
 69 166 70 87 73 6 c 0
EndSplineSet
Validated: 9
EndChar

StartChar: x
Encoding: 120 120 88
Width: 1044
GlyphClass: 2
Flags: HW
LayerCount: 2
Fore
SplineSet
85 -47 m 0
 86 -50 89 -51 92 -50 c 0
 95 -49 101 -47 108 -43 c 0
 122 -36 137 -22 153 0 c 0
 169 19 221 74 308 164 c 1
 387 262 447 338 488 391 c 2
 511 420 l 1
 525 385 l 2
 569 270 623 145 689 10 c 0
 704 -27 720 -45 738 -45 c 0
 742 -45 747 -44 751 -41 c 0
 762 -36 771 -26 781 -12 c 0
 791 2 797 14 800 24 c 0
 803 34 804 46 804 61 c 0
 804 77 800 96 792 115 c 0
 781 141 763 172 740 209 c 0
 720 251 698 297 673 348 c 0
 650 394 629 443 611 492 c 2
 605 508 l 1
 612 513 619 519 624 524 c 2
 955 915 l 1
 969 926 979 937 984 948 c 0
 987 955 988 961 988 965 c 0
 988 985 984 1004 976 1020 c 0
 972 1031 966 1036 959 1036 c 0
 939 1036 913 1019 882 985 c 0
 855 959 812 913 755 846 c 0
 669 729 608 646 574 598 c 1
 560 637 l 2
 540 697 515 761 486 829 c 0
 457 896 435 946 419 977 c 0
 411 999 401 1014 390 1022 c 0
 383 1027 377 1030 370 1030 c 0
 367 1030 364 1029 361 1028 c 0
 350 1024 341 1017 331 1006 c 0
 320 994 312 981 308 969 c 0
 301 954 298 935 298 913 c 0
 298 899 302 884 310 868 c 0
 318 848 342 803 380 735 c 0
 418 660 448 594 470 535 c 2
 476 520 l 1
 466 508 l 2
 432 462 390 411 339 358 c 2
 191 197 l 2
 146 156 114 123 95 98 c 0
 69 69 56 45 56 25 c 0
 56 9 60 -6 65 -20 c 0
 72 -34 78 -43 85 -47 c 0
EndSplineSet
Validated: 9
EndChar

StartChar: y
Encoding: 121 121 89
Width: 1044
GlyphClass: 2
Flags: HW
VStem: 238 131<520 1017>
LayerCount: 2
Fore
SplineSet
1014 903 m 0
 1026 923 1034 943 1038 961 c 0
 1041 973 1042 982 1042 987 c 0
 1042 1003 1039 1017 1034 1028 c 0
 1031 1033 1027 1038 1022 1042 c 0
 1017 1045 1011 1047 1004 1047 c 0
 997 1047 989 1044 979 1040 c 0
 969 1036 958 1028 946 1014 c 0
 934 1000 921 981 909 958 c 0
 807 765 670 521 498 225 c 0
 487 206 476 188 465 172 c 1
 442 310 426 408 417 466 c 0
 408 524 398 601 387 697 c 0
 376 793 370 880 369 956 c 0
 369 971 368 971 367 956 c 1
 367 979 364 998 359 1010 c 0
 354 1022 349 1029 343 1032 c 0
 337 1035 331 1036 326 1036 c 0
 316 1036 307 1033 297 1026 c 0
 286 1021 276 1012 267 1001 c 0
 258 990 251 974 244 954 c 0
 240 940 238 924 238 905 c 2
 238 881 l 1
 260 635 305 345 373 12 c 1
 261 -181 145 -361 25 -532 c 0
 13 -548 5 -564 4 -578 c 0
 3 -585 2 -591 2 -598 c 0
 2 -614 6 -628 16 -639 c 0
 24 -647 33 -650 41 -649 c 0
 45 -649 50 -648 55 -647 c 0
 74 -640 91 -626 106 -606 c 2
 238 -410 l 2
 354 -223 470 -26 586 180 c 0
 658 303 734 434 815 573 c 0
 901 712 968 822 1014 903 c 0
EndSplineSet
Validated: 9
EndChar

StartChar: z
Encoding: 122 122 90
Width: 1044
GlyphClass: 2
Flags: HW
HStem: 18 117<687 744> 854 125<368 720>
LayerCount: 2
Fore
SplineSet
744 27 m 0
 758 42 768 60 773 82 c 0
 774 89 775 94 775 99 c 0
 775 104 773 110 769 115 c 0
 764 123 749 130 726 135 c 2
 228 135 l 1
 273 178 l 2
 318 222 370 271 427 326 c 2
 572 463 l 2
 612 501 657 548 708 604 c 0
 765 660 817 717 863 776 c 0
 894 816 917 846 930 866 c 0
 943 886 950 901 951 909 c 0
 952 917 953 926 953 934 c 0
 953 948 951 959 947 969 c 0
 944 974 942 978 939 981 c 0
 936 984 933 985 929 985 c 2
 927 985 l 2
 859 981 790 979 720 979 c 0
 605 979 491 986 376 1001 c 0
 373 1001 371 1003 368 1004 c 0
 356 1004 345 998 337 987 c 0
 323 971 313 951 308 926 c 0
 307 918 306 910 306 905 c 0
 306 894 309 886 315 881 c 0
 321 876 331 871 343 868 c 0
 384 858 451 854 542 854 c 0
 603 854 678 856 767 860 c 2
 830 862 l 1
 787 817 l 2
 749 776 691 717 615 641 c 0
 540 563 463 484 384 403 c 0
 298 322 243 272 220 250 c 0
 184 217 157 190 138 169 c 0
 119 148 107 133 103 125 c 0
 95 111 91 95 91 76 c 0
 91 64 93 52 96 41 c 0
 99 30 103 22 106 19 c 0
 109 16 114 14 118 14 c 1
 189 17 244 18 282 18 c 0
 367 18 453 16 542 12 c 0
 631 8 679 6 687 6 c 0
 713 6 732 13 744 27 c 0
EndSplineSet
Validated: 9
EndChar

StartChar: braceleft
Encoding: 123 123 91
Width: 1044
GlyphClass: 2
Flags: HW
HStem: -178 123<359 598> 680 156<34 227> 1593 123<732 1004>
VStem: 147 139<8 203> 420 141<985 1406> 457 141<909 985 1030 1190>
LayerCount: 2
Fore
SplineSet
612 -94 m 0xf4
 612 -84 609 -77 602 -72 c 0
 591 -61 575 -55 555 -55 c 0
 522 -55 490 -52 459 -46 c 0
 428 -40 398 -30 371 -17 c 0
 344 -4 321 13 305 35 c 0
 293 53 287 72 287 92 c 0
 287 100 288 109 289 117 c 0
 297 155 310 192 326 228 c 0
 342 264 359 297 376 326 c 0
 393 355 410 382 427 409 c 0
 444 436 460 464 474 494 c 0
 488 524 499 553 504 582 c 0
 504 585 505 587 506 590 c 0
 506 609 492 632 463 659 c 0
 426 693 376 721 313 743 c 2
 227 772 l 1
 315 791 l 2
 378 805 438 828 494 862 c 0
 521 878 544 898 562 919 c 0
 580 940 593 962 598 985 c 2
 598 999 l 2xf4
 598 1006 596 1020 593 1042 c 0
 590 1064 584 1090 576 1121 c 0
 568 1152 564 1189 561 1231 c 2
 561 1260 l 2
 561 1377 605 1467 692 1528 c 0
 755 1573 833 1594 924 1593 c 0
 939 1593 958 1602 983 1620 c 0
 1012 1642 1025 1662 1024 1681 c 0
 1024 1688 1021 1695 1016 1702 c 0
 1006 1712 992 1716 973 1716 c 0
 834 1716 716 1680 620 1608 c 0
 524 1536 463 1438 434 1315 c 0
 424 1271 420 1230 420 1192 c 0xf8
 420 1150 423 1117 431 1094 c 0
 439 1071 444 1049 449 1030 c 0
 454 1011 457 996 457 985 c 2
 457 967 l 2
 452 944 439 923 421 907 c 0
 403 891 382 878 359 869 c 0
 336 860 311 854 281 849 c 0
 251 844 222 841 195 839 c 0
 168 837 136 836 102 836 c 0
 83 836 66 829 52 815 c 0
 38 801 27 783 22 760 c 0
 21 753 20 746 20 739 c 0
 20 725 24 715 30 705 c 0
 36 695 42 688 48 685 c 0
 54 682 61 680 68 680 c 0
 105 680 140 677 174 672 c 0
 234 662 282 647 319 627 c 0
 356 605 374 583 373 563 c 2
 373 555 l 1
 365 524 353 492 338 461 c 0
 323 430 307 400 289 373 c 0
 255 318 238 290 238 289 c 0
 222 262 205 231 189 197 c 0
 173 163 162 127 154 90 c 0
 150 72 147 55 147 39 c 0
 147 16 152 -7 160 -27 c 0
 175 -61 199 -89 234 -111 c 0
 269 -133 311 -149 361 -161 c 0
 411 -173 465 -178 524 -178 c 0
 549 -178 568 -172 580 -158 c 0
 595 -143 605 -125 610 -106 c 0
 611 -102 612 -98 612 -94 c 0xf4
EndSplineSet
Validated: 41
EndChar

StartChar: bar
Encoding: 124 124 92
Width: 1044
GlyphClass: 2
Flags: HW
VStem: 231 582
LayerCount: 2
Fore
SplineSet
809 1616 m 2
 812 1631 813 1644 813 1655 c 0
 813 1666 811 1674 806 1680 c 0
 801 1686 792 1690 778 1690 c 2
 772 1690 l 2
 753 1690 737 1682 724 1666 c 0
 711 1650 700 1627 692 1597 c 0
 677 1536 634 1354 563 1051 c 2
 360 197 l 2
 296 -69 256 -230 240 -285 c 0
 235 -303 231 -316 231 -326 c 0
 231 -336 232 -342 234 -346 c 0
 236 -350 240 -353 244 -355 c 0
 248 -357 253 -358 260 -358 c 1
 264 -358 l 2
 282 -358 299 -352 317 -339 c 0
 335 -326 348 -308 356 -283 c 0
 382 -157 463 188 600 752 c 2
 809 1616 l 2
EndSplineSet
Validated: 9
EndChar

StartChar: braceright
Encoding: 125 125 93
Width: 1044
GlyphClass: 2
Flags: HW
HStem: -178 123<39 306> 725 156<818 1012> 1593 123<461 684>
VStem: 448 141<359 571 575 650> 481 141<136 357 426 558> 540 133<940 1087> 755 139<1335 1532>
LayerCount: 2
Fore
SplineSet
606 223 m 0xea
 617 269 622 314 622 357 c 0xea
 622 400 619 434 612 459 c 0
 605 484 599 506 595 526 c 0
 591 546 589 561 589 571 c 0xf2
 589 581 590 589 591 594 c 0
 596 617 608 637 626 653 c 0
 644 669 664 682 687 691 c 0
 710 700 735 707 765 712 c 0
 795 717 824 720 851 722 c 0
 878 724 911 725 946 725 c 0
 966 725 983 731 996 745 c 0
 1009 759 1018 778 1023 801 c 2
 1028 821 l 2
 1028 835 1024 846 1018 856 c 0
 1012 866 1006 873 999 876 c 0
 992 879 985 881 978 881 c 0
 941 881 906 883 872 888 c 0
 838 893 810 899 787 907 c 0
 764 915 745 924 728 934 c 0
 711 944 698 954 688 964 c 0
 678 974 673 985 673 997 c 2
 673 1006 l 2
 680 1037 691 1068 706 1097 c 0
 721 1126 737 1154 755 1180 c 0
 773 1206 790 1231 806 1256 c 0
 822 1281 839 1310 854 1343 c 0
 869 1376 880 1411 888 1448 c 0
 892 1466 894 1483 894 1499 c 0
 894 1522 890 1545 882 1565 c 0
 867 1599 842 1627 808 1647 c 0
 771 1669 728 1686 679 1698 c 0
 630 1710 577 1716 518 1716 c 0
 495 1716 475 1710 460 1696 c 0
 446 1681 437 1664 432 1645 c 0
 431 1641 430 1636 430 1632 c 0
 430 1624 433 1617 440 1610 c 0
 451 1599 466 1593 485 1593 c 0
 518 1593 550 1590 582 1584 c 0
 614 1578 644 1568 672 1555 c 0
 700 1542 722 1525 737 1503 c 0
 749 1485 755 1466 755 1446 c 0
 755 1438 754 1429 751 1421 c 0
 741 1383 729 1347 714 1312 c 0
 699 1277 683 1247 666 1220 c 0
 649 1193 633 1168 617 1143 c 0
 601 1118 587 1092 573 1064 c 0
 559 1036 549 1007 542 977 c 0
 541 974 540 972 540 969 c 0xe6
 540 950 554 927 583 901 c 0
 620 867 671 839 735 817 c 2
 817 788 l 1
 731 768 l 2
 667 753 607 729 552 696 c 0
 525 680 502 661 484 641 c 0
 466 621 454 598 450 575 c 0
 450 572 449 567 448 559 c 0xf2
 448 541 454 497 466 426 c 0
 473 392 478 353 479 309 c 0
 479 299 480 292 481 285 c 0
 481 251 478 218 471 188 c 0
 453 114 413 55 350 11 c 0
 287 -33 209 -55 116 -55 c 0
 101 -55 82 -64 59 -82 c 0
 36 -100 22 -117 18 -135 c 0
 17 -138 17 -140 18 -143 c 0
 18 -150 21 -157 26 -164 c 0
 36 -174 49 -178 67 -178 c 0
 206 -178 323 -142 419 -70 c 0
 515 2 577 100 606 223 c 0xea
EndSplineSet
Validated: 9
EndChar

StartChar: asciitilde
Encoding: 126 126 94
Width: 1044
GlyphClass: 2
Flags: HW
HStem: 565 166<602 749> 895 168<294 423>
LayerCount: 2
Fore
SplineSet
1025 1016 m 2
 1024 1024 1019 1027 1009 1026 c 0
 1005 1026 999 1025 994 1024 c 0
 980 1019 967 1008 953 993 c 0
 927 967 903 936 880 901 c 0
 846 846 818 808 798 786 c 0
 787 774 777 764 768 756 c 0
 759 748 749 741 737 738 c 0
 725 735 717 733 710 732 c 0
 703 731 693 731 681 731 c 2
 673 731 l 2
 662 731 652 733 642 736 c 0
 632 739 623 747 615 758 c 0
 610 765 605 771 601 778 c 0
 594 788 587 808 579 838 c 0
 576 846 573 857 570 872 c 2
 562 909 l 2
 554 938 546 962 537 982 c 0
 528 1002 519 1017 511 1027 c 0
 503 1037 493 1045 481 1050 c 0
 469 1055 457 1058 445 1060 c 0
 433 1062 417 1063 398 1063 c 0
 352 1063 295 1028 228 958 c 0
 158 886 93 785 30 655 c 0
 23 635 19 621 19 615 c 0
 19 609 21 603 22 598 c 0
 25 586 27 579 30 578 c 2
 34 578 l 2
 46 578 63 584 85 598 c 0
 114 617 134 639 148 664 c 0
 200 757 235 814 251 834 c 0
 259 844 269 853 281 864 c 0
 293 875 303 883 315 888 c 0
 327 893 338 895 350 895 c 0
 362 895 372 894 380 893 c 0
 391 890 401 884 411 874 c 0
 415 869 419 865 423 864 c 0
 428 859 433 850 438 837 c 0
 443 824 447 815 449 810 c 0
 451 805 457 786 467 751 c 0
 477 716 487 689 496 669 c 0
 505 649 515 630 527 613 c 0
 539 596 554 585 571 577 c 0
 588 569 608 565 630 565 c 0
 672 565 718 585 767 623 c 0
 830 672 896 753 964 866 c 0
 978 889 988 910 996 926 c 0
 1015 966 1025 994 1025 1010 c 2
 1025 1016 l 2
30 578 m 1
 30 578 l 1
EndSplineSet
Validated: 9
EndChar

StartChar: endash
Encoding: 8211 8211 95
Width: 1044
GlyphClass: 2
Flags: HW
HStem: 535 129<204 256 789 839>
LayerCount: 2
Fore
SplineSet
178 565 m 0
 178 553 182 545 188 541 c 0
 194 537 203 535 217 535 c 0
 255 535 446 537 789 541 c 0
 811 541 828 547 840 559 c 0
 851 570 859 587 864 610 c 0
 867 626 866 639 862 647 c 0
 859 652 849 655 829 655 c 0
 809 655 732 656 599 659 c 0
 466 662 352 664 256 664 c 0
 233 664 215 657 203 643 c 0
 193 632 186 616 182 594 c 0
 179 583 178 573 178 565 c 0
EndSplineSet
Validated: 9
EndChar

StartChar: emdash
Encoding: 8212 8212 96
Width: 1044
GlyphClass: 2
Flags: HW
HStem: 535 125<91 139 899 952>
LayerCount: 2
Fore
SplineSet
66 565 m 0
 66 553 69 545 75 541 c 0
 81 537 92 535 107 535 c 0
 162 535 425 537 899 541 c 0
 922 541 941 547 953 559 c 0
 964 570 972 587 977 610 c 0
 980 628 979 641 975 651 c 0
 971 658 958 662 937 662 c 0
 916 662 854 660 752 659 c 0
 621 658 516 657 437 657 c 0
 358 657 261 658 144 659 c 1
 139 659 l 2
 117 659 101 653 90 641 c 0
 80 630 74 614 70 592 c 0
 67 582 66 573 66 565 c 0
EndSplineSet
Validated: 9
EndChar

StartChar: quoteleft
Encoding: 8216 8216 97
Width: 1044
GlyphClass: 2
Flags: HW
HStem: 1014 481<473 537>
LayerCount: 2
Fore
SplineSet
476 1049 m 0
 479 1038 483 1029 489 1024 c 0
 495 1019 501 1016 505 1015 c 0
 509 1014 513 1014 517 1014 c 0
 528 1014 542 1018 558 1026 c 0
 611 1052 637 1078 636 1104 c 0
 636 1109 635 1115 634 1120 c 0
 586 1278 558 1394 550 1466 c 0
 549 1477 545 1485 538 1489 c 0
 531 1493 523 1495 515 1495 c 0
 503 1495 488 1492 470 1485 c 0
 452 1478 437 1466 425 1448 c 0
 415 1434 410 1419 409 1403 c 0
 409 1400 410 1397 411 1393 c 0
 416 1345 425 1287 438 1217 c 0
 451 1147 464 1091 476 1049 c 0
EndSplineSet
Validated: 41
EndChar

StartChar: quoteright
Encoding: 8217 8217 98
Width: 1044
GlyphClass: 2
Flags: HW
HStem: 956 516
VStem: 334 377
LayerCount: 2
Fore
SplineSet
334 1028 m 0
 334 1023 335 1017 336 1010 c 0
 343 985 354 969 369 961 c 0
 373 958 378 956 385 956 c 0
 392 956 401 960 412 965 c 0
 435 975 457 993 477 1022 c 0
 525 1085 598 1204 698 1380 c 0
 706 1399 711 1413 711 1421 c 2
 711 1434 l 2
 707 1448 699 1457 688 1462 c 0
 676 1469 664 1473 653 1473 c 0
 642 1473 632 1469 621 1464 c 0
 610 1459 600 1450 590 1436 c 0
 564 1390 526 1328 475 1252 c 0
 424 1176 383 1118 352 1077 c 0
 340 1061 334 1044 334 1028 c 0
EndSplineSet
Validated: 9
EndChar

StartChar: quotesinglbase
Encoding: 8218 8218 99
Width: 1044
GlyphClass: 2
Flags: HW
VStem: 434 173<1084 1399 1411 1466> 469 139<1010 1261>
LayerCount: 2
Fore
SplineSet
469 1049 m 2x80
 469 1028 l 2
 469 1017 472 1009 477 1004 c 0
 488 994 510 992 541 999 c 0
 557 1004 573 1015 587 1029 c 0
 601 1043 608 1061 608 1081 c 0x40
 611 1129 610 1191 607 1265 c 0
 604 1339 600 1401 596 1450 c 0
 593 1465 589 1476 582 1482 c 0
 575 1488 568 1491 563 1491 c 0
 552 1491 538 1488 522 1483 c 0
 512 1482 505 1479 497 1476 c 0
 489 1473 481 1467 472 1462 c 0
 463 1457 456 1451 451 1445 c 0
 446 1439 441 1432 438 1426 c 0
 435 1420 434 1415 434 1411 c 0
 434 1410 435 1406 436 1399 c 0
 458 1232 469 1116 469 1049 c 2x80
EndSplineSet
Validated: 41
EndChar

StartChar: quotedblleft
Encoding: 8220 8220 100
Width: 1044
GlyphClass: 2
Flags: HW
LayerCount: 2
Fore
SplineSet
631 1135 m 0
 635 1124 639 1116 644 1111 c 0
 649 1106 653 1104 657 1103 c 0
 661 1102 666 1102 670 1102 c 0
 682 1102 696 1106 711 1114 c 0
 764 1140 792 1166 793 1192 c 0
 793 1197 791 1203 788 1208 c 0
 740 1366 713 1482 705 1554 c 0
 704 1564 699 1571 691 1576 c 0
 683 1581 676 1583 668 1583 c 0
 656 1583 641 1580 624 1573 c 0
 607 1566 592 1554 580 1536 c 0
 570 1522 564 1507 563 1491 c 2
 563 1481 l 2
 568 1433 578 1374 592 1304 c 0
 606 1234 619 1177 631 1135 c 0
319 1026 m 0
 322 1015 327 1006 333 1001 c 0
 339 996 344 993 348 993 c 2
 360 993 l 2
 371 993 385 997 401 1004 c 0
 454 1030 481 1055 481 1081 c 0
 481 1086 480 1093 479 1098 c 0
 431 1256 403 1372 393 1444 c 0
 392 1455 388 1462 381 1466 c 0
 374 1470 366 1472 358 1472 c 0
 346 1472 331 1469 313 1462 c 0
 295 1455 280 1443 268 1425 c 0
 258 1411 253 1396 252 1380 c 0
 252 1377 253 1375 254 1372 c 0
 259 1324 269 1265 282 1195 c 0
 295 1125 307 1068 319 1026 c 0
EndSplineSet
Validated: 9
EndChar

StartChar: quotedblright
Encoding: 8221 8221 101
Width: 1044
GlyphClass: 2
Flags: HW
LayerCount: 2
Fore
SplineSet
588 1532 m 0
 588 1536 587 1540 586 1544 c 0
 582 1558 575 1568 565 1573 c 0
 553 1580 541 1583 530 1583 c 0
 519 1583 508 1580 496 1575 c 0
 484 1570 473 1560 465 1546 c 0
 439 1498 399 1434 344 1352 c 0
 288 1267 245 1205 215 1167 c 0
 204 1153 199 1141 199 1130 c 0
 199 1114 213 1097 240 1079 c 0
 248 1075 257 1073 268 1074 c 0
 279 1075 293 1080 309 1090 c 0
 325 1100 340 1112 354 1130 c 0
 400 1193 473 1314 573 1491 c 0
 583 1506 588 1520 588 1532 c 0
755 1464 m 0
 743 1459 733 1450 725 1436 c 0
 698 1390 659 1328 610 1252 c 0
 561 1176 520 1118 487 1077 c 0
 476 1055 470 1039 469 1028 c 0
 469 1023 470 1017 471 1010 c 0
 478 985 489 969 504 961 c 0
 508 958 513 956 520 956 c 0
 527 956 536 960 547 965 c 0
 570 975 592 993 614 1020 c 0
 660 1083 734 1203 834 1380 c 0
 842 1400 846 1415 846 1423 c 2
 846 1434 l 2
 842 1448 834 1457 823 1462 c 0
 811 1469 799 1473 788 1473 c 0
 777 1473 767 1469 755 1464 c 0
EndSplineSet
Validated: 9
EndChar

StartChar: bullet
Encoding: 8226 8226 102
Width: 1044
GlyphClass: 2
Flags: HW
HStem: 713 326<453 598>
VStem: 354 336<805 947>
LayerCount: 2
Fore
SplineSet
354 827 m 0
 354 798 363 774 379 752 c 0
 397 726 424 713 461 713 c 2
 479 713 l 2
 531 718 575 737 612 769 c 0
 649 801 673 841 684 887 c 0
 688 902 690 916 690 930 c 0
 690 956 683 978 668 997 c 0
 649 1024 619 1038 578 1038 c 2
 571 1038 l 2
 527 1035 484 1018 440 985 c 0
 383 943 354 890 354 827 c 0
EndSplineSet
Validated: 9
EndChar
